<?xml version="1.0" standalone="no"?>
<!DOCTYPE svg PUBLIC "-//W3C//DTD SVG 1.1//EN" "http://www.w3.org/Graphics/SVG/1.1/DTD/svg11.dtd" >
<svg xmlns="http://www.w3.org/2000/svg" xmlns:xlink="http://www.w3.org/1999/xlink" version="1.1">
<metadata></metadata>
<defs>
<font id="baloo_thambi_2regular" horiz-adv-x="1126" >
<font-face units-per-em="2048" ascent="1638" descent="-410" />
<missing-glyph horiz-adv-x="409" />
<glyph unicode="&#xfb01;" horiz-adv-x="1310" d="M158 63v809h164v-868q-10 -4 -31 -9t-45 -5q-43 0 -65.5 17.5t-22.5 55.5zM158 782v248q0 121 44 195.5t127 110.5t197 36q117 0 183.5 -30.5t66.5 -75.5q0 -23 -9 -41.5t-26 -34.5q-37 20 -92 33.5t-106 13.5q-125 0 -174.5 -51t-49.5 -164v-240h-161zM291 760v133h434 q6 -8 12 -25.5t6 -40.5q0 -33 -16 -50t-47 -17h-389zM956 1245q0 43 31 73t76 30q47 0 75.5 -30t28.5 -73t-28.5 -72.5t-75.5 -29.5q-45 0 -76 29.5t-31 72.5zM981 63v478h164v-537q-10 -4 -31 -9t-45 -5q-43 0 -65.5 17.5t-22.5 55.5zM981 461v481q10 4 31.5 9t46.5 5 q43 0 64.5 -17t21.5 -58v-420h-164z" />
<glyph unicode="&#xfb02;" horiz-adv-x="1320" d="M158 63v809h164v-868q-10 -4 -31 -9t-45 -5q-43 0 -65.5 17.5t-22.5 55.5zM158 782v248q0 121 44 195.5t127 110.5t197 36q117 0 183.5 -30.5t66.5 -75.5q0 -23 -9 -41.5t-26 -34.5q-37 20 -92 33.5t-106 13.5q-125 0 -174.5 -51t-49.5 -164v-240h-161zM291 760v133h434 q6 -8 12 -25.5t6 -40.5q0 -33 -16 -50t-47 -17h-389zM987 63v478l164 -25v-512q-10 -4 -30.5 -9t-45.5 -5q-43 0 -65.5 17.5t-22.5 55.5zM987 461v866q10 4 31.5 9t44.5 5q45 0 66.5 -17t21.5 -56v-830z" />
<glyph unicode="&#xfb03;" horiz-adv-x="2023" d="M158 63v809h164v-868q-10 -4 -31 -9t-45 -5q-43 0 -65.5 17.5t-22.5 55.5zM158 782v248q0 121 44 195.5t127 110.5t197 36q117 0 183.5 -30.5t66.5 -75.5q0 -23 -9 -41.5t-26 -34.5q-37 20 -92 33.5t-106 13.5q-125 0 -174.5 -51t-49.5 -164v-240h-161zM291 760v133h434 q6 -8 12 -25.5t6 -40.5q0 -33 -16 -50t-47 -17h-389zM877 63v809h164v-868q-10 -4 -31 -9t-45 -5q-43 0 -65.5 17.5t-22.5 55.5zM877 782v248q0 121 44 195.5t127 110.5t197 36q117 0 183.5 -30.5t66.5 -75.5q0 -23 -9 -41.5t-26 -34.5q-37 20 -92 33.5t-106 13.5 q-125 0 -174.5 -51t-49.5 -164v-240h-161zM1010 760v133h434q6 -8 12 -25.5t6 -40.5q0 -33 -16 -50t-47 -17h-389zM1669 1245q0 43 31 73t76 30q47 0 75.5 -30t28.5 -73t-28.5 -72.5t-75.5 -29.5q-45 0 -76 29.5t-31 72.5zM1694 63v478h164v-537q-10 -4 -31 -9t-45 -5 q-43 0 -65.5 17.5t-22.5 55.5zM1694 461v481q10 4 31.5 9t46.5 5q43 0 64.5 -17t21.5 -58v-420h-164z" />
<glyph unicode="&#xfb04;" horiz-adv-x="2107" d="M158 63v809h164v-868q-10 -4 -31 -9t-45 -5q-43 0 -65.5 17.5t-22.5 55.5zM158 782v248q0 121 44 195.5t127 110.5t197 36q117 0 183.5 -30.5t66.5 -75.5q0 -23 -9 -41.5t-26 -34.5q-37 20 -92 33.5t-106 13.5q-125 0 -174.5 -51t-49.5 -164v-240h-161zM291 760v133h434 q6 -8 12 -25.5t6 -40.5q0 -33 -16 -50t-47 -17h-389zM877 63v809h164v-868q-10 -4 -31 -9t-45 -5q-43 0 -65.5 17.5t-22.5 55.5zM877 782v248q0 121 44 195.5t127 110.5t197 36q117 0 183.5 -30.5t66.5 -75.5q0 -23 -9 -41.5t-26 -34.5q-37 20 -92 33.5t-106 13.5 q-125 0 -174.5 -51t-49.5 -164v-240h-161zM1010 760v133h434q6 -8 12 -25.5t6 -40.5q0 -33 -16 -50t-47 -17h-389zM1706 63v478l164 -25v-512q-10 -4 -30.5 -9t-45.5 -5q-43 0 -65.5 17.5t-22.5 55.5zM1706 461v866q10 4 31.5 9t44.5 5q45 0 66.5 -17t21.5 -56v-830z" />
<glyph horiz-adv-x="0" />
<glyph unicode="&#xd;" horiz-adv-x="456" />
<glyph unicode=" "  horiz-adv-x="409" />
<glyph unicode="&#x09;" horiz-adv-x="409" />
<glyph unicode="&#xa0;" horiz-adv-x="409" />
<glyph unicode="!" horiz-adv-x="512" d="M135 92q0 49 31 82t84 33t84 -33t31 -82t-31 -82t-84 -33t-84 33t-31 82zM162 1253q43 27 92 27q39 0 60.5 -21.5t21.5 -66.5q0 -61 -1 -160.5t-4 -215.5t-7.5 -229.5t-8.5 -203.5q-12 -8 -29.5 -14.5t-37.5 -6.5q-29 0 -47.5 12.5t-20.5 39.5q-4 59 -8 163.5t-6 228.5 t-3 242.5t-1 204.5z" />
<glyph unicode="&#x22;" horiz-adv-x="552" d="M63 1260q37 20 80 20q37 0 56.5 -19.5t19.5 -60.5q0 -35 -2 -98.5t-5 -130t-5 -115.5q-14 -6 -29.5 -9t-34.5 -3q-31 0 -48 14t-19 45zM334 1260q18 10 37.5 15t44.5 5q37 0 55 -19.5t18 -62.5q0 -33 -2 -96.5t-4 -130t-4 -115.5q-14 -6 -31.5 -9t-33.5 -3 q-33 0 -48.5 14t-17.5 45z" />
<glyph unicode="#" horiz-adv-x="1366" d="M88 391q0 35 17.5 51.5t50.5 16.5h1061q4 -12 8 -27.5t4 -34.5q0 -33 -17.5 -49t-52.5 -16h-1059q-4 12 -8 27.5t-4 31.5zM147 870q0 35 18.5 51.5t51.5 16.5h1061q4 -12 8 -27.5t4 -33.5q0 -33 -17 -49.5t-52 -16.5h-1059q-4 12 -9.5 26.5t-5.5 32.5zM276 55 q0 20 6.5 50t12.5 51l229 1095q10 2 24.5 3t26.5 1q33 0 52.5 -15t19.5 -50q0 -20 -7 -48.5t-11 -51.5l-230 -1096q-10 -2 -23.5 -3t-27.5 -1q-33 0 -52.5 16.5t-19.5 48.5zM719 55q0 20 6 50t10 51l232 1095q10 2 24.5 3t26.5 1q33 0 52.5 -15t19.5 -50q0 -20 -7.5 -48.5 t-11.5 -51.5l-229 -1096q-10 -2 -23.5 -3t-27.5 -1q-33 0 -52.5 16.5t-19.5 48.5z" />
<glyph unicode="$" horiz-adv-x="1069" d="M111 154q0 35 21.5 58.5t49.5 33.5q47 -45 133 -89t211 -44q137 0 208 62.5t71 160.5q0 84 -54.5 139t-170.5 88l-179 53q-86 27 -149.5 69t-97 104.5t-33.5 146.5q0 158 114.5 247t305.5 89q111 0 197.5 -23.5t137 -60.5t50.5 -78q0 -27 -14.5 -48.5t-37.5 -33.5 q-51 41 -138 71.5t-189 30.5q-119 0 -188.5 -52t-69.5 -142q0 -72 50 -117t163 -78l125 -36q162 -45 255 -131.5t93 -237.5q0 -162 -118 -262.5t-331 -100.5q-125 0 -218 28t-145 70t-52 83zM453 51h149v-233q-8 -2 -25.5 -6.5t-39.5 -4.5q-39 0 -61.5 17.5t-22.5 50.5v176z M453 1163v264q10 4 28.5 7.5t38.5 3.5q41 0 61.5 -17.5t20.5 -50.5v-207h-149z" />
<glyph unicode="%" horiz-adv-x="1581" d="M109 971q0 133 83.5 212t204.5 79t205 -79t84 -212t-84 -212t-205 -79t-204.5 79t-83.5 212zM254 971q0 -80 40 -124t103 -44t103.5 44t40.5 124t-40 124t-104 44q-63 0 -103 -44t-40 -124zM350 57q0 16 8.5 34.5t22.5 41.5l754 1129q47 -6 74.5 -23.5t27.5 -46.5 q0 -20 -8 -39.5t-25 -42.5l-751 -1124q-45 4 -74 24.5t-29 46.5zM895 276q0 133 85 211t204 78q121 0 205 -78t84 -211q0 -135 -84 -213.5t-205 -78.5q-119 0 -204 78.5t-85 213.5zM1040 276q0 -82 40 -126t104 -44q63 0 103 44.5t40 125.5q0 78 -40 122t-103 44t-103.5 -44 t-40.5 -122z" />
<glyph unicode="&#x26;" horiz-adv-x="1304" d="M102 383q0 104 42 183t114 132.5t160 75.5l71 -121q-55 -12 -105 -46t-83 -90t-33 -136q0 -123 81 -197.5t224 -74.5q78 0 161 32.5t153 112.5l45 65q37 68 58.5 170.5t21.5 233.5q18 8 37.5 13t37.5 5q41 0 61.5 -23.5t20.5 -68.5q0 -115 -34 -235.5t-93 -204.5l-59 -70 q-70 -76 -170 -123t-242 -47q-141 0 -246.5 51.5t-164 144.5t-58.5 218zM272 993q0 84 38 146.5t111 97.5t177 35q109 0 165 -31t56 -78q0 -25 -13 -44t-30 -29q-33 18 -77 30.5t-91 12.5q-78 0 -123 -38t-45 -104q0 -63 33 -112.5t94 -112.5l680 -707q-6 -41 -28.5 -64.5 t-61.5 -23.5q-41 0 -82 47l-626 656l-52 57q-63 66 -94 128.5t-31 133.5z" />
<glyph unicode="'" horiz-adv-x="284" d="M63 1260q16 10 36 15t46 5q39 0 58.5 -19.5t19.5 -62.5q0 -35 -2 -97.5t-4 -129t-6 -115.5q-14 -4 -31.5 -8t-36.5 -4q-31 0 -48 15t-19 44z" />
<glyph unicode="(" horiz-adv-x="520" d="M113 561q0 227 57 406.5t133 292.5q27 41 54.5 63.5t60.5 22.5q29 0 50 -16.5t32 -41.5q-111 -141 -171.5 -324.5t-60.5 -402.5t54.5 -395t177.5 -344q-10 -25 -31.5 -42.5t-50.5 -17.5q-33 0 -59.5 24t-55.5 64q-92 131 -141 306.5t-49 404.5z" />
<glyph unicode=")" horiz-adv-x="520" d="M20 -178q10 -25 31.5 -42.5t50.5 -17.5q33 0 59.5 24t55.5 64q92 131 141 306.5t49 404.5q0 227 -57 406.5t-133 292.5q-27 41 -54.5 63.5t-60.5 22.5q-29 0 -50 -16.5t-32 -41.5q111 -141 171.5 -324.5t60.5 -402.5t-54.5 -395t-177.5 -344z" />
<glyph unicode="*" horiz-adv-x="612" d="M41 1120q0 29 17.5 47.5t43.5 18.5q10 0 20.5 -4t22.5 -8l154 -78l45 -117l-297 98q-6 23 -6 43zM100 858q0 16 7.5 30.5t17.5 24.5l106 119l140 12l-166 -243q-8 -2 -14.5 -2h-12.5q-39 0 -58.5 17.5t-19.5 41.5zM248 1311q10 6 26.5 12t36.5 6q27 0 44.5 -12t17.5 -41 q0 -12 -3 -55t-6.5 -89.5t-3.5 -66.5l-102 -57zM254 1055l266 149q18 -8 34.5 -27.5t16.5 -43.5q0 -25 -14 -37.5t-37 -22.5l-172 -82zM276 1004l56 94l196 -236q-4 -27 -25.5 -45t-45.5 -18q-23 0 -41.5 17.5t-32.5 35.5z" />
<glyph unicode="+" horiz-adv-x="1122" d="M104 610q0 35 19.5 52.5t52.5 17.5h828q4 -12 9 -28.5t5 -35.5q0 -33 -18.5 -52t-53.5 -19h-827q-6 14 -10.5 29.5t-4.5 35.5zM489 217v850q16 6 34 10t42 4q39 0 56.5 -18.5t17.5 -63.5v-849q-14 -6 -30.5 -10.5t-39.5 -4.5q-41 0 -60.5 18.5t-19.5 63.5z" />
<glyph unicode="," horiz-adv-x="296" d="M-14 -213q18 53 41.5 126t44 148.5t30.5 131.5q16 8 36 13t42 5q37 0 57.5 -17.5t20.5 -58.5q0 -45 -21.5 -111.5t-50.5 -127t-47 -89.5q-33 -55 -80 -55q-45 0 -73 35z" />
<glyph unicode="-" horiz-adv-x="796" d="M111 532q0 35 19.5 52.5t51.5 17.5h490q4 -12 9 -28.5t5 -34.5q0 -33 -18.5 -52.5t-53.5 -19.5h-489q-6 14 -10 29.5t-4 35.5z" />
<glyph unicode="." horiz-adv-x="288" d="M33 86q0 49 29.5 82t82.5 33t82 -33t29 -82q0 -47 -28.5 -80t-82.5 -33q-53 0 -82.5 33t-29.5 80z" />
<glyph unicode="/" horiz-adv-x="624" d="M49 -145q0 23 8.5 53.5t12.5 48.5l376 1487q14 2 26.5 3t27.5 1q35 0 57.5 -17.5t22.5 -56.5q0 -23 -6.5 -50t-12.5 -52l-379 -1487q-12 -2 -24.5 -3t-28.5 -1q-39 0 -59.5 19.5t-20.5 54.5z" />
<glyph unicode="0" horiz-adv-x="1193" d="M111 623q0 236 69.5 377t180 205.5t235.5 64.5q127 0 238.5 -65.5t180 -208t68.5 -373.5q0 -217 -61 -361.5t-171 -216.5t-255 -72q-143 0 -253 71t-171 215t-61 364zM279 623q0 -246 83.5 -378t233.5 -132q152 0 235.5 132t83.5 378q0 182 -44 293.5t-115.5 162.5 t-159.5 51q-86 0 -158.5 -52t-115.5 -164.5t-43 -290.5z" />
<glyph unicode="1" horiz-adv-x="731" d="M31 1044q0 59 73 91l287 125h39q41 0 65.5 -25t24.5 -66v-710h-166v626l-262 -122q-27 10 -44 30.5t-17 50.5zM354 59v482h166v-543q-12 -4 -32.5 -9t-45.5 -5q-43 0 -65.5 18t-22.5 57z" />
<glyph unicode="2" horiz-adv-x="1040" d="M78 82q0 33 12 58.5t37 47.5l369 355q127 119 174 199.5t47 168.5q0 96 -65.5 157.5t-198.5 61.5q-90 0 -161 -30.5t-118 -65.5q-23 10 -40 30.5t-17 51.5q0 37 47 73t127 58.5t174 22.5q131 0 225 -44t145.5 -124t51.5 -189q0 -113 -62.5 -221t-214.5 -248l-334 -309 h609q8 -8 14 -25.5t6 -39.5q0 -33 -17.5 -51.5t-45.5 -18.5h-723q-20 14 -30.5 35.5t-10.5 46.5z" />
<glyph unicode="3" horiz-adv-x="1036" d="M66 139q0 29 15 49.5t40 34.5q53 -41 130 -73.5t200 -32.5q135 0 219 58t84 177q0 104 -78 168t-225 64h-170q-8 10 -14.5 29.5t-6.5 39.5q0 23 6 41.5t15 28.5h155q152 0 216.5 56.5t64.5 148.5q0 100 -74 152.5t-201 52.5q-98 0 -172.5 -30t-124.5 -65q-20 10 -36.5 33 t-16.5 49q0 37 47 72t127 57.5t178 22.5q195 0 315 -85t120 -255q0 -82 -34 -140.5t-80 -91t-83 -43.5q55 -16 108.5 -56t89 -102.5t35.5 -150.5q0 -123 -59 -205t-163.5 -124t-241.5 -42q-113 0 -200 24t-136 60.5t-49 77.5z" />
<glyph unicode="4" horiz-adv-x="1122" d="M55 399q0 18 3.5 32t7.5 26l596 790q18 4 41.5 7t41.5 3q29 0 54.5 -8t42 -29.5t16.5 -62.5v-717h205q6 -10 12 -27.5t6 -39.5q0 -33 -16 -51.5t-47 -18.5h-160v-307q-10 -2 -29.5 -7t-42.5 -5q-43 0 -65.5 18t-22.5 53v248h-592q-20 10 -35.5 37t-15.5 59zM246 440h454 l5 645h-5z" />
<glyph unicode="5" horiz-adv-x="1101" d="M137 141q0 33 21.5 57.5t44.5 32.5q45 -39 127 -79.5t198 -40.5q141 0 219 78.5t78 199.5q0 125 -79.5 194.5t-208.5 69.5q-72 0 -131.5 -22.5t-110.5 -50.5q-55 4 -89 33.5t-34 76.5q0 12 1 31.5t3 38.5l35 391q4 43 26.5 68.5t65.5 25.5h115l-56 -121l-34 -387 q35 18 97 36t132 18q123 0 221.5 -46.5t156.5 -135.5t58 -220q0 -119 -54 -213t-157.5 -148.5t-253.5 -54.5q-117 0 -204.5 27t-137 65.5t-49.5 75.5zM332 1106v139h598q6 -8 12 -26.5t6 -38.5q0 -33 -16.5 -53.5t-46.5 -20.5h-553z" />
<glyph unicode="6" d="M111 584q0 193 46 324.5t123.5 210.5t176 115t200.5 36q72 0 134.5 -14.5t101.5 -41t39 -65.5q0 -25 -13.5 -46.5t-33.5 -31.5q-45 23 -101.5 40t-121.5 17q-160 0 -269.5 -114.5t-116.5 -358.5q41 41 126 87t210 46q180 0 297 -102t117 -303q0 -127 -54 -219 t-151.5 -141.5t-230.5 -49.5q-137 0 -245.5 62.5t-171 197t-62.5 351.5zM270 485l6 15q0 -174 82 -281.5t232 -107.5q119 0 194.5 72.5t75.5 203.5q0 133 -76.5 197.5t-189.5 64.5t-195 -48t-129 -116z" />
<glyph unicode="7" horiz-adv-x="937" d="M49 1171q0 35 16.5 54.5t47.5 19.5h737q23 -12 35 -33.5t12 -48.5q0 -20 -5 -40.5t-18 -45.5l-514 -1085q-12 -2 -23 -2h-24q-39 0 -67.5 19.5t-28.5 53.5q0 25 10.5 48.5t24.5 54.5l463 940h-647q-6 10 -12.5 27.5t-6.5 37.5z" />
<glyph unicode="8" horiz-adv-x="1165" d="M121 330q0 100 46 170.5t117.5 113.5t149.5 58l123 20q147 29 221 85.5t74 150.5q0 96 -71.5 150.5t-196.5 54.5q-121 0 -195 -55.5t-74 -147.5q0 -78 42 -125t113 -70.5t155 -32.5l90 -30q84 -16 159.5 -58.5t122.5 -112t47 -173.5q0 -111 -58 -191t-161.5 -122 t-240.5 -42q-139 0 -243.5 42t-162 122t-57.5 193zM152 932q0 104 54 180t151.5 117t226.5 41q201 0 316.5 -91.5t115.5 -250.5q0 -129 -87 -203t-212 -96l-139 -29q-131 -20 -212 -89t-81 -179q0 -104 80 -162.5t219 -58.5q133 0 215 57t82 166q0 119 -99.5 188.5 t-265.5 79.5l-104 31q-119 33 -189.5 106.5t-70.5 192.5z" />
<glyph unicode="9" horiz-adv-x="1130" d="M104 856q0 129 57.5 222t156 142.5t219.5 49.5q141 0 249.5 -64.5t171 -199t62.5 -344.5q0 -250 -69.5 -401.5t-193.5 -219.5t-290 -68q-123 0 -211 33t-88 94q0 25 13.5 47.5t33.5 32.5q39 -23 101.5 -44t148.5 -21q106 0 194.5 45t141.5 148.5t53 273.5 q-18 -20 -60 -50t-105.5 -52.5t-147.5 -22.5q-115 0 -215.5 40t-161 128t-60.5 231zM270 860q0 -141 86 -203.5t207 -62.5q104 0 185 52t108 116l-2 -23q0 182 -83 288t-234 106q-113 0 -190 -73t-77 -200z" />
<glyph unicode=":" horiz-adv-x="387" d="M82 86q0 49 28.5 82t82.5 33q53 0 82.5 -33t29.5 -82q0 -47 -29.5 -80t-82.5 -33t-82 33t-29 80zM82 803q0 49 29.5 82t81.5 33q53 0 82.5 -33t29.5 -82t-29.5 -81t-82.5 -32q-51 0 -81 32t-30 81z" />
<glyph unicode=";" horiz-adv-x="413" d="M29 -213q18 53 41.5 126t44 148.5t30.5 131.5q16 8 36 13t42 5q37 0 57.5 -17.5t20.5 -58.5q0 -45 -21.5 -111.5t-50.5 -127t-47 -89.5q-33 -55 -80 -55q-45 0 -73 35zM94 803q0 49 29 82t82 33t82.5 -33t29.5 -82t-29.5 -81t-82.5 -32t-82 32t-29 81z" />
<glyph unicode="&#x3c;" horiz-adv-x="968" d="M111 614q0 31 10 50.5t24 27.5l684 350q35 -12 51.5 -32.5t16.5 -44.5q0 -33 -20.5 -53.5t-53.5 -41.5l-553 -254l631 -327q2 -10 2 -18.5v-18.5q0 -31 -20.5 -51.5t-55.5 -20.5q-14 0 -32.5 7.5t-38.5 19.5l-625 340q-20 31 -20 67z" />
<glyph unicode="=" horiz-adv-x="1060" d="M104 393q0 35 19.5 52.5t52.5 17.5h766q4 -12 8 -28.5t4 -35.5q0 -33 -18 -51t-53 -18h-764q-6 12 -10.5 27.5t-4.5 35.5zM104 807q0 35 19.5 52.5t52.5 17.5h766q4 -12 8 -27.5t4 -36.5q0 -33 -18 -51.5t-53 -18.5h-764q-6 12 -10.5 28.5t-4.5 35.5z" />
<glyph unicode="&#x3e;" horiz-adv-x="942" d="M66 959.5v17.5q0 29 20 50.5t53 21.5q16 0 33.5 -7.5t38.5 -17.5l606 -340q20 -31 21 -70q0 -31 -9.5 -49t-25.5 -28l-664 -349q-35 10 -51 32t-16 46q0 33 20.5 53.5t52.5 38.5l533 260l-610 322q-2 10 -2 19.5z" />
<glyph unicode="?" horiz-adv-x="940" d="M55 1130q0 59 98.5 104.5t252.5 45.5q135 0 237 -49t159.5 -135t57.5 -199q0 -172 -105.5 -278.5t-318.5 -159.5l-200 -49q-18 18 -29.5 40.5t-11.5 49.5q0 29 16 47t57 28l142 37q135 35 207.5 103.5t72.5 179.5q0 98 -70.5 169t-220.5 71q-82 0 -164.5 -26t-132.5 -67 q-23 16 -35 39t-12 49zM213 92q0 49 31.5 83t83.5 34q53 0 84.5 -34t31.5 -83t-31.5 -82t-84.5 -33q-51 0 -83 33t-32 82z" />
<glyph unicode="@" horiz-adv-x="2048" d="M113 418q0 207 66.5 376t190.5 289.5t297 186t388 65.5q201 0 360.5 -56t271 -160.5t171 -250t59.5 -323.5q0 -264 -108.5 -409.5t-321.5 -145.5q-63 0 -128 22.5t-114 63.5q10 31 23.5 56.5t29 39.5t33.5 14q25 -20 63 -40.5t93 -20.5q133 0 200.5 117.5t67.5 304.5 q0 195 -86 342t-242.5 230t-369.5 83q-238 0 -414 -98t-272.5 -274.5t-96.5 -411.5q0 -223 90.5 -389t253 -257t377.5 -91q78 0 137.5 9t100.5 21q12 -12 19.5 -28.5t7.5 -34.5q0 -31 -26 -53.5t-86.5 -35t-164.5 -12.5q-156 0 -290 39t-241.5 114t-183 181.5t-115.5 241.5 t-40 295zM610 410q0 147 59.5 252.5t165 161t246.5 55.5q72 0 139.5 -16.5t114.5 -41.5q84 -41 84 -100q0 -14 -1 -30.5t-3 -31.5l-53 -536h-162l57 582q-33 16 -80 27t-106 11q-131 0 -212 -86.5t-81 -246.5q0 -131 66.5 -203t185.5 -72q72 0 129.5 31t110.5 94l24 -151 q-43 -45 -112.5 -77t-173.5 -32q-178 0 -288 108.5t-110 301.5z" />
<glyph unicode="A" horiz-adv-x="1212" d="M61 57q0 18 6.5 38t14.5 42q25 70 60.5 170.5t78.5 219t90 243.5t92.5 244t83.5 217q16 8 49 16t68 8q41 0 79 -12t48 -41q49 -119 105.5 -269.5t114 -313t109.5 -316t93 -278.5q-14 -18 -37.5 -29.5t-52.5 -11.5q-39 0 -59.5 17t-34.5 58l-113 334l-16 58 q-41 125 -85 251.5t-82 235t-63 178.5h-8q-31 -86 -73 -204.5t-86 -244.5t-83 -235l-10 -31q-12 -37 -30.5 -92t-39 -115.5t-39 -112.5t-28.5 -85q-14 -6 -29.5 -9t-38.5 -3q-33 0 -58.5 17t-25.5 56zM270 332l54 137h571l33 -137h-658z" />
<glyph unicode="B" horiz-adv-x="1226" d="M182 106v1049q0 33 17.5 51.5t50.5 26.5q70 20 148.5 27.5t168.5 7.5q231 0 360.5 -83t129.5 -253q0 -86 -42 -159t-135.5 -117t-248.5 -44l-19 103q135 0 205 56t70 157q0 102 -81 152t-239 50q-70 0 -123 -5t-98 -13v-975q49 -10 113.5 -16t130.5 -6q170 0 258 57 t88 176q0 106 -78.5 169t-232.5 63l65 102q139 0 231.5 -46t138.5 -122t46 -170q0 -186 -134 -276.5t-382 -90.5q-55 0 -110.5 3.5t-109 11.5t-102.5 20q-86 25 -86 94zM297 580v135h563v-135h-563z" />
<glyph unicode="C" horiz-adv-x="1204" d="M111 621q0 215 82.5 360t219 218t298.5 73q113 0 198.5 -24.5t134 -62.5t48.5 -77q0 -27 -17.5 -48.5t-40.5 -31.5q-51 37 -123.5 69.5t-187.5 32.5q-125 0 -224.5 -57t-157.5 -171t-58 -281q0 -252 123.5 -379t322.5 -127q106 0 186 30.5t132 69.5q20 -8 38.5 -29.5 t18.5 -50.5q0 -20 -11.5 -39.5t-37.5 -38.5q-47 -33 -129 -58.5t-209 -25.5q-170 0 -308.5 73t-218 216.5t-79.5 358.5z" />
<glyph unicode="D" horiz-adv-x="1335" d="M182 104q0 -68 86 -94q74 -23 157 -28t146 -5q199 0 345.5 72t227.5 218.5t81 369.5q0 211 -85 350t-235.5 210t-351.5 71q-80 0 -160 -6.5t-143 -26.5q-33 -10 -50.5 -27.5t-17.5 -50.5v-1053zM348 137v975q41 8 90 12t113 4q139 0 253 -50t182.5 -157.5t68.5 -283.5 q0 -256 -123 -388t-363 -132q-59 0 -115.5 4t-105.5 16z" />
<glyph unicode="E" horiz-adv-x="1087" d="M182 90v660h166v-734q-8 -2 -30.5 -9t-45.5 -7q-41 0 -65.5 25.5t-24.5 64.5zM182 510v645q0 41 24.5 65.5t65.5 24.5q23 0 45.5 -6t30.5 -10v-721zM272 0v139h691q6 -8 12 -25.5t6 -39.5q0 -33 -16.5 -53.5t-46.5 -20.5h-646zM272 569v140h617q6 -8 12 -26.5t6 -39.5 q0 -33 -16.5 -53.5t-46.5 -20.5h-572zM272 1104v141h680q6 -8 12.5 -26.5t6.5 -38.5q0 -33 -16.5 -54.5t-47.5 -21.5h-635z" />
<glyph unicode="F" horiz-adv-x="1058" d="M182 63v666h168v-727q-10 -2 -31.5 -7t-44.5 -5q-45 0 -68.5 18.5t-23.5 54.5zM182 506v649q0 41 24.5 65.5t65.5 24.5q23 0 45.5 -6t30.5 -10v-725zM272 537v141h609q6 -10 12 -27.5t6 -38.5q0 -33 -16.5 -54t-46.5 -21h-564zM272 1104v141h680q6 -8 12.5 -26.5 t6.5 -38.5q0 -33 -16.5 -54.5t-47.5 -21.5h-635z" />
<glyph unicode="G" horiz-adv-x="1308" d="M111 621q0 219 85 363t226 216t309 72q117 0 205 -24.5t137 -61.5t49 -76q0 -27 -16 -48.5t-39 -31.5q-55 37 -131 68.5t-195 31.5q-129 0 -233.5 -57t-164.5 -171t-60 -281q0 -176 62.5 -288t171 -165t243.5 -53q74 0 139.5 12t101.5 31v377h-309q-6 10 -12 27.5 t-6 37.5q0 35 16.5 54.5t46.5 19.5h342q37 0 62.5 -23.5t25.5 -62.5v-445q0 -37 -21.5 -62.5t-64.5 -45.5q-51 -27 -141 -44.5t-182 -17.5q-190 0 -337 70t-228.5 213t-81.5 365z" />
<glyph unicode="H" horiz-adv-x="1339" d="M182 66v675h168v-737q-12 -4 -32.5 -9t-45.5 -5q-45 0 -67.5 18.5t-22.5 57.5zM182 604v637q10 4 32 9t46 5q45 0 67.5 -17t22.5 -58v-576h-168zM283 561v139h794v-139h-794zM989 66v675h168v-737q-12 -4 -32.5 -9t-45.5 -5q-45 0 -67.5 18.5t-22.5 57.5zM989 604v637 q10 4 31.5 9t46.5 5q45 0 67.5 -17t22.5 -58v-576h-168z" />
<glyph unicode="I" horiz-adv-x="536" d="M184 66v677h166v-739q-10 -4 -30.5 -9t-45.5 -5q-45 0 -67.5 18.5t-22.5 57.5zM184 606v635q10 4 32 9t46 5q45 0 66.5 -17t21.5 -58v-574h-166z" />
<glyph unicode="J" horiz-adv-x="788" d="M51 78q0 29 12.5 49t22.5 31q31 -14 75 -26.5t89 -12.5q92 0 141 45t49 147v281h166v-289q0 -123 -46 -194.5t-122 -101.5t-164 -30q-115 0 -169 28t-54 73zM440 543v698q10 4 32 9t44 5q45 0 67.5 -17t22.5 -58v-637h-166z" />
<glyph unicode="K" horiz-adv-x="1159" d="M182 63v689h168v-750q-12 -4 -32.5 -9t-45.5 -5q-45 0 -67.5 18.5t-22.5 56.5zM182 614v627q10 4 32 9t46 5q45 0 67.5 -17t22.5 -58v-566h-168zM297 614l616 639q53 -2 80 -26.5t27 -57.5q0 -27 -13.5 -50t-41.5 -48l-502 -493zM311 635l129 82q217 -209 374 -373 t265 -262q-2 -45 -26.5 -70.5t-61.5 -25.5q-35 0 -62.5 20.5t-56.5 46.5z" />
<glyph unicode="L" horiz-adv-x="1026" d="M182 90v637h168v-711l-78 -16q-39 0 -64.5 25.5t-25.5 64.5zM182 604v637q10 4 32 9t46 5q45 0 67.5 -17t22.5 -58v-576h-168zM272 0v143h666q10 -8 16.5 -26.5t6.5 -40.5q0 -35 -18.5 -55.5t-49.5 -20.5h-621z" />
<glyph unicode="M" horiz-adv-x="1597" d="M162 59q0 25 5 114t12 218t17.5 275.5t21.5 289t22 256.5q16 14 46.5 26.5t69.5 12.5q47 0 80 -18.5t51 -56.5q53 -104 106.5 -227.5t105 -246t98.5 -231.5h8q90 217 179 418t151 342q18 10 46.5 15t53.5 5q47 0 74.5 -15t36.5 -50q8 -35 18 -119t20.5 -197.5 t19.5 -238.5t17.5 -246t15.5 -218t9 -155q-18 -12 -39 -18t-47 -6q-31 0 -54.5 15t-27.5 56q-12 199 -23.5 392.5t-19.5 355.5t-14 264h-9q-45 -113 -122.5 -289.5t-198.5 -457.5q-14 -10 -38 -18.5t-52 -8.5q-33 0 -58.5 10t-35.5 33q-109 229 -190 419.5t-130 315.5h-8 q-6 -154 -13.5 -287t-15.5 -256.5t-15 -254t-18 -277.5q-12 -4 -31.5 -8t-41.5 -4q-45 0 -63.5 19.5t-18.5 51.5z" />
<glyph unicode="N" horiz-adv-x="1351" d="M182 63v1041l140 12q8 -63 14 -149t9 -177.5t3 -173.5v-612q-10 -4 -31.5 -9t-44.5 -5q-45 0 -67.5 17.5t-22.5 55.5zM182 1042v179q16 16 46 26t65 10q49 0 84 -19t63 -71l391 -655q33 -55 69 -121.5t66.5 -127t49.5 -99.5l153 39v8v-188q-18 -14 -46.5 -24.5 t-63.5 -10.5q-49 0 -84 19.5t-64 70.5l-389 655q-31 55 -67.5 122t-69.5 127t-51 99zM1001 827v414q12 4 33 9t45 5q45 0 67.5 -17t22.5 -56v-1041l-141 -12q-20 172 -23.5 351t-3.5 347z" />
<glyph unicode="O" horiz-adv-x="1411" d="M111 623q0 213 79.5 357t214 218t300.5 74q168 0 302 -74t212.5 -218t78.5 -357t-77.5 -357.5t-212 -218.5t-303.5 -74q-168 0 -303.5 74t-213 218.5t-77.5 357.5zM283 623q0 -244 114.5 -376t307.5 -132q195 0 309 132t114 376t-115.5 375.5t-307.5 131.5 q-190 0 -306 -132t-116 -375z" />
<glyph unicode="P" horiz-adv-x="1161" d="M182 66v458h168v-520q-12 -4 -32.5 -9t-45.5 -5q-45 0 -67.5 18.5t-22.5 57.5zM182 444v711q0 33 17.5 50.5t50.5 27.5q59 18 144 26.5t165 8.5q260 0 380 -109.5t120 -296.5q0 -127 -54.5 -221t-165 -145.5t-282.5 -51.5h-375zM348 584h199q164 0 254 68.5t90 207.5 t-87 203.5t-249 64.5q-55 0 -109.5 -5t-97.5 -13v-526z" />
<glyph unicode="Q" horiz-adv-x="1413" d="M111 623q0 213 79.5 357t214 218t300.5 74q168 0 302 -74t212.5 -218t78.5 -357t-77.5 -357.5t-212 -218.5t-303.5 -74q-168 0 -303.5 74t-213 218.5t-77.5 357.5zM283 623q0 -244 114.5 -376t307.5 -132q195 0 309 132t114 376t-115.5 375.5t-307.5 131.5 q-190 0 -306 -132t-116 -375zM676 0l158 49q129 -74 215 -117t154.5 -71.5t144.5 -57.5q4 -14 4 -23v-18q0 -39 -23.5 -62.5t-66.5 -23.5q-66 0 -172.5 56.5t-239.5 148.5z" />
<glyph unicode="R" horiz-adv-x="1206" d="M182 66v450h168v-512q-12 -4 -32.5 -9t-45.5 -5q-45 0 -67.5 18.5t-22.5 57.5zM182 471v684q0 33 17.5 50.5t50.5 27.5q59 18 146 26.5t169 8.5q256 0 383 -104.5t127 -293.5q0 -121 -55 -211t-163.5 -139t-272.5 -49h-402zM348 610h236q152 0 237.5 65.5t85.5 194.5 q0 127 -90 192.5t-258 65.5q-55 0 -111.5 -5t-99.5 -13v-500zM588 524l123 62q57 -72 118.5 -150t119 -151.5t102.5 -132t69 -91.5q-8 -35 -35.5 -55t-56.5 -20q-35 0 -57.5 17t-46.5 50z" />
<glyph unicode="S" horiz-adv-x="1071" d="M111 154q0 35 21.5 58.5t49.5 33.5q47 -45 133 -89t211 -44q137 0 208 62.5t71 160.5q0 84 -54.5 139t-170.5 88l-179 53q-86 27 -149.5 69t-97 104.5t-33.5 146.5q0 158 114.5 247t305.5 89q111 0 197.5 -23.5t137 -60.5t50.5 -78q0 -27 -14.5 -48.5t-37.5 -33.5 q-51 41 -138 71.5t-189 30.5q-119 0 -188.5 -52t-69.5 -142q0 -72 50 -117t163 -78l125 -36q162 -45 255 -131.5t93 -237.5q0 -162 -118 -262.5t-331 -100.5q-125 0 -218 28t-145 70t-52 83z" />
<glyph unicode="T" horiz-adv-x="1071" d="M51 1171q0 35 16.5 54.5t47.5 19.5h424l10 -141h-479q-6 10 -12.5 28.5t-6.5 38.5zM453 66v1093h165v-1155q-10 -4 -31.5 -9t-43.5 -5q-45 0 -67.5 18.5t-22.5 57.5zM524 1245h477q6 -8 12.5 -26.5t6.5 -38.5q0 -33 -16.5 -54.5t-47.5 -21.5h-421z" />
<glyph unicode="U" horiz-adv-x="1329" d="M180 430v168h166v-154q0 -164 91 -246.5t227 -82.5q135 0 226 83t91 246v154h168v-168q0 -137 -56.5 -240.5t-164.5 -160t-264 -56.5q-154 0 -262.5 56.5t-165 160t-56.5 240.5zM180 514v727q10 4 31.5 9t46.5 5q45 0 66.5 -17t21.5 -58v-666h-166zM981 514v727 q10 4 31.5 9t46.5 5q45 0 67.5 -17t22.5 -58v-666h-168z" />
<glyph unicode="V" horiz-adv-x="1193" d="M63 1212q12 16 37 30.5t56 14.5q39 0 57 -18t31 -55q90 -266 175 -518t185 -508h8q59 156 124 337t125.5 373.5t107.5 374.5q14 8 31.5 11t37.5 3q37 0 59.5 -18t22.5 -55q0 -31 -22.5 -115t-60.5 -198.5t-83 -241.5t-92 -249t-85.5 -217.5t-65.5 -146.5q-10 -8 -39 -17 t-64 -9q-39 0 -69.5 11t-40.5 34q-33 63 -77 169.5t-94.5 238.5t-99.5 270.5t-91 268.5t-73 230z" />
<glyph unicode="W" horiz-adv-x="1644" d="M80 1219q14 14 38.5 26t53.5 12q37 0 57.5 -17t28.5 -58q27 -129 51.5 -250t50 -244t54 -257t63.5 -288h8q29 92 55.5 176t55.5 173.5t62.5 196t76.5 247.5q16 8 41 14t51 6q41 0 69 -13t36 -40q51 -147 93 -273t80 -244t77 -243h8q39 184 76 359.5t71.5 355.5t63.5 385 q29 14 69 14q39 0 61.5 -17t22.5 -52q0 -39 -11 -118t-30.5 -184.5t-45 -223t-54.5 -235.5t-57.5 -222.5t-55.5 -181.5q-18 -10 -46.5 -19.5t-65.5 -9.5q-45 0 -76 14.5t-41 38.5q-29 72 -69.5 189.5t-85 258t-85.5 277.5q-39 -135 -84 -280.5t-87 -270.5t-74 -201 q-14 -8 -44 -17t-67 -9q-45 0 -74.5 15.5t-40.5 37.5q-20 51 -49.5 153.5t-62.5 234.5t-64.5 274.5t-59.5 274.5t-44 235z" />
<glyph unicode="X" horiz-adv-x="1210" d="M92 59q0 27 13.5 50.5t33.5 50.5l383 502l56 51l389 538q10 2 20 3t23 1q43 0 64.5 -20.5t21.5 -50.5q0 -20 -11.5 -43t-27.5 -45q-88 -119 -180.5 -239t-188.5 -241l-45 -41l-420 -585q-8 -2 -19 -3t-22 -1q-41 0 -65.5 20.5t-24.5 52.5zM100 1176q10 35 35 58t64 23 q33 0 55 -19t47 -54l336 -482l47 -40l430 -596q-8 -35 -31.5 -57.5t-62.5 -22.5q-33 0 -54.5 16t-45.5 53l-371 537l-29 12z" />
<glyph unicode="Y" d="M43 1192q8 23 30.5 44t59.5 21q39 0 60.5 -20t44.5 -61q27 -47 60.5 -105.5t70.5 -123t73.5 -128t68.5 -119t56 -96.5h8q72 119 131.5 225.5t115 209t108.5 204.5q12 8 30.5 11t32.5 3q39 0 58.5 -18t19.5 -51q0 -20 -31.5 -87t-89 -166t-135.5 -224.5t-172 -264.5h-145 q-57 86 -120 181.5t-123 194t-114.5 193.5t-97.5 177zM487 66v460h166v-522q-10 -4 -31.5 -9t-43.5 -5q-45 0 -68 18.5t-23 57.5z" />
<glyph unicode="Z" horiz-adv-x="1140" d="M102 78q0 29 11.5 52t31.5 50l779 1065h65q39 -33 39 -78q0 -29 -11 -51t-32 -51l-776 -1065h-68q-16 14 -27.5 34.5t-11.5 43.5zM117 1171q0 35 17.5 54.5t47.5 19.5h768l-4 -141h-809q-6 10 -13 28.5t-7 38.5zM184 0l6 141h832q8 -10 14 -27.5t6 -39.5q0 -33 -17 -53.5 t-46 -20.5h-795z" />
<glyph unicode="[" horiz-adv-x="548" d="M141 -94h375q4 -14 8 -28.5t4 -35.5q0 -33 -17 -50t-52 -17h-234q-41 0 -62.5 22.5t-21.5 61.5v47zM141 -123v1346h150v-1346h-150zM141 1204v47q0 39 21.5 60.5t62.5 21.5h291q4 -12 8 -26.5t4 -34.5q0 -33 -17 -50.5t-52 -17.5h-318z" />
<glyph unicode="\" horiz-adv-x="698" d="M68 1325q16 16 39.5 26.5t46.5 10.5q27 0 45 -12t26 -41l389 -1403q-14 -14 -38.5 -25.5t-47.5 -11.5q-27 0 -45 12.5t-26 40.5z" />
<glyph unicode="]" horiz-adv-x="550" d="M20 -164q0 35 18.5 52.5t53.5 17.5h316v-47q0 -39 -21.5 -61.5t-62.5 -22.5h-291q-4 12 -8.5 27.5t-4.5 33.5zM20 1266q0 35 18.5 51t53.5 16h232q41 0 62.5 -21.5t21.5 -60.5v-47h-375q-4 12 -8.5 27.5t-4.5 34.5zM258 -115v1348h150v-1348h-150z" />
<glyph unicode="^" horiz-adv-x="948" d="M111 723q0 18 25.5 78.5t64.5 141.5t80 162t73.5 141.5t42.5 76.5q10 8 31 13t43 5q61 0 76 -28q29 -51 68.5 -129t81.5 -166t80 -171t61 -145q-10 -14 -31 -26t-45 -12q-33 0 -52.5 14t-35.5 53l-199 443h-14q-8 -18 -33 -72.5t-57.5 -128.5t-64.5 -151t-54 -142 q-14 -8 -31.5 -13t-40.5 -5q-27 0 -48 14t-21 47z" />
<glyph unicode="_" horiz-adv-x="952" d="M0 -188q0 35 18.5 52t53.5 17h866q4 -12 9 -28.5t5 -34.5q0 -33 -18 -51.5t-53 -18.5h-869q-4 12 -8 27.5t-4 36.5z" />
<glyph unicode="`" horiz-adv-x="618" d="M117 1325q0 33 22.5 53.5t55.5 20.5q23 0 40 -9.5t31 -25.5l185 -231q-2 -33 -20.5 -52.5t-47.5 -19.5q-23 0 -38.5 9.5t-31.5 23.5l-192 204q-2 8 -3 15.5t-1 11.5z" />
<glyph unicode="a" horiz-adv-x="1021" d="M88 266q0 133 89 204t247 85l291 29v57q0 102 -61.5 149.5t-166.5 47.5q-84 0 -160.5 -25t-136.5 -55q-16 14 -29.5 33.5t-13.5 39.5q0 53 60 82q55 29 128 44.5t154 15.5q178 0 283 -80t105 -252v-485q0 -45 -17.5 -69t-52.5 -44q-49 -27 -131 -49.5t-184 -22.5 q-193 0 -298.5 76t-105.5 219zM252 268q0 -76 60.5 -119t179.5 -43q86 0 142 17.5t81 34.5v297l-254 -27q-106 -8 -157.5 -47t-51.5 -113z" />
<glyph unicode="b" horiz-adv-x="1124" d="M158 172v682h164v-682q31 -23 90 -43t135 -20q139 0 224 88t85 276q0 190 -86 277.5t-219 87.5q-82 0 -145.5 -32t-104.5 -73l-31 133q45 35 120.5 71t184.5 36q127 0 228.5 -54.5t160 -165t58.5 -280.5q0 -172 -60.5 -282.5t-167 -164t-247.5 -53.5q-100 0 -181 25 t-133 53q-43 29 -59 53.5t-16 67.5zM158 821v506q10 4 31.5 9t46.5 5q43 0 64.5 -17t21.5 -56v-447h-164z" />
<glyph unicode="c" horiz-adv-x="978" d="M100 471q0 166 65.5 277.5t177.5 168t245 56.5q127 0 210 -43t83 -99q0 -25 -14.5 -43t-37.5 -28q-45 31 -99 53.5t-138 22.5q-139 0 -231.5 -94.5t-92.5 -270.5q0 -174 89 -268t235 -94q86 0 143.5 23.5t102.5 53.5q23 -12 37 -30.5t14 -44.5q0 -57 -85 -97.5 t-212 -40.5q-141 0 -253 54.5t-175.5 165t-63.5 278.5z" />
<glyph unicode="d" horiz-adv-x="1120" d="M100 469q0 178 62.5 288.5t169 163t233.5 52.5q80 0 151.5 -22.5t112.5 -55.5v-152q-39 39 -101 67t-146 28t-156 -36t-115 -118t-43 -219q0 -186 90.5 -271t239.5 -85q72 0 118 15t83 38v688l164 2v-696q0 -39 -17.5 -62.5t-54.5 -46.5q-41 -27 -117 -50.5t-174 -23.5 q-147 0 -260 51.5t-176.5 161t-63.5 283.5zM799 809v518q10 4 31.5 9t43.5 5q45 0 67 -17t22 -56v-457z" />
<glyph unicode="e" horiz-adv-x="1062" d="M100 479q0 117 34 208t94.5 154.5t144.5 97.5t182 34q125 0 220 -53.5t149.5 -148.5t54.5 -218q0 -45 -20.5 -64.5t-57.5 -23.5l-688 -96l-8 129l618 84q-8 113 -77.5 185.5t-192.5 72.5q-127 0 -210 -91.5t-83 -261.5v-45q14 -164 107.5 -248.5t255.5 -84.5 q86 0 155.5 28.5t110.5 61.5q23 -14 36 -34t13 -44q0 -39 -44 -73t-116.5 -54.5t-163.5 -20.5q-158 0 -273.5 57.5t-178 171t-62.5 277.5z" />
<glyph unicode="f" horiz-adv-x="817" d="M158 63v809h164v-868q-10 -4 -31 -9t-45 -5q-43 0 -65.5 17.5t-22.5 55.5zM158 782v248q0 121 44 195.5t127 110.5t197 36q117 0 183.5 -30.5t66.5 -75.5q0 -23 -9 -41.5t-26 -34.5q-37 20 -92 33.5t-106 13.5q-125 0 -174.5 -51t-49.5 -164v-240h-161zM291 760v133h434 q6 -8 12 -25.5t6 -40.5q0 -33 -16 -50t-47 -17h-389z" />
<glyph unicode="g" horiz-adv-x="1099" d="M104 502q0 156 60.5 260t167 157.5t243.5 53.5q94 0 173 -23.5t133 -58.5q31 -20 50 -46t19 -63v-632h-164v630q-35 23 -87 40.5t-124 17.5q-137 0 -221 -84t-84 -250q0 -184 85 -262t210 -78q90 0 145.5 30.5t88.5 67.5l8 -145q-31 -33 -97.5 -60.5t-162.5 -27.5 q-119 0 -219.5 46t-162 150.5t-61.5 276.5zM166 -266q0 29 13.5 48t33.5 30q43 -33 122 -60.5t169 -27.5q137 0 209.5 59t72.5 186v215h164v-225q0 -135 -58 -217t-159.5 -119t-228.5 -37q-102 0 -176 22.5t-101 37.5q-61 35 -61 88z" />
<glyph unicode="h" horiz-adv-x="1128" d="M158 63v478h164v-537q-10 -4 -31 -9t-45 -5q-43 0 -65.5 17.5t-22.5 55.5zM158 461v866q10 4 31.5 9t46.5 5q43 0 64.5 -17t21.5 -56v-807h-164zM270 866q49 35 130 71t188 36q170 0 278.5 -92.5t108.5 -280.5v-192h-164v188q0 123 -68.5 182.5t-177.5 59.5 q-80 0 -148.5 -31t-115.5 -74zM811 63v476l164 -2v-533q-10 -4 -31.5 -9t-44.5 -5q-45 0 -66.5 17.5t-21.5 55.5z" />
<glyph unicode="i" horiz-adv-x="493" d="M139 1245q0 43 31 73t76 30q47 0 75.5 -30t28.5 -73t-28.5 -72.5t-75.5 -29.5q-45 0 -76 29.5t-31 72.5zM164 63v478h164v-537q-10 -4 -31 -9t-45 -5q-43 0 -65.5 17.5t-22.5 55.5zM164 461v481q10 4 31.5 9t46.5 5q43 0 64.5 -17t21.5 -58v-420h-164z" />
<glyph unicode="j" horiz-adv-x="497" d="M12 -299q49 23 84 47.5t54.5 68.5t19.5 122v682h164v-713q0 -119 -41 -185.5t-94.5 -94t-92.5 -27.5q-51 0 -70.5 29.5t-23.5 70.5zM145 1245q0 43 31 73t76 30q47 0 75.5 -30t28.5 -73t-28.5 -72.5t-75.5 -29.5q-45 0 -76 29.5t-31 72.5zM170 461v481q10 4 31.5 9 t46.5 5q43 0 64.5 -17t21.5 -58v-443z" />
<glyph unicode="k" horiz-adv-x="997" d="M158 63v486l164 -25v-520q-10 -4 -31 -9t-45 -5q-43 0 -65.5 17.5t-22.5 55.5zM158 469v858q10 4 31.5 9t46.5 5q43 0 64.5 -17t21.5 -56v-824zM299 485l115 68l520 -467q-4 -45 -27.5 -71.5t-62.5 -26.5q-31 0 -56.5 16t-52.5 43zM303 512l467 453q49 -2 76.5 -23.5 t27.5 -56.5q0 -29 -17 -51.5t-50 -49.5l-401 -352z" />
<glyph unicode="l" horiz-adv-x="503" d="M170 63v478l164 -25v-512q-10 -4 -30.5 -9t-45.5 -5q-43 0 -65.5 17.5t-22.5 55.5zM170 461v866q10 4 31.5 9t44.5 5q45 0 66.5 -17t21.5 -56v-830z" />
<glyph unicode="m" horiz-adv-x="1671" d="M154 63v465h163v-524q-10 -4 -30.5 -9t-44.5 -5q-43 0 -65.5 17.5t-22.5 55.5zM154 420v342q0 41 17 69.5t60 55.5q55 35 140.5 60.5t171.5 25.5q104 0 184 -32t119 -87q12 -12 20 -22.5t17 -26.5q14 -25 24.5 -64t10.5 -86v-235h-164v223q0 100 -58.5 147.5t-154.5 47.5 q-63 0 -123 -20.5t-101 -47.5v-350h-163zM754 63v465h164v-524q-10 -4 -32 -9t-44 -5q-45 0 -66.5 17.5t-21.5 55.5zM819 842q53 53 139 92t197 39t191.5 -35t126 -106.5t45.5 -180.5v-231h-164v223q0 100 -57.5 147.5t-153.5 47.5q-72 0 -138.5 -30t-119.5 -85zM1354 63 v465h164v-524q-10 -4 -32 -9t-44 -5q-45 0 -66.5 17.5t-21.5 55.5z" />
<glyph unicode="n" d="M154 63v465h163v-524q-10 -4 -30.5 -9t-44.5 -5q-43 0 -65.5 17.5t-22.5 55.5zM154 416v346q0 43 17 70.5t60 54.5q53 31 141.5 58.5t198.5 27.5q186 0 294 -85t108 -263v-209h-164v200q0 115 -64.5 168.5t-173.5 53.5q-82 0 -145.5 -20.5t-108.5 -47.5v-354h-163z M809 63v465h164v-524q-10 -4 -31.5 -9t-44.5 -5q-45 0 -66.5 17.5t-21.5 55.5z" />
<glyph unicode="o" horiz-adv-x="1132" d="M100 473q0 154 58.5 265.5t164 173t244.5 61.5t243.5 -61.5t163 -173t58.5 -265.5q0 -152 -57 -264.5t-161.5 -174t-246.5 -61.5q-141 0 -246.5 61.5t-163 174.5t-57.5 264zM268 473q0 -172 79 -268t220 -96q139 0 218 97t79 267t-79 267.5t-218 97.5q-137 0 -218 -97.5 t-81 -267.5z" />
<glyph unicode="p" horiz-adv-x="1118" d="M154 98v676q0 41 14 65.5t59 51.5q55 31 132 56.5t176 25.5q135 0 244.5 -52.5t174 -162t64.5 -283.5q0 -168 -58.5 -279.5t-163 -167t-239.5 -55.5q-88 0 -165 26t-111 56v152q41 -39 103 -68.5t151 -29.5q143 0 230 87t87 279q0 135 -44 214t-117 114t-156 35 q-74 0 -125.5 -18.5t-92.5 -41.5v-680h-163zM154 158l163 -4v-523q-10 -4 -30 -9t-45 -5q-43 0 -65.5 18.5t-22.5 57.5v465z" />
<glyph unicode="q" horiz-adv-x="1118" d="M100 467q0 172 64.5 284.5t174.5 167t247 54.5q98 0 178 -24.5t133 -57.5q31 -18 49.5 -45t18.5 -64v-653l-164 2v649q-35 23 -87 40.5t-124 17.5q-88 0 -161 -37t-117 -119t-44 -215q0 -188 88 -273t232 -85q74 0 135 25.5t96 60.5v-150q-41 -29 -103.5 -50.5 t-152.5 -21.5q-133 0 -238.5 51.5t-165 161t-59.5 281.5zM801 160l164 4v-539q-10 -4 -32 -9t-44 -5q-45 0 -66.5 18.5t-21.5 57.5v473z" />
<glyph unicode="r" horiz-adv-x="782" d="M154 63v478l163 -25v-512q-10 -4 -30.5 -9t-44.5 -5q-43 0 -65.5 17.5t-22.5 55.5zM154 446v312q0 47 17 74.5t58 54.5q53 35 145.5 60.5t205.5 25.5q163 0 163 -81q0 -21 -6 -38.5t-16 -30.5q-20 4 -53 8.5t-66 4.5q-94 0 -166 -19.5t-119 -46.5v-324h-163z" />
<glyph unicode="s" horiz-adv-x="915" d="M94 127q0 25 13.5 48.5t39.5 37.5q55 -39 129 -71.5t168 -32.5q213 0 213 143q0 59 -35.5 97t-105.5 54l-170 46q-125 31 -182.5 95t-57.5 161q0 109 88.5 188.5t268.5 79.5q96 0 167.5 -19.5t111.5 -51.5t40 -68q0 -27 -13 -47.5t-36 -30.5q-25 16 -62.5 35.5t-89 33 t-112.5 13.5q-90 0 -145.5 -35t-55.5 -98q0 -45 32 -79t101 -51l142 -34q139 -33 208.5 -103.5t69.5 -185.5q0 -131 -96 -205t-279 -74q-156 0 -254 48.5t-98 105.5z" />
<glyph unicode="t" horiz-adv-x="761" d="M156 248v293h163v-283q0 -82 47.5 -115.5t129.5 -33.5q35 0 77.5 12t71.5 29q12 -12 22.5 -31t10.5 -43q0 -45 -53.5 -74t-147.5 -29q-143 0 -232 63.5t-89 211.5zM156 479v742q10 4 31.5 9t45.5 5q43 0 64.5 -17.5t21.5 -56.5v-682h-163zM240 791v135h415 q6 -8 12.5 -26.5t6.5 -39.5q0 -33 -16.5 -51t-45.5 -18h-372z" />
<glyph unicode="u" d="M154 346v186h163v-178q0 -131 70 -188t193 -57q82 0 139 17t90 36v370h164v-364q0 -43 -11.5 -68.5t-54.5 -50.5q-45 -27 -129 -51.5t-200 -24.5q-135 0 -230.5 40t-144.5 123t-49 210zM154 426v516q10 4 31.5 9t45.5 5q43 0 64.5 -17t21.5 -58v-455h-163zM809 426v516 q10 4 31.5 9t44.5 5q45 0 66.5 -17t21.5 -58v-455h-164z" />
<glyph unicode="v" horiz-adv-x="1013" d="M61 920q14 20 39 32.5t50 12.5q37 0 57 -18.5t35 -61.5l127 -367q16 -47 42.5 -116.5t53.5 -139t43 -117.5h8q82 207 153.5 409t123.5 394q26 17 69 17q35 0 56.5 -18.5t21.5 -53.5q0 -27 -22.5 -100.5t-59.5 -176t-81 -214t-90 -215t-85 -179.5q-10 -8 -35.5 -14 t-54.5 -6q-35 0 -61.5 11t-36.5 32q-23 41 -59 119.5t-76.5 179t-82.5 208t-77 207t-58 175.5z" />
<glyph unicode="w" horiz-adv-x="1492" d="M80 926q14 14 35.5 26.5t52.5 12.5q39 0 58.5 -21.5t27.5 -69.5q18 -86 41.5 -194.5t49.5 -215t47.5 -191.5t31.5 -126h8q16 49 51 161t83 255.5t98 290.5q16 10 38.5 15t49.5 5q37 0 61.5 -13t32.5 -40q49 -141 92 -277t76 -241.5t47 -157.5h10q47 182 102.5 391 t90.5 410q29 18 69 19q35 0 55.5 -16.5t20.5 -51.5q0 -23 -13.5 -86t-36 -149.5t-50 -183.5t-56 -188t-54 -165t-44.5 -115q-10 -8 -33.5 -15t-54.5 -7q-84 0 -98 39q-29 74 -66 183t-75.5 237.5t-77.5 257.5q-37 -129 -79 -258.5t-81 -242t-72 -194.5q-16 -10 -36.5 -16 t-55.5 -6q-33 0 -60.5 11t-37.5 36q-20 41 -46 118.5t-53.5 178t-56.5 208t-52.5 208t-39.5 178.5z" />
<glyph unicode="x" horiz-adv-x="987" d="M84 61q0 16 7 35t34 51q74 98 155.5 194t157.5 194l31 14q84 109 157.5 203t151.5 206q8 2 12.5 2.5t10.5 0.5q43 0 67.5 -19.5t24.5 -52.5q0 -23 -9.5 -43.5t-29.5 -46.5q-70 -86 -142.5 -174t-142.5 -172l-53 -45q-76 -100 -155.5 -208t-153.5 -210h-13.5h-15.5 q-47 0 -70.5 20.5t-23.5 50.5zM86 874q8 41 30.5 64t55.5 23q35 0 55.5 -17.5t40.5 -46.5q61 -82 129 -179.5t142 -187.5l36 -24q84 -111 169 -218.5t169 -215.5q-4 -39 -26.5 -61.5t-59.5 -22.5q-33 0 -55 17.5t-51 53.5q-61 86 -130 182.5t-130 180.5l-47 43 q-90 109 -168 207t-160 202z" />
<glyph unicode="y" horiz-adv-x="1001" d="M61 920q14 20 38 32.5t51 12.5q35 0 57 -18.5t37 -61.5q61 -172 128.5 -342t149.5 -353h8q43 86 90.5 215.5t90.5 272.5t71 270q14 6 31.5 11.5t38.5 5.5q35 0 57.5 -17.5t22.5 -52.5q0 -33 -18.5 -109.5t-50.5 -178t-73.5 -215t-90 -223.5t-97.5 -198 q-94 -174 -172 -267t-143 -93q-47 0 -73 24.5t-32 57.5q45 39 101.5 103.5t108.5 139t85 142.5q-35 10 -64.5 36.5t-66.5 96.5q-35 66 -84 177.5t-101 249.5t-100 282z" />
<glyph unicode="z" horiz-adv-x="960" d="M92 72q0 25 11.5 46t25.5 42l629 786h63q16 -14 25.5 -32.5t9.5 -41.5t-10 -43t-29 -43l-627 -786h-65q-14 12 -23.5 31.5t-9.5 40.5zM104 879q0 35 16.5 51t45.5 16h633v-135h-676q-6 10 -12.5 28.5t-6.5 39.5zM137 0v133h715q6 -8 12 -25.5t6 -39.5q0 -33 -16 -50.5 t-47 -17.5h-670z" />
<glyph unicode="{" horiz-adv-x="575" d="M76 563q0 14 4 32.5t10 31.5q78 12 117 70.5t39 164.5v238q0 123 54 183t140 60q37 0 55.5 -17t18.5 -48q0 -12 -1 -23.5t-5 -23.5q-59 0 -87 -30t-28 -103v-250q0 -109 -37.5 -179.5t-105.5 -105.5q68 -35 105.5 -105.5t37.5 -178.5v-269q0 -72 28 -101.5t87 -31.5 q4 -12 5 -23.5t1 -23.5q0 -29 -18.5 -47.5t-55.5 -18.5q-86 0 -140 61.5t-54 184.5v252q0 109 -39 167t-117 71q-8 10 -11 29.5t-3 33.5z" />
<glyph unicode="|" horiz-adv-x="514" d="M182 -301v1681q16 6 32.5 10.5t39.5 4.5q41 0 59.5 -18.5t18.5 -63.5v-1682q-14 -6 -31.5 -10t-40.5 -4q-39 0 -58.5 18.5t-19.5 63.5z" />
<glyph unicode="}" horiz-adv-x="575" d="M61 -170q0 -29 18.5 -47.5t55.5 -18.5q86 0 140 61.5t54 184.5v252q0 109 39 167t117 71q8 10 11 29.5t3 33.5t-4 32.5t-10 31.5q-78 12 -117 70.5t-39 164.5v238q0 123 -54 183t-140 60q-37 0 -55.5 -17t-18.5 -48q0 -12 1 -23.5t5 -23.5q59 0 87 -30t28 -103v-250 q0 -109 37.5 -179.5t105.5 -105.5q-68 -35 -105.5 -105.5t-37.5 -178.5v-269q0 -72 -28 -101.5t-87 -31.5q-4 -12 -5 -23.5t-1 -23.5z" />
<glyph unicode="~" horiz-adv-x="917" d="M51 518q0 43 24.5 76t68.5 50.5t100 17.5q84 0 153.5 -20.5t129 -42t112.5 -21.5q55 0 78.5 29.5t40.5 62.5q45 0 76.5 -24.5t31.5 -65.5q0 -63 -53 -103.5t-139 -40.5q-82 0 -151.5 21.5t-129 42t-114.5 20.5t-79 -29.5t-40 -62.5q-45 0 -77 24.5t-32 65.5z" />
<glyph horiz-adv-x="0" />
<glyph unicode="&#xa1;" horiz-adv-x="512" d="M147 842q0 49 31 82t84 33t84 -33t31 -82t-31 -82t-84 -33t-84 33t-31 82zM176 -258q0 61 1 160.5t4 215.5t7.5 229.5t8.5 203.5q12 8 29.5 14.5t37.5 6.5q29 0 47.5 -12.5t20.5 -39.5q4 -59 8 -163.5t6 -228.5t3 -242.5t1 -204.5q-43 -27 -92 -27q-39 0 -60.5 21.5 t-21.5 66.5z" />
<glyph unicode="&#xa2;" horiz-adv-x="974" d="M100 471q0 166 65.5 277.5t177.5 168t245 56.5q127 0 210 -43t83 -99q0 -25 -15.5 -43t-38.5 -28q-43 31 -97 53.5t-138 22.5q-139 0 -231.5 -94.5t-92.5 -270.5q0 -174 89 -268t235 -94q86 0 143.5 23.5t102.5 53.5q23 -12 37 -30.5t14 -44.5q0 -57 -85 -97.5 t-214 -40.5q-141 0 -252 54.5t-174.5 165t-63.5 278.5zM477 57h150v-278q-8 -2 -26.5 -6t-39.5 -4q-39 0 -61.5 17t-22.5 50v221zM477 864v305q10 4 28.5 7.5t39.5 3.5q41 0 61.5 -17.5t20.5 -50.5v-248h-150z" />
<glyph unicode="&#xa3;" horiz-adv-x="1032" d="M111 92q0 18 2 31q92 47 138 115t46 211q0 47 -7 120.5t-15.5 152.5t-8.5 134q0 147 56.5 238.5t150.5 134.5t207 43q133 0 196.5 -42t63.5 -83q0 -16 -11 -40t-36 -38q-45 31 -91 47.5t-112 16.5q-131 0 -195.5 -74t-64.5 -225q0 -53 7 -129t13.5 -147t6.5 -114 q0 -109 -29 -184.5t-84 -124.5h600q8 -14 12.5 -29.5t4.5 -37.5q0 -33 -16.5 -50.5t-43.5 -17.5h-696q-39 0 -66.5 23.5t-27.5 68.5zM117 606q0 20 6 35.5t10 30.5h696q6 -14 11.5 -29.5t5.5 -36.5q0 -37 -16.5 -52t-43.5 -15h-612q-23 0 -40 15t-17 52z" />
<glyph unicode="&#xa4;" horiz-adv-x="1075" d="M123 989q16 37 43 55.5t53 18.5q27 0 49.5 -22.5t42.5 -47.5l111 -133l-125 -78zM150 219q0 25 14 49.5t35 48.5l108 132l107 -105l-166 -213q-39 8 -68.5 29.5t-29.5 58.5zM158 610q0 121 51 204t137 126t191 43q104 0 190 -43t137 -126t51 -204q0 -123 -51 -205.5 t-137 -125.5t-190 -43t-190.5 43t-137.5 125.5t-51 205.5zM307 610q0 -119 64 -182t166 -63t164.5 63.5t62.5 181.5q0 117 -62.5 181.5t-164.5 64.5t-166 -64.5t-64 -181.5zM655 350l123 80l174 -207q-16 -39 -41.5 -57.5t-54.5 -18.5q-25 0 -48.5 23t-43.5 49zM668 866 l166 213q39 -8 67.5 -28.5t28.5 -57.5q0 -27 -13.5 -50t-35.5 -50l-107 -131z" />
<glyph unicode="&#xa5;" horiz-adv-x="1118" d="M76 1212q14 18 36.5 36t53.5 18q35 0 56.5 -19.5t43.5 -62.5l293 -477h10q66 102 113 184t94 166t109 192q18 10 33.5 13.5t35.5 3.5q37 0 54.5 -19.5t17.5 -46.5q0 -18 -27.5 -72.5t-74.5 -132t-103.5 -167t-113.5 -175.5l-287 9q-63 94 -129 194t-121 192.5t-94 163.5z M100 369q0 37 15.5 49t34.5 12h847q6 -10 11.5 -29.5t5.5 -35.5q0 -29 -14.5 -45.5t-34.5 -16.5h-844q-8 10 -14.5 27.5t-6.5 38.5zM100 639q0 35 15.5 48t36.5 13h444l33 -127h-508q-8 10 -14.5 27.5t-6.5 38.5zM479 63v332h168v-393q-10 -2 -31.5 -7t-44.5 -5 q-45 0 -68.5 18.5t-23.5 54.5zM500 573l41 127h460q6 -14 11.5 -30.5t5.5 -34.5q0 -29 -14.5 -45.5t-36.5 -16.5h-467z" />
<glyph unicode="&#xa6;" horiz-adv-x="600" d="M182 -301v680q16 6 32.5 10t39.5 4q41 0 59.5 -18.5t18.5 -63.5v-680q-14 -6 -31.5 -10t-40.5 -4q-39 0 -58.5 18.5t-19.5 63.5zM182 702v680q16 6 32.5 10.5t39.5 4.5q41 0 59.5 -18.5t18.5 -63.5v-680q-14 -6 -31.5 -10t-40.5 -4q-39 0 -58.5 18t-19.5 63z" />
<glyph unicode="&#xa7;" horiz-adv-x="1032" d="M123 61q0 29 14.5 49.5t36.5 34.5q70 -43 152 -73.5t182 -30.5q115 0 177.5 34t62.5 99q0 55 -40 83t-130 48l-187 41q-111 23 -186.5 83t-75.5 181q0 96 56.5 155.5t129.5 86.5l119 -61q-61 -23 -103 -66t-42 -111q0 -57 41 -91t110 -48l189 -41q127 -27 203.5 -84 t76.5 -176q0 -125 -102 -195.5t-299 -70.5q-111 0 -198 21.5t-137 57.5t-50 74zM137 1012q0 125 96.5 192.5t268.5 67.5q100 0 178 -18.5t123 -48t45 -68.5q0 -27 -13.5 -46.5t-29.5 -29.5q-37 18 -83 36.5t-100.5 30t-115.5 11.5q-96 0 -151.5 -32t-55.5 -95q0 -57 38 -84 t105 -41l185 -37q127 -33 204.5 -90t77.5 -180q0 -70 -30.5 -121t-78.5 -85t-98 -52l-104 77q66 23 108 66t42 113q0 59 -41 90.5t-132 52.5l-184 37q-70 16 -128 43.5t-92 78t-34 132.5z" />
<glyph unicode="&#xa8;" horiz-adv-x="765" d="M115 1241q0 41 27.5 69.5t70.5 28.5q45 0 73.5 -28.5t28.5 -69.5q0 -39 -28.5 -68.5t-73.5 -29.5q-43 0 -70.5 29.5t-27.5 68.5zM467 1241q0 41 29.5 69.5t70.5 28.5q43 0 73 -28.5t30 -69.5q0 -39 -30 -68.5t-73 -29.5q-41 0 -70.5 29.5t-29.5 68.5z" />
<glyph unicode="&#xa9;" horiz-adv-x="1460" d="M111 610q0 178 77.5 322.5t216 229.5t322.5 85t324.5 -85t219.5 -229.5t79 -322.5q0 -172 -79 -311t-219.5 -221t-324.5 -82t-322.5 82t-216 221t-77.5 311zM238 610q0 -147 58 -260.5t168.5 -178.5t262.5 -65q154 0 263.5 65t168 178.5t58.5 260.5q0 156 -58.5 273.5 t-168 185.5t-263.5 68q-152 0 -262.5 -68t-168.5 -185.5t-58 -273.5zM406 621q0 127 52 206.5t132 117.5t162 38q90 0 149.5 -31.5t59.5 -81.5q0 -14 -13.5 -30.5t-29.5 -24.5q-29 16 -64 30.5t-82 14.5q-86 0 -153.5 -56t-67.5 -183q0 -117 64.5 -177.5t162.5 -60.5 q57 0 90 14.5t60 30.5q41 -23 41 -66q0 -33 -50.5 -66.5t-150.5 -33.5t-182 41t-131 121t-49 197z" />
<glyph unicode="&#xaa;" horiz-adv-x="720" d="M86 819q0 90 61.5 137.5t178.5 57.5l166 16v14q0 68 -36 92.5t-114 24.5q-51 0 -104.5 -16.5t-87.5 -38.5q-14 8 -25.5 24.5t-11.5 36.5q0 23 11 36.5t32 25.5q31 16 85 28.5t109 12.5q115 0 190.5 -47t75.5 -179v-317q0 -18 -13 -32.5t-36 -26.5q-90 -43 -211 -43 q-125 0 -197.5 48t-72.5 146zM213 827q0 -45 34.5 -69.5t108.5 -24.5q43 0 80 9.5t56 19.5v164l-140 -15q-74 -8 -106.5 -27.5t-32.5 -56.5z" />
<glyph unicode="&#xab;" horiz-adv-x="960" d="M72 463q0 33 8 50t22 30l297 309q41 -8 60.5 -27.5t19.5 -46.5q0 -25 -13 -44t-42 -50l-217 -223l282 -293q0 -31 -19 -56.5t-58 -25.5q-27 0 -49.5 17.5t-43.5 37.5l-227 252q-8 14 -14 31.5t-6 38.5zM461 463q0 33 8 50t23 30l296 309q41 -8 60.5 -27.5t19.5 -46.5 q0 -25 -13 -44t-42 -50l-215 -223l281 -293q0 -31 -19.5 -56.5t-56.5 -25.5q-27 0 -50.5 17.5t-41.5 37.5l-230 252q-8 14 -14 31.5t-6 38.5z" />
<glyph unicode="&#xac;" horiz-adv-x="1110" d="M104 715q0 35 19.5 52t52.5 17h750q35 0 56.5 -19.5t21.5 -55.5v-336q-14 -6 -33 -10.5t-41 -4.5q-41 0 -60.5 18.5t-19.5 63.5v211h-731q-6 12 -10.5 28.5t-4.5 35.5z" />
<glyph unicode="&#xad;" horiz-adv-x="796" d="M111 532q0 35 19.5 52.5t51.5 17.5h490q4 -12 9 -28.5t5 -34.5q0 -33 -18.5 -52.5t-53.5 -19.5h-489q-6 14 -10 29.5t-4 35.5z" />
<glyph unicode="&#xae;" horiz-adv-x="1267" d="M119 772q0 139 64.5 254t180 184.5t269.5 69.5q152 0 268.5 -69.5t182 -184.5t65.5 -254t-65.5 -255t-182.5 -184.5t-268 -68.5q-154 0 -269.5 68.5t-180 184.5t-64.5 255zM231 772q0 -117 50.5 -209t140.5 -145t211 -53t211 53t140 145t50 209t-50 209t-140 145.5 t-211 53.5t-211 -53.5t-140.5 -145.5t-50.5 -209zM465 596v379q0 29 45 37q29 6 53.5 8t52.5 2q98 0 153.5 -40t55.5 -114q0 -51 -29.5 -87t-72.5 -50l117 -143q-4 -16 -20.5 -28.5t-39.5 -12.5q-20 0 -35.5 10t-31.5 31l-88 129h-54v-164q-8 -2 -22 -3t-31 -1q-25 0 -39 8 t-14 39zM571 801h66q78 0 78 71q0 31 -24.5 48.5t-65.5 17.5q-14 0 -27.5 -1t-26.5 -3v-133z" />
<glyph unicode="&#xaf;" horiz-adv-x="671" d="M59 1233q0 35 18.5 51t47.5 16h467q8 -12 14 -29.5t6 -35.5q0 -35 -17 -51.5t-48 -16.5h-465q-8 12 -15.5 28.5t-7.5 37.5z" />
<glyph unicode="&#xb0;" horiz-adv-x="737" d="M80 1001q0 82 40 142.5t105.5 93.5t143.5 33t143.5 -33t105 -92.5t39.5 -143.5q0 -82 -38.5 -142t-104 -93t-143.5 -33q-127 0 -209 77t-82 191zM223 1001q0 -72 44 -110.5t102 -38.5q59 0 102 39t43 110q0 72 -45 110t-100 38t-100.5 -38t-45.5 -110z" />
<glyph unicode="&#xb1;" horiz-adv-x="1058" d="M104 63q0 35 19.5 52.5t52.5 17.5h766q4 -12 8 -27.5t4 -35.5q0 -33 -18 -51.5t-53 -18.5h-766q-4 12 -8.5 28.5t-4.5 34.5zM104 715q0 35 19.5 52t52.5 17h766q4 -12 8 -27.5t4 -35.5q0 -33 -18 -51.5t-53 -18.5h-766q-4 12 -8.5 28.5t-4.5 35.5zM459 377v743 q16 6 33.5 10.5t39.5 4.5q39 0 57.5 -18.5t18.5 -63.5v-746q-14 -4 -30.5 -9t-38.5 -5q-41 0 -60.5 19.5t-19.5 64.5z" />
<glyph unicode="&#xb2;" horiz-adv-x="565" d="M47 825q0 29 9.5 46t23.5 30l178 157q49 43 78 84t29 82q0 51 -35 76t-84 25q-39 0 -76 -14.5t-66 -37.5q-14 8 -24 21.5t-10 36.5q0 41 56 68.5t126 27.5q109 0 170 -53t61 -150q0 -63 -33.5 -120.5t-121.5 -129.5l-144 -114h303q6 -10 9.5 -22.5t3.5 -28.5 q0 -20 -11.5 -35t-42.5 -15h-372q-12 12 -19.5 28.5t-7.5 37.5z" />
<glyph unicode="&#xb3;" horiz-adv-x="557" d="M35 843q0 23 11 39.5t30 24.5q25 -20 64.5 -41t101.5 -21q59 0 97 27t38 78q0 41 -27.5 67.5t-75.5 26.5h-116q-8 10 -12.5 23.5t-4.5 27.5q1 33 17 49h116q41 0 68 24t27 60q0 45 -36 71t-97 26q-45 0 -84 -14.5t-64 -30.5q-14 10 -23.5 24.5t-9.5 34.5q0 39 58.5 63.5 t134.5 24.5q115 0 177 -51t62 -135q0 -49 -26.5 -88t-73.5 -56q49 -16 79 -59t30 -98q0 -102 -73 -149.5t-177 -47.5q-88 0 -149.5 29.5t-61.5 70.5z" />
<glyph unicode="&#xb4;" horiz-adv-x="610" d="M154 1126q0 18 10 32t20 26l199 223q45 -2 72.5 -25.5t27.5 -52.5q0 -27 -12 -45t-41 -45l-186 -182q-39 0 -64.5 21.5t-25.5 47.5z" />
<glyph unicode="&#xb5;" horiz-adv-x="1130" d="M158 -315v772h164l-21 -324q8 -57 14.5 -160.5t6.5 -208.5v-141q-8 -2 -30 -7t-44 -5q-45 0 -67.5 19.5t-22.5 54.5zM158 426v516q10 4 31.5 9t43.5 5q45 0 67 -17t22 -58v-455h-164zM244 287v243l78 2v-178q0 -131 71.5 -188t190.5 -57q82 0 139 17t90 36v370h164v-364 q0 -43 -11.5 -68.5t-54.5 -50.5t-121.5 -50.5t-187.5 -25.5q-98 0 -180 29t-130 97.5t-48 187.5zM813 426v516q10 4 30.5 9t45.5 5q43 0 65.5 -17t22.5 -58v-455h-164z" />
<glyph unicode="&#xb6;" horiz-adv-x="903" d="M31 872q0 131 57 215t149.5 126t198.5 42h236q41 0 64.5 -14t23.5 -63v-1319q-8 -2 -29.5 -7.5t-44.5 -5.5q-43 0 -66.5 17.5t-23.5 58.5v1192h-135v-549q0 -25 -26.5 -41t-86.5 -16q-76 0 -149.5 39t-120.5 120t-47 205z" />
<glyph unicode="&#xb7;" horiz-adv-x="288" d="M33 516q0 49 29.5 82t82.5 33t82 -33t29 -82q0 -47 -28.5 -80t-82.5 -33q-53 0 -82.5 33t-29.5 80z" />
<glyph unicode="&#xb8;" horiz-adv-x="399" d="M6 -313q0 29 12 49h31q74 0 107.5 31.5t33.5 85.5q0 35 -15 75.5t-50 75.5l102 31q57 -39 82 -92.5t25 -116.5q0 -98 -61.5 -155.5t-159.5 -57.5q-51 0 -79 19.5t-28 54.5z" />
<glyph unicode="&#xb9;" horiz-adv-x="432" d="M33 1290q0 20 12 34.5t37 24.5l151 68h25q33 0 48.5 -17.5t15.5 -50.5v-586q-12 -6 -26.5 -9t-29.5 -3q-29 0 -45 12.5t-16 45.5v477l-125 -60q-16 8 -31.5 24.5t-15.5 39.5z" />
<glyph unicode="&#xba;" horiz-adv-x="774" d="M90 948q0 158 85 240t212 82q133 0 214 -83t81 -241q0 -156 -81 -238.5t-214 -82.5q-131 0 -214 81.5t-83 241.5zM219 948q0 -100 46 -155.5t122 -55.5t121 54.5t45 154.5t-44 156.5t-122 56.5q-76 0 -122 -55t-46 -156z" />
<glyph unicode="&#xbb;" horiz-adv-x="960" d="M82 770q0 31 19.5 56.5t56.5 25.5q29 0 51 -16.5t41 -38.5l229 -252q10 -14 15.5 -30.5t5.5 -39.5q0 -33 -8.5 -50t-24.5 -30l-297 -309q-39 10 -58.5 28.5t-19.5 45.5q0 25 13.5 44t41.5 50l215 223zM471 770q0 31 19.5 56.5t56.5 25.5q29 0 51.5 -16.5t40.5 -38.5 l229 -252q10 -14 15.5 -30.5t5.5 -39.5q0 -33 -8.5 -50t-22.5 -30l-299 -309q-39 10 -58.5 28.5t-19.5 45.5q0 25 13.5 44t42.5 50l215 223z" />
<glyph unicode="&#xbc;" horiz-adv-x="1232" d="M17 1127q0 20 12 34.5t37 24.5l151 68h25q33 0 48.5 -17.5t15.5 -50.5v-586q-12 -6 -26.5 -9t-29.5 -3q-29 0 -45 12.5t-16 45.5v477l-125 -60q-16 8 -31.5 24.5t-15.5 39.5zM150 49q0 20 8.5 36.5t24.5 43.5l751 1118q39 -2 59.5 -17.5t20.5 -41.5q0 -20 -7 -36.5 t-23 -41.5l-752 -1120q-39 2 -60.5 17.5t-21.5 41.5zM653 213q0 16 4.5 30.5t16.5 29.5l278 375q14 4 32 7t34 3q35 0 58.5 -16.5t23.5 -47.5v-346h98q4 -8 7 -18t3 -27q0 -27 -15 -40t-34 -13h-467q-16 8 -27.5 25.5t-11.5 37.5zM795 248h194v135q0 31 1 72t3 78zM985 50 v143h115v-189q-12 -6 -25.5 -9t-29.5 -3q-29 0 -44.5 12.5t-15.5 45.5z" />
<glyph unicode="&#xbd;" horiz-adv-x="1271" d="M17 1127q0 20 12 34.5t37 24.5l151 68h25q33 0 48.5 -17.5t15.5 -50.5v-586q-12 -6 -26.5 -9t-29.5 -3q-29 0 -45 12.5t-16 45.5v477l-125 -60q-16 8 -31.5 24.5t-15.5 39.5zM150 49q0 20 8.5 36.5t24.5 43.5l751 1118q39 -2 59.5 -17.5t20.5 -41.5q0 -20 -7 -36.5 t-23 -41.5l-752 -1120q-39 2 -60.5 17.5t-21.5 41.5zM764 66q0 29 9.5 46t23.5 30l178 157q49 43 78 84t29 82q0 51 -35 76t-84 25q-39 0 -76 -14.5t-66 -37.5q-14 8 -24 21.5t-10 36.5q0 41 56 68.5t126 27.5q109 0 170 -53t61 -150q0 -63 -33.5 -120.5t-121.5 -129.5 l-144 -114h303q6 -10 9.5 -22.5t3.5 -28.5q0 -20 -11.5 -35t-42.5 -15h-372q-12 12 -19.5 28.5t-7.5 37.5z" />
<glyph unicode="&#xbe;" horiz-adv-x="1325" d="M35 680q0 23 11 39.5t30 24.5q25 -20 64.5 -41t101.5 -21q59 0 97 27t38 78q0 41 -27.5 67.5t-75.5 26.5h-116q-8 10 -12.5 23.5t-4.5 27.5q1 33 17 49h116q41 0 68 24t27 60q0 45 -36 71t-97 26q-45 0 -84 -14.5t-64 -30.5q-14 10 -23.5 24.5t-9.5 34.5q0 39 58.5 63.5 t134.5 24.5q115 0 177 -51t62 -135q0 -49 -26.5 -88t-73.5 -56q49 -16 79 -59t30 -98q0 -102 -73 -149.5t-177 -47.5q-88 0 -149.5 29.5t-61.5 70.5zM252 49q0 20 8.5 36.5t24.5 43.5l751 1118q39 -2 59.5 -17.5t20.5 -41.5q0 -20 -7 -36.5t-23 -41.5l-752 -1120 q-39 2 -60.5 17.5t-21.5 41.5zM747 213q0 16 4.5 30.5t16.5 29.5l278 375q14 4 32 7t34 3q35 0 58.5 -16.5t23.5 -47.5v-346h98q4 -8 7 -18t3 -27q0 -27 -15 -40t-34 -13h-467q-16 8 -27.5 25.5t-11.5 37.5zM889 248h194v135q0 31 1 72t3 78zM1079 50v143h115v-189 q-12 -6 -25.5 -9t-29.5 -3q-29 0 -44.5 12.5t-15.5 45.5z" />
<glyph unicode="&#xbf;" horiz-adv-x="940" d="M80 37q0 172 105.5 278.5t318.5 159.5l200 49q18 -18 29.5 -40.5t11.5 -49.5q0 -29 -16 -47t-57 -28l-142 -37q-135 -35 -207.5 -103.5t-72.5 -179.5q0 -98 70.5 -169t220.5 -71q82 0 164.5 26t132.5 67q23 -16 35 -39t12 -49q0 -59 -98.5 -104.5t-252.5 -45.5 q-135 0 -237 49t-159.5 135t-57.5 199zM496 842q0 49 31.5 82t84.5 33q51 0 83 -33t32 -82t-31.5 -83t-83.5 -34q-53 0 -84.5 34t-31.5 83z" />
<glyph unicode="&#xc0;" horiz-adv-x="1212" d="M61 57q0 18 6.5 38t14.5 42q25 70 60.5 170.5t78.5 219t90 243.5t92.5 244t83.5 217q16 8 49 16t68 8q41 0 79 -12t48 -41q49 -119 105.5 -269.5t114 -313t109.5 -316t93 -278.5q-14 -18 -37.5 -29.5t-52.5 -11.5q-39 0 -59.5 17t-34.5 58l-113 334l-16 58 q-41 125 -85 251.5t-82 235t-63 178.5h-8q-31 -86 -73 -204.5t-86 -244.5t-83 -235l-10 -31q-12 -37 -30.5 -92t-39 -115.5t-39 -112.5t-28.5 -85q-14 -6 -29.5 -9t-38.5 -3q-33 0 -58.5 17t-25.5 56zM270 332l54 137h571l33 -137h-658zM351 1587v10q0 33 19.5 54.5 t49.5 21.5q47 0 74 -37l172 -206q-2 -33 -19.5 -51.5t-45.5 -18.5q-20 0 -36 9.5t-32 23.5l-180 180q-2 8 -2 14z" />
<glyph unicode="&#xc1;" horiz-adv-x="1212" d="M61 57q0 18 6.5 38t14.5 42q25 70 60.5 170.5t78.5 219t90 243.5t92.5 244t83.5 217q16 8 49 16t68 8q41 0 79 -12t48 -41q49 -119 105.5 -269.5t114 -313t109.5 -316t93 -278.5q-14 -18 -37.5 -29.5t-52.5 -11.5q-39 0 -59.5 17t-34.5 58l-113 334l-16 58 q-41 125 -85 251.5t-82 235t-63 178.5h-8q-31 -86 -73 -204.5t-86 -244.5t-83 -235l-10 -31q-12 -37 -30.5 -92t-39 -115.5t-39 -112.5t-28.5 -85q-14 -6 -29.5 -9t-38.5 -3q-33 0 -58.5 17t-25.5 56zM270 332l54 137h571l33 -137h-658zM555 1421q0 20 8.5 35t20.5 27 l186 196q45 -2 68.5 -23.5t23.5 -49.5q0 -29 -11 -47.5t-40 -42.5l-174 -156q-39 4 -60.5 20.5t-21.5 40.5z" />
<glyph unicode="&#xc2;" horiz-adv-x="1212" d="M61 57q0 18 6.5 38t14.5 42q25 70 60.5 170.5t78.5 219t90 243.5t92.5 244t83.5 217q16 8 49 16t68 8q41 0 79 -12t48 -41q49 -119 105.5 -269.5t114 -313t109.5 -316t93 -278.5q-14 -18 -37.5 -29.5t-52.5 -11.5q-39 0 -59.5 17t-34.5 58l-113 334l-16 58 q-41 125 -85 251.5t-82 235t-63 178.5h-8q-31 -86 -73 -204.5t-86 -244.5t-83 -235l-10 -31q-12 -37 -30.5 -92t-39 -115.5t-39 -112.5t-28.5 -85q-14 -6 -29.5 -9t-38.5 -3q-33 0 -58.5 17t-25.5 56zM270 332l54 137h571l33 -137h-658zM342 1417q0 25 15.5 43.5t37.5 40.5 l121 121q45 45 96 45q33 0 55.5 -13.5t47.5 -39.5l168 -191q0 -31 -19.5 -50t-50.5 -19q-23 0 -43 12t-49 45l-111 127q-33 -35 -81 -85t-107 -103q-35 4 -57.5 21.5t-22.5 45.5z" />
<glyph unicode="&#xc3;" horiz-adv-x="1212" d="M61 57q0 18 6.5 38t14.5 42q25 70 60.5 170.5t78.5 219t90 243.5t92.5 244t83.5 217q16 8 49 16t68 8q41 0 79 -12t48 -41q49 -119 105.5 -269.5t114 -313t109.5 -316t93 -278.5q-14 -18 -37.5 -29.5t-52.5 -11.5q-39 0 -59.5 17t-34.5 58l-113 334l-16 58 q-41 125 -85 251.5t-82 235t-63 178.5h-8q-31 -86 -73 -204.5t-86 -244.5t-83 -235l-10 -31q-12 -37 -30.5 -92t-39 -115.5t-39 -112.5t-28.5 -85q-14 -6 -29.5 -9t-38.5 -3q-33 0 -58.5 17t-25.5 56zM270 332l54 137h571l33 -137h-658zM318 1482q0 41 21.5 69t57.5 43 t75 15q57 0 103 -17.5t86 -34.5t75 -17q37 0 54 22.5t26 54.5h12q37 0 65.5 -17t28.5 -60q0 -57 -41 -92t-108 -35q-57 0 -106.5 18.5t-90.5 35.5t-74 17q-37 0 -53 -22.5t-25 -57.5h-12q-37 0 -65.5 18.5t-28.5 59.5z" />
<glyph unicode="&#xc4;" horiz-adv-x="1212" d="M61 57q0 18 6.5 38t14.5 42q25 70 60.5 170.5t78.5 219t90 243.5t92.5 244t83.5 217q16 8 49 16t68 8q41 0 79 -12t48 -41q49 -119 105.5 -269.5t114 -313t109.5 -316t93 -278.5q-14 -18 -37.5 -29.5t-52.5 -11.5q-39 0 -59.5 17t-34.5 58l-113 334l-16 58 q-41 125 -85 251.5t-82 235t-63 178.5h-8q-31 -86 -73 -204.5t-86 -244.5t-83 -235l-10 -31q-12 -37 -30.5 -92t-39 -115.5t-39 -112.5t-28.5 -85q-14 -6 -29.5 -9t-38.5 -3q-33 0 -58.5 17t-25.5 56zM270 332l54 137h571l33 -137h-658zM330 1511q0 41 27.5 69.5t70.5 28.5 q45 0 73.5 -28.5t28.5 -69.5q0 -39 -28.5 -68.5t-73.5 -29.5q-43 0 -70.5 29.5t-27.5 68.5zM682 1511q0 41 29.5 69.5t70.5 28.5q43 0 73 -28.5t30 -69.5q0 -39 -30 -68.5t-73 -29.5q-41 0 -70.5 29.5t-29.5 68.5z" />
<glyph unicode="&#xc5;" horiz-adv-x="1212" d="M61 57q0 18 6.5 38t14.5 42q25 70 60.5 170.5t78.5 219t90 243.5t92.5 244t83.5 217q16 8 49 16t68 8q41 0 79 -12t48 -41q49 -119 105.5 -269.5t114 -313t109.5 -316t93 -278.5q-14 -18 -37.5 -29.5t-52.5 -11.5q-39 0 -59.5 17t-34.5 58l-113 334l-16 58 q-41 125 -85 251.5t-82 235t-63 178.5h-8q-31 -86 -73 -204.5t-86 -244.5t-83 -235l-10 -31q-12 -37 -30.5 -92t-39 -115.5t-39 -112.5t-28.5 -85q-14 -6 -29.5 -9t-38.5 -3q-33 0 -58.5 17t-25.5 56zM270 332l54 137h571l33 -137h-658zM391 1524q0 80 58.5 133t159.5 53 q102 0 159.5 -53t57.5 -133q0 -78 -57.5 -131.5t-159.5 -53.5q-100 0 -159 53.5t-59 131.5zM514 1524q0 -39 27 -61.5t68 -22.5t68.5 22.5t27.5 61.5q0 41 -27.5 63.5t-68.5 22.5t-68 -22.5t-27 -63.5z" />
<glyph unicode="&#xc6;" horiz-adv-x="1728" d="M80 49q0 18 8 40t23 48q23 43 70.5 132t112 209t137.5 252t144.5 262t133.5 239q16 10 42.5 17t61.5 7q29 0 53.5 -6t43 -17t24.5 -28l2 -96h-121l-360 -670l-47 -86l-187 -358q-14 -4 -25.5 -7t-33.5 -3q-41 0 -61.5 17t-20.5 48zM283 332l55 137h549l33 -137h-637z M827 90v1034h164v-1108q-8 -2 -31.5 -9t-46.5 -7q-39 0 -62.5 25.5t-23.5 64.5zM891 1104v65q2 35 27.5 55.5t70.5 20.5h604q8 -8 14.5 -26.5t6.5 -38.5q0 -33 -17.5 -54.5t-46.5 -21.5h-659zM913 0v139h691q6 -8 13 -25.5t7 -39.5q0 -33 -17.5 -53.5t-45.5 -20.5h-648z M913 569v140h617q8 -8 14 -26.5t6 -39.5q0 -33 -17 -53.5t-46 -20.5h-574z" />
<glyph unicode="&#xc7;" horiz-adv-x="1204" d="M111 621q0 215 82.5 360t219 218t298.5 73q113 0 198.5 -24.5t134 -62.5t48.5 -77q0 -27 -17.5 -48.5t-40.5 -31.5q-51 37 -123.5 69.5t-187.5 32.5q-125 0 -224.5 -57t-157.5 -171t-58 -281q0 -252 123.5 -379t322.5 -127q106 0 186 30.5t132 69.5q20 -8 38.5 -29.5 t18.5 -50.5q0 -20 -11.5 -39.5t-37.5 -38.5q-47 -33 -129 -58.5t-209 -25.5q-170 0 -308.5 73t-218 216.5t-79.5 358.5zM510 -313q0 29 12 49h31q74 0 107.5 31.5t33.5 85.5q0 35 -15 75.5t-50 75.5l102 31q57 -39 82 -92.5t25 -116.5q0 -98 -61.5 -155.5t-159.5 -57.5 q-51 0 -79 19.5t-28 54.5z" />
<glyph unicode="&#xc8;" horiz-adv-x="1110" d="M207 90v660h166v-734q-8 -2 -30.5 -9t-45.5 -7q-41 0 -65.5 25.5t-24.5 64.5zM207 510v645q0 41 24.5 65.5t65.5 24.5q23 0 45.5 -6t30.5 -10v-721zM297 0v139h691q6 -8 12 -25.5t6 -39.5q0 -33 -16.5 -53.5t-46.5 -20.5h-646zM297 569v140h617q6 -8 12 -26.5t6 -39.5 q0 -33 -16.5 -53.5t-46.5 -20.5h-572zM297 1104v141h680q6 -8 12.5 -26.5t6.5 -38.5q0 -33 -16.5 -54.5t-47.5 -21.5h-635zM389 1587v10q0 33 19.5 54.5t49.5 21.5q47 0 74 -37l172 -206q-2 -33 -19.5 -51.5t-45.5 -18.5q-20 0 -36 9.5t-32 23.5l-180 180q-2 8 -2 14z" />
<glyph unicode="&#xc9;" horiz-adv-x="1110" d="M207 90v660h166v-734q-8 -2 -30.5 -9t-45.5 -7q-41 0 -65.5 25.5t-24.5 64.5zM207 510v645q0 41 24.5 65.5t65.5 24.5q23 0 45.5 -6t30.5 -10v-721zM297 0v139h691q6 -8 12 -25.5t6 -39.5q0 -33 -16.5 -53.5t-46.5 -20.5h-646zM297 569v140h617q6 -8 12 -26.5t6 -39.5 q0 -33 -16.5 -53.5t-46.5 -20.5h-572zM297 1104v141h680q6 -8 12.5 -26.5t6.5 -38.5q0 -33 -16.5 -54.5t-47.5 -21.5h-635zM543 1421q0 20 8.5 35t20.5 27l186 196q45 -2 68.5 -23.5t23.5 -49.5q0 -29 -11 -47.5t-40 -42.5l-174 -156q-39 4 -60.5 20.5t-21.5 40.5z" />
<glyph unicode="&#xca;" horiz-adv-x="1110" d="M207 90v660h166v-734q-8 -2 -30.5 -9t-45.5 -7q-41 0 -65.5 25.5t-24.5 64.5zM207 510v645q0 41 24.5 65.5t65.5 24.5q23 0 45.5 -6t30.5 -10v-721zM297 0v139h691q6 -8 12 -25.5t6 -39.5q0 -33 -16.5 -53.5t-46.5 -20.5h-646zM297 569v140h617q6 -8 12 -26.5t6 -39.5 q0 -33 -16.5 -53.5t-46.5 -20.5h-572zM297 1104v141h680q6 -8 12.5 -26.5t6.5 -38.5q0 -33 -16.5 -54.5t-47.5 -21.5h-635zM338 1417q0 25 15 43.5t38 40.5l121 121q45 45 96 45q33 0 55.5 -13.5t46.5 -39.5l168 -191q0 -31 -19.5 -50t-49.5 -19q-23 0 -43.5 12t-49.5 45 l-110 127q-33 -35 -81 -85t-108 -103q-35 4 -57 21.5t-22 45.5z" />
<glyph unicode="&#xcb;" horiz-adv-x="1110" d="M207 90v660h166v-734q-8 -2 -30.5 -9t-45.5 -7q-41 0 -65.5 25.5t-24.5 64.5zM207 510v645q0 41 24.5 65.5t65.5 24.5q23 0 45.5 -6t30.5 -10v-721zM297 0v139h691q6 -8 12 -25.5t6 -39.5q0 -33 -16.5 -53.5t-46.5 -20.5h-646zM297 569v140h617q6 -8 12 -26.5t6 -39.5 q0 -33 -16.5 -53.5t-46.5 -20.5h-572zM297 1104v141h680q6 -8 12.5 -26.5t6.5 -38.5q0 -33 -16.5 -54.5t-47.5 -21.5h-635zM340 1493q0 41 27.5 69.5t70.5 28.5q45 0 73.5 -28.5t28.5 -69.5q0 -39 -28.5 -68.5t-73.5 -29.5q-43 0 -70.5 29.5t-27.5 68.5zM692 1493 q0 41 29.5 69.5t70.5 28.5q43 0 73 -28.5t30 -69.5q0 -39 -30 -68.5t-73 -29.5q-41 0 -70.5 29.5t-29.5 68.5z" />
<glyph unicode="&#xcc;" horiz-adv-x="536" d="M6 1587v10q0 33 19.5 54.5t49.5 21.5q47 0 74 -37l172 -206q-2 -33 -19.5 -51.5t-45.5 -18.5q-20 0 -36 9.5t-32 23.5l-180 180q-2 8 -2 14zM184 66v677h166v-739q-10 -4 -30.5 -9t-45.5 -5q-45 0 -67.5 18.5t-22.5 57.5zM184 606v635q10 4 32 9t46 5q45 0 66.5 -17 t21.5 -58v-574h-166z" />
<glyph unicode="&#xcd;" horiz-adv-x="536" d="M184 66v677h166v-739q-10 -4 -30.5 -9t-45.5 -5q-45 0 -67.5 18.5t-22.5 57.5zM184 606v635q10 4 32 9t46 5q45 0 66.5 -17t21.5 -58v-574h-166zM203 1421q0 20 8.5 35t20.5 27l186 196q45 -2 68.5 -23.5t23.5 -49.5q0 -29 -11 -47.5t-40 -42.5l-174 -156 q-39 4 -60.5 20.5t-21.5 40.5z" />
<glyph unicode="&#xce;" horiz-adv-x="536" d="M2 1417q0 25 15 43.5t38 40.5l121 121q45 45 96 45q33 0 55.5 -13.5t46.5 -39.5l168 -191q0 -31 -19.5 -50t-49.5 -19q-23 0 -43.5 12t-49.5 45l-110 127q-33 -35 -81 -85t-108 -103q-35 4 -57 21.5t-22 45.5zM184 66v677h166v-739q-10 -4 -30.5 -9t-45.5 -5 q-45 0 -67.5 18.5t-22.5 57.5zM184 606v635q10 4 32 9t46 5q45 0 66.5 -17t21.5 -58v-574h-166z" />
<glyph unicode="&#xcf;" horiz-adv-x="536" d="M-8 1493q0 41 27.5 69.5t70.5 28.5q45 0 73.5 -28.5t28.5 -69.5q0 -39 -28.5 -68.5t-73.5 -29.5q-43 0 -70.5 29.5t-27.5 68.5zM184 66v677h166v-739q-10 -4 -30.5 -9t-45.5 -5q-45 0 -67.5 18.5t-22.5 57.5zM184 606v635q10 4 32 9t46 5q45 0 66.5 -17t21.5 -58v-574 h-166zM344 1493q0 41 29.5 69.5t70.5 28.5q43 0 73 -28.5t30 -69.5q0 -39 -30 -68.5t-73 -29.5q-41 0 -70.5 29.5t-29.5 68.5z" />
<glyph unicode="&#xd0;" horiz-adv-x="1396" d="M20 618q0 -20 6.5 -37.5t14.5 -27.5h395v139h-352q-29 0 -46.5 -19.5t-17.5 -54.5zM242 104q0 -68 86 -94q74 -23 156.5 -28t146.5 -5q199 0 345 72t227 218.5t81 369.5q0 211 -85 350t-235.5 210t-351.5 71q-80 0 -159.5 -6.5t-143.5 -26.5q-33 -10 -50 -27.5t-17 -50.5 v-1053zM307 553h371q29 0 46 20.5t17 53.5q0 23 -6 40t-12 25h-416v-139zM408 137v975q41 8 90 12t112 4q139 0 253 -50t182.5 -157.5t68.5 -283.5q0 -256 -123 -388t-362 -132q-59 0 -115.5 4t-105.5 16z" />
<glyph unicode="&#xd1;" horiz-adv-x="1351" d="M182 63v1041l140 12q8 -63 14 -149t9 -177.5t3 -173.5v-612q-10 -4 -31.5 -9t-44.5 -5q-45 0 -67.5 17.5t-22.5 55.5zM182 1042v179q16 16 46 26t65 10q49 0 84 -19t63 -71l391 -655q33 -55 69 -121.5t66.5 -127t49.5 -99.5l153 39v8v-188q-18 -14 -46.5 -24.5 t-63.5 -10.5q-49 0 -84 19.5t-64 70.5l-389 655q-31 55 -67.5 122t-69.5 127t-51 99zM358 1482q0 41 21.5 69t57.5 43t75 15q57 0 103 -17.5t86 -34.5t75 -17q37 0 54 22.5t26 54.5h12q37 0 65.5 -17t28.5 -60q0 -57 -41 -92t-108 -35q-57 0 -106.5 18.5t-90.5 35.5t-74 17 q-37 0 -53 -22.5t-25 -57.5h-12q-37 0 -65.5 18.5t-28.5 59.5zM1001 827v414q12 4 33 9t45 5q45 0 67.5 -17t22.5 -56v-1041l-141 -12q-20 172 -23.5 351t-3.5 347z" />
<glyph unicode="&#xd2;" horiz-adv-x="1411" d="M111 623q0 213 79.5 357t214 218t300.5 74q168 0 302 -74t212.5 -218t78.5 -357t-77.5 -357.5t-212 -218.5t-303.5 -74q-168 0 -303.5 74t-213 218.5t-77.5 357.5zM283 623q0 -244 114.5 -376t307.5 -132q195 0 309 132t114 376t-115.5 375.5t-307.5 131.5 q-190 0 -306 -132t-116 -375zM455 1587v10q0 33 19.5 54.5t49.5 21.5q47 0 74 -37l172 -206q-2 -33 -19.5 -51.5t-45.5 -18.5q-20 0 -36 9.5t-32 23.5l-180 180q-2 8 -2 14z" />
<glyph unicode="&#xd3;" horiz-adv-x="1411" d="M111 623q0 213 79.5 357t214 218t300.5 74q168 0 302 -74t212.5 -218t78.5 -357t-77.5 -357.5t-212 -218.5t-303.5 -74q-168 0 -303.5 74t-213 218.5t-77.5 357.5zM283 623q0 -244 114.5 -376t307.5 -132q195 0 309 132t114 376t-115.5 375.5t-307.5 131.5 q-190 0 -306 -132t-116 -375zM649 1421q0 20 8.5 35t20.5 27l186 196q45 -2 68.5 -23.5t23.5 -49.5q0 -29 -11 -47.5t-40 -42.5l-174 -156q-39 4 -60.5 20.5t-21.5 40.5z" />
<glyph unicode="&#xd4;" horiz-adv-x="1411" d="M111 623q0 213 79.5 357t214 218t300.5 74q168 0 302 -74t212.5 -218t78.5 -357t-77.5 -357.5t-212 -218.5t-303.5 -74q-168 0 -303.5 74t-213 218.5t-77.5 357.5zM283 623q0 -244 114.5 -376t307.5 -132q195 0 309 132t114 376t-115.5 375.5t-307.5 131.5 q-190 0 -306 -132t-116 -375zM435 1417q0 25 15 43.5t38 40.5l121 121q45 45 96 45q33 0 55.5 -13.5t46.5 -39.5l168 -191q0 -31 -19.5 -50t-49.5 -19q-23 0 -43.5 12t-49.5 45l-110 127q-33 -35 -81 -85t-108 -103q-35 4 -57 21.5t-22 45.5z" />
<glyph unicode="&#xd5;" horiz-adv-x="1411" d="M111 623q0 213 79.5 357t214 218t300.5 74q168 0 302 -74t212.5 -218t78.5 -357t-77.5 -357.5t-212 -218.5t-303.5 -74q-168 0 -303.5 74t-213 218.5t-77.5 357.5zM283 623q0 -244 114.5 -376t307.5 -132q195 0 309 132t114 376t-115.5 375.5t-307.5 131.5 q-190 0 -306 -132t-116 -375zM404 1482q0 41 21.5 69t57.5 43t75 15q57 0 103 -17.5t86 -34.5t75 -17q37 0 54 22.5t26 54.5h12q37 0 65.5 -17t28.5 -60q0 -57 -41 -92t-108 -35q-57 0 -106.5 18.5t-90.5 35.5t-74 17q-37 0 -53 -22.5t-25 -57.5h-12q-37 0 -65.5 18.5 t-28.5 59.5z" />
<glyph unicode="&#xd6;" horiz-adv-x="1411" d="M111 623q0 213 79.5 357t214 218t300.5 74q168 0 302 -74t212.5 -218t78.5 -357t-77.5 -357.5t-212 -218.5t-303.5 -74q-168 0 -303.5 74t-213 218.5t-77.5 357.5zM283 623q0 -244 114.5 -376t307.5 -132q195 0 309 132t114 376t-115.5 375.5t-307.5 131.5 q-190 0 -306 -132t-116 -375zM426 1493q0 41 27.5 69.5t70.5 28.5q45 0 73.5 -28.5t28.5 -69.5q0 -39 -28.5 -68.5t-73.5 -29.5q-43 0 -70.5 29.5t-27.5 68.5zM778 1493q0 41 29.5 69.5t70.5 28.5q43 0 73 -28.5t30 -69.5q0 -39 -30 -68.5t-73 -29.5q-41 0 -70.5 29.5 t-29.5 68.5z" />
<glyph unicode="&#xd7;" horiz-adv-x="1013" d="M123 289q0 18 13.5 35.5t27.5 31.5l268 262l60 39l309 324q25 -8 49 -27.5t24 -52.5q0 -18 -10 -34.5t-24 -30.5l-250 -265l-66 -47l-317 -315q-27 10 -55.5 29.5t-28.5 50.5zM127 909q8 27 28.5 51.5t51.5 24.5q20 0 36.5 -11t26.5 -24l265 -286l47 -39l311 -336 q-8 -27 -29.5 -49.5t-54.5 -22.5q-18 0 -34.5 9.5t-26.5 21.5l-263 293l-47 37z" />
<glyph unicode="&#xd8;" horiz-adv-x="1411" d="M100 51q0 27 14.5 46.5t39.5 45.5l102 105l115 -92l-174 -189q-51 10 -74 36t-23 48zM111 623q0 213 79.5 357t214 218t300.5 74q168 0 302 -76t212.5 -221t78.5 -352q0 -213 -77.5 -357.5t-212 -218.5t-303.5 -74q-168 0 -303.5 76t-213 221.5t-77.5 352.5zM276 264 l719 803l97 -113l-746 -827zM281 623q0 -236 115.5 -372t308.5 -136q195 0 310 132t115 376q0 238 -116.5 372.5t-308.5 134.5q-190 0 -307 -132t-117 -375zM1026 1100l164 182q41 -8 68.5 -29.5t27.5 -50.5q0 -18 -11 -38.5t-40 -55.5l-115 -125z" />
<glyph unicode="&#xd9;" horiz-adv-x="1329" d="M180 430v168h166v-154q0 -164 91 -246.5t227 -82.5q135 0 226 83t91 246v154h168v-168q0 -137 -56.5 -240.5t-164.5 -160t-264 -56.5q-154 0 -262.5 56.5t-165 160t-56.5 240.5zM180 514v727q10 4 31.5 9t46.5 5q45 0 66.5 -17t21.5 -58v-666h-166zM404 1587v10 q0 33 19.5 54.5t49.5 21.5q47 0 74 -37l172 -206q-2 -33 -19.5 -51.5t-45.5 -18.5q-20 0 -36 9.5t-32 23.5l-180 180q-2 8 -2 14zM981 514v727q10 4 31.5 9t46.5 5q45 0 67.5 -17t22.5 -58v-666h-168z" />
<glyph unicode="&#xda;" horiz-adv-x="1329" d="M180 430v168h166v-154q0 -164 91 -246.5t227 -82.5q135 0 226 83t91 246v154h168v-168q0 -137 -56.5 -240.5t-164.5 -160t-264 -56.5q-154 0 -262.5 56.5t-165 160t-56.5 240.5zM180 514v727q10 4 31.5 9t46.5 5q45 0 66.5 -17t21.5 -58v-666h-166zM606 1421q0 20 8.5 35 t20.5 27l186 196q45 -2 68.5 -23.5t23.5 -49.5q0 -29 -11 -47.5t-40 -42.5l-174 -156q-39 4 -60.5 20.5t-21.5 40.5zM981 514v727q10 4 31.5 9t46.5 5q45 0 67.5 -17t22.5 -58v-666h-168z" />
<glyph unicode="&#xdb;" horiz-adv-x="1329" d="M180 430v168h166v-154q0 -164 91 -246.5t227 -82.5q135 0 226 83t91 246v154h168v-168q0 -137 -56.5 -240.5t-164.5 -160t-264 -56.5q-154 0 -262.5 56.5t-165 160t-56.5 240.5zM180 514v727q10 4 31.5 9t46.5 5q45 0 66.5 -17t21.5 -58v-666h-166zM406 1417 q0 25 15 43.5t38 40.5l121 121q45 45 96 45q33 0 55.5 -13.5t46.5 -39.5l168 -191q0 -31 -19.5 -50t-49.5 -19q-23 0 -43.5 12t-49.5 45l-110 127q-33 -35 -81 -85t-108 -103q-35 4 -57 21.5t-22 45.5zM981 514v727q10 4 31.5 9t46.5 5q45 0 67.5 -17t22.5 -58v-666h-168z " />
<glyph unicode="&#xdc;" horiz-adv-x="1329" d="M180 430v168h166v-154q0 -164 91 -246.5t227 -82.5q135 0 226 83t91 246v154h168v-168q0 -137 -56.5 -240.5t-164.5 -160t-264 -56.5q-154 0 -262.5 56.5t-165 160t-56.5 240.5zM180 514v727q10 4 31.5 9t46.5 5q45 0 66.5 -17t21.5 -58v-666h-166zM385 1493 q0 41 27.5 69.5t70.5 28.5q45 0 73.5 -28.5t28.5 -69.5q0 -39 -28.5 -68.5t-73.5 -29.5q-43 0 -70.5 29.5t-27.5 68.5zM737 1493q0 41 29.5 69.5t70.5 28.5q43 0 73 -28.5t30 -69.5q0 -39 -30 -68.5t-73 -29.5q-41 0 -70.5 29.5t-29.5 68.5zM981 514v727q10 4 31.5 9t46.5 5 q45 0 67.5 -17t22.5 -58v-666h-168z" />
<glyph unicode="&#xdd;" d="M43 1192q8 23 30.5 44t59.5 21q39 0 60.5 -20t44.5 -61q27 -47 60.5 -105.5t70.5 -123t73.5 -128t68.5 -119t56 -96.5h8q72 119 131.5 225.5t115 209t108.5 204.5q12 8 30.5 11t32.5 3q39 0 58.5 -18t19.5 -51q0 -20 -31.5 -87t-89 -166t-135.5 -224.5t-172 -264.5h-145 q-57 86 -120 181.5t-123 194t-114.5 193.5t-97.5 177zM487 66v460h166v-522q-10 -4 -31.5 -9t-43.5 -5q-45 0 -68 18.5t-23 57.5zM491 1421q0 20 8.5 35t20.5 27l186 196q45 -2 68.5 -23.5t23.5 -49.5q0 -29 -11 -47.5t-40 -42.5l-174 -156q-39 4 -60.5 20.5t-21.5 40.5z " />
<glyph unicode="&#xde;" horiz-adv-x="1177" d="M182 63q0 -37 23.5 -55t68.5 -18q23 0 44.5 5t29.5 7v328h-166v-267zM182 231h428q231 0 345 109t114 285q0 182 -113.5 287.5t-345.5 105.5h-428v-787zM182 938h166v244q0 37 -22.5 55t-67.5 18q-23 0 -44 -4t-32 -8v-305zM348 373v504h223q156 0 244 -61.5t88 -190.5 t-88 -190.5t-244 -61.5h-223z" />
<glyph unicode="&#xdf;" horiz-adv-x="1181" d="M164 59v703h164v-766q-8 -2 -28.5 -7t-43.5 -5q-45 0 -68.5 19.5t-23.5 55.5zM164 584v389q0 129 53 218t144.5 135t205.5 46q117 0 209 -46t146.5 -140t54.5 -238q0 -70 -72 -98l-90 -35q-53 -27 -74.5 -51.5t-21.5 -67.5q0 -41 24.5 -70.5t90.5 -70.5q86 -49 144 -93 t88 -96.5t30 -127.5q0 -137 -94.5 -205t-243.5 -68q-119 0 -185.5 37t-66.5 90q0 25 13 49.5t40 34.5q39 -31 88 -51.5t117 -20.5q74 0 120 38t46 98q0 55 -35 95t-137 95q-100 53 -153.5 115.5t-53.5 152.5q0 84 44 139.5t130 92.5l88 37q0 115 -68.5 190.5t-179.5 75.5 q-94 0 -165.5 -61.5t-71.5 -200.5v-387h-164z" />
<glyph unicode="&#xe0;" horiz-adv-x="1021" d="M88 266q0 133 89 204t247 85l291 29v57q0 102 -61.5 149.5t-166.5 47.5q-84 0 -160.5 -25t-136.5 -55q-16 14 -29.5 33.5t-13.5 39.5q0 53 60 82q55 29 128 44.5t154 15.5q178 0 283 -80t105 -252v-485q0 -45 -17.5 -69t-52.5 -44q-49 -27 -131 -49.5t-184 -22.5 q-193 0 -298.5 76t-105.5 219zM238 1325q0 33 22.5 53.5t55.5 20.5q23 0 40 -9.5t31 -25.5l185 -231q-2 -33 -20.5 -52.5t-47.5 -19.5q-23 0 -38.5 9.5t-31.5 23.5l-192 204q-2 8 -3 15.5t-1 11.5zM252 268q0 -76 60.5 -119t179.5 -43q86 0 142 17.5t81 34.5v297l-254 -27 q-106 -8 -157.5 -47t-51.5 -113z" />
<glyph unicode="&#xe1;" horiz-adv-x="1021" d="M88 266q0 133 89 204t247 85l291 29v57q0 102 -61.5 149.5t-166.5 47.5q-84 0 -160.5 -25t-136.5 -55q-16 14 -29.5 33.5t-13.5 39.5q0 53 60 82q55 29 128 44.5t154 15.5q178 0 283 -80t105 -252v-485q0 -45 -17.5 -69t-52.5 -44q-49 -27 -131 -49.5t-184 -22.5 q-193 0 -298.5 76t-105.5 219zM252 268q0 -76 60.5 -119t179.5 -43q86 0 142 17.5t81 34.5v297l-254 -27q-106 -8 -157.5 -47t-51.5 -113zM416 1126q0 18 10 32t20 26l199 223q45 -2 72.5 -25.5t27.5 -52.5q0 -27 -12 -45t-41 -45l-186 -182q-39 0 -64.5 21.5t-25.5 47.5z " />
<glyph unicode="&#xe2;" horiz-adv-x="1021" d="M88 266q0 133 89 204t247 85l291 29v57q0 102 -61.5 149.5t-166.5 47.5q-84 0 -160.5 -25t-136.5 -55q-16 14 -29.5 33.5t-13.5 39.5q0 53 60 82q55 29 128 44.5t154 15.5q178 0 283 -80t105 -252v-485q0 -45 -17.5 -69t-52.5 -44q-49 -27 -131 -49.5t-184 -22.5 q-193 0 -298.5 76t-105.5 219zM231 1133q0 23 13.5 40t31.5 37l125 136q27 23 48.5 35t47.5 12q33 0 54.5 -12.5t42.5 -37.5l172 -204q0 -27 -15.5 -48.5t-48.5 -21.5q-25 0 -40 11.5t-31 27.5l-134 158q-47 -57 -93 -105.5t-87 -95.5q-37 4 -61.5 22.5t-24.5 45.5zM252 268 q0 -76 60.5 -119t179.5 -43q86 0 142 17.5t81 34.5v297l-254 -27q-106 -8 -157.5 -47t-51.5 -113z" />
<glyph unicode="&#xe3;" horiz-adv-x="1021" d="M88 266q0 133 89 204t247 85l291 29v57q0 102 -61.5 149.5t-166.5 47.5q-84 0 -160.5 -25t-136.5 -55q-16 14 -29.5 33.5t-13.5 39.5q0 53 60 82q55 29 128 44.5t154 15.5q178 0 283 -80t105 -252v-485q0 -45 -17.5 -69t-52.5 -44q-49 -27 -131 -49.5t-184 -22.5 q-193 0 -298.5 76t-105.5 219zM188 1206q0 41 21.5 69t57.5 43t75 15q57 0 103 -17.5t86 -34.5t75 -17q37 0 54 22.5t26 54.5h12q37 0 65.5 -17t28.5 -60q0 -57 -41 -92t-108 -35q-57 0 -106.5 18.5t-90.5 35.5t-74 17q-37 0 -53 -22.5t-25 -57.5h-12q-37 0 -65.5 18.5 t-28.5 59.5zM252 268q0 -76 60.5 -119t179.5 -43q86 0 142 17.5t81 34.5v297l-254 -27q-106 -8 -157.5 -47t-51.5 -113z" />
<glyph unicode="&#xe4;" horiz-adv-x="1021" d="M88 266q0 133 89 204t247 85l291 29v57q0 102 -61.5 149.5t-166.5 47.5q-84 0 -160.5 -25t-136.5 -55q-16 14 -29.5 33.5t-13.5 39.5q0 53 60 82q55 29 128 44.5t154 15.5q178 0 283 -80t105 -252v-485q0 -45 -17.5 -69t-52.5 -44q-49 -27 -131 -49.5t-184 -22.5 q-193 0 -298.5 76t-105.5 219zM232 1231q0 41 27.5 69.5t70.5 28.5q45 0 73.5 -28.5t28.5 -69.5q0 -39 -28.5 -68.5t-73.5 -29.5q-43 0 -70.5 29.5t-27.5 68.5zM252 268q0 -76 60.5 -119t179.5 -43q86 0 142 17.5t81 34.5v297l-254 -27q-106 -8 -157.5 -47t-51.5 -113z M584 1231q0 41 29.5 69.5t70.5 28.5q43 0 73 -28.5t30 -69.5q0 -39 -30 -68.5t-73 -29.5q-41 0 -70.5 29.5t-29.5 68.5z" />
<glyph unicode="&#xe5;" horiz-adv-x="1021" d="M88 266q0 133 89 204t247 85l291 29v57q0 102 -61.5 149.5t-166.5 47.5q-84 0 -160.5 -25t-136.5 -55q-16 14 -29.5 33.5t-13.5 39.5q0 53 60 82q55 29 128 44.5t154 15.5q178 0 283 -80t105 -252v-485q0 -45 -17.5 -69t-52.5 -44q-49 -27 -131 -49.5t-184 -22.5 q-193 0 -298.5 76t-105.5 219zM252 268q0 -76 60.5 -119t179.5 -43q86 0 142 17.5t81 34.5v297l-254 -27q-106 -8 -157.5 -47t-51.5 -113zM301 1253q0 80 56 135.5t157 55.5q102 0 157.5 -55.5t55.5 -135.5t-55.5 -135t-157.5 -55q-100 0 -156.5 55t-56.5 135zM420 1253 q0 -45 26.5 -69.5t67.5 -24.5t68.5 24.5t27.5 69.5t-27.5 70t-68.5 25t-67.5 -25t-26.5 -70z" />
<glyph unicode="&#xe6;" horiz-adv-x="1660" d="M88 266q0 133 89 204t247 85l291 29v57q0 102 -61.5 149.5t-166.5 47.5q-84 0 -160.5 -25t-136.5 -55q-16 14 -29.5 33.5t-13.5 39.5q0 53 60 82q55 29 128 44.5t154 15.5q168 0 262.5 -81t94.5 -251v-498q0 -45 -21.5 -73.5t-56.5 -44.5q-45 -20 -109.5 -37t-166.5 -17 q-193 0 -298.5 76t-105.5 219zM252 268q0 -76 60.5 -119t179.5 -43q86 0 142 17.5t81 34.5v297l-254 -27q-106 -8 -157.5 -47t-51.5 -113zM729 479q0 156 53.5 265.5t148.5 169t222 59.5q125 0 220 -53.5t149.5 -148.5t54.5 -218q0 -45 -20.5 -64.5t-57.5 -23.5l-688 -96 l-8 129l618 84q-10 113 -78.5 185.5t-191.5 72.5q-129 0 -211 -91.5t-82 -261.5v-45q12 -164 105.5 -248.5t255.5 -84.5q86 0 155.5 28.5t112.5 61.5q23 -14 36 -34t13 -44q0 -39 -44 -73t-117 -54.5t-163 -20.5q-223 0 -341.5 122t-118.5 319q0 10 -11.5 31.5t-11.5 33.5z " />
<glyph unicode="&#xe7;" horiz-adv-x="978" d="M100 471q0 166 65.5 277.5t177.5 168t245 56.5q127 0 210 -43t83 -99q0 -25 -14.5 -43t-37.5 -28q-45 31 -99 53.5t-138 22.5q-139 0 -231.5 -94.5t-92.5 -270.5q0 -174 89 -268t235 -94q86 0 143.5 23.5t102.5 53.5q23 -12 37 -30.5t14 -44.5q0 -57 -85 -97.5 t-212 -40.5q-141 0 -253 54.5t-175.5 165t-63.5 278.5zM393 -313q0 29 12 49h31q74 0 107.5 31.5t33.5 85.5q0 35 -15 75.5t-50 75.5l102 31q57 -39 82 -92.5t25 -116.5q0 -98 -61.5 -155.5t-159.5 -57.5q-51 0 -79 19.5t-28 54.5z" />
<glyph unicode="&#xe8;" horiz-adv-x="1062" d="M100 479q0 117 34 208t94.5 154.5t144.5 97.5t182 34q125 0 220 -53.5t149.5 -148.5t54.5 -218q0 -45 -20.5 -64.5t-57.5 -23.5l-688 -96l-8 129l618 84q-8 113 -77.5 185.5t-192.5 72.5q-127 0 -210 -91.5t-83 -261.5v-45q14 -164 107.5 -248.5t255.5 -84.5 q86 0 155.5 28.5t110.5 61.5q23 -14 36 -34t13 -44q0 -39 -44 -73t-116.5 -54.5t-163.5 -20.5q-158 0 -273.5 57.5t-178 171t-62.5 277.5zM285 1325q0 33 22.5 53.5t55.5 20.5q23 0 40 -9.5t31 -25.5l185 -231q-2 -33 -20.5 -52.5t-47.5 -19.5q-23 0 -38.5 9.5t-31.5 23.5 l-192 204q-2 8 -3 15.5t-1 11.5z" />
<glyph unicode="&#xe9;" horiz-adv-x="1062" d="M100 479q0 117 34 208t94.5 154.5t144.5 97.5t182 34q125 0 220 -53.5t149.5 -148.5t54.5 -218q0 -45 -20.5 -64.5t-57.5 -23.5l-688 -96l-8 129l618 84q-8 113 -77.5 185.5t-192.5 72.5q-127 0 -210 -91.5t-83 -261.5v-45q14 -164 107.5 -248.5t255.5 -84.5 q86 0 155.5 28.5t110.5 61.5q23 -14 36 -34t13 -44q0 -39 -44 -73t-116.5 -54.5t-163.5 -20.5q-158 0 -273.5 57.5t-178 171t-62.5 277.5zM498 1126q0 18 10 32t20 26l199 223q45 -2 72.5 -25.5t27.5 -52.5q0 -27 -12 -45t-41 -45l-186 -182q-39 0 -64.5 21.5t-25.5 47.5z " />
<glyph unicode="&#xea;" horiz-adv-x="1062" d="M100 479q0 117 34 208t94.5 154.5t144.5 97.5t182 34q125 0 220 -53.5t149.5 -148.5t54.5 -218q0 -45 -20.5 -64.5t-57.5 -23.5l-688 -96l-8 129l618 84q-8 113 -77.5 185.5t-192.5 72.5q-127 0 -210 -91.5t-83 -261.5v-45q14 -164 107.5 -248.5t255.5 -84.5 q86 0 155.5 28.5t110.5 61.5q23 -14 36 -34t13 -44q0 -39 -44 -73t-116.5 -54.5t-163.5 -20.5q-158 0 -273.5 57.5t-178 171t-62.5 277.5zM291 1133q0 23 13.5 40t31.5 37l125 136q27 23 48.5 35t47.5 12q33 0 54.5 -12.5t42.5 -37.5l172 -204q0 -27 -15.5 -48.5 t-48.5 -21.5q-25 0 -40 11.5t-31 27.5l-134 158q-47 -57 -93 -105.5t-87 -95.5q-37 4 -61.5 22.5t-24.5 45.5z" />
<glyph unicode="&#xeb;" horiz-adv-x="1062" d="M100 479q0 117 34 208t94.5 154.5t144.5 97.5t182 34q125 0 220 -53.5t149.5 -148.5t54.5 -218q0 -45 -20.5 -64.5t-57.5 -23.5l-688 -96l-8 129l618 84q-8 113 -77.5 185.5t-192.5 72.5q-127 0 -210 -91.5t-83 -261.5v-45q14 -164 107.5 -248.5t255.5 -84.5 q86 0 155.5 28.5t110.5 61.5q23 -14 36 -34t13 -44q0 -39 -44 -73t-116.5 -54.5t-163.5 -20.5q-158 0 -273.5 57.5t-178 171t-62.5 277.5zM275 1231q0 41 27.5 69.5t70.5 28.5q45 0 73.5 -28.5t28.5 -69.5q0 -39 -28.5 -68.5t-73.5 -29.5q-43 0 -70.5 29.5t-27.5 68.5z M627 1231q0 41 29.5 69.5t70.5 28.5q43 0 73 -28.5t30 -69.5q0 -39 -30 -68.5t-73 -29.5q-41 0 -70.5 29.5t-29.5 68.5z" />
<glyph unicode="&#xec;" horiz-adv-x="493" d="M-25 1325q0 33 22.5 53.5t55.5 20.5q23 0 40.5 -9.5t31.5 -25.5l184 -231q-2 -33 -20.5 -52.5t-46.5 -19.5q-23 0 -38.5 9.5t-31.5 23.5l-192 204q-2 8 -3.5 15.5t-1.5 11.5zM164 59v643h164v-706q-8 -2 -28.5 -7t-43.5 -5q-45 0 -68.5 19.5t-23.5 55.5zM164 598v342 q10 4 30.5 8t43.5 4q45 0 67.5 -19.5t22.5 -55.5v-279h-164z" />
<glyph unicode="&#xed;" horiz-adv-x="493" d="M164 59v643h164v-706q-8 -2 -28.5 -7t-43.5 -5q-45 0 -68.5 19.5t-23.5 55.5zM164 598v342q10 4 30.5 8t43.5 4q45 0 67.5 -19.5t22.5 -55.5v-279h-164zM182 1126q0 18 10.5 32t20.5 26l199 223q45 -2 72.5 -25.5t27.5 -52.5q0 -27 -12.5 -45t-40.5 -45l-187 -182 q-39 0 -64.5 21.5t-25.5 47.5z" />
<glyph unicode="&#xee;" horiz-adv-x="493" d="M-14 1133q0 23 13 40t32 37l125 136q27 23 48 35t48 12q33 0 54.5 -12.5t41.5 -37.5l172 -204q0 -27 -15.5 -48.5t-47.5 -21.5q-25 0 -40.5 11.5t-31.5 27.5l-133 158q-47 -57 -93 -105.5t-87 -95.5q-37 4 -61.5 22.5t-24.5 45.5zM164 59v643h164v-706q-8 -2 -28.5 -7 t-43.5 -5q-45 0 -68.5 19.5t-23.5 55.5zM164 598v342q10 4 30.5 8t43.5 4q45 0 67.5 -19.5t22.5 -55.5v-279h-164z" />
<glyph unicode="&#xef;" horiz-adv-x="493" d="M-31 1231q0 41 28 69.5t71 28.5q45 0 73.5 -28.5t28.5 -69.5q0 -39 -28.5 -68.5t-73.5 -29.5q-43 0 -71 29.5t-28 68.5zM164 59v643h164v-706q-8 -2 -28.5 -7t-43.5 -5q-45 0 -68.5 19.5t-23.5 55.5zM164 598v342q10 4 30.5 8t43.5 4q45 0 67.5 -19.5t22.5 -55.5v-279 h-164zM322 1231q0 41 29.5 69.5t70.5 28.5q43 0 72.5 -28.5t29.5 -69.5q0 -39 -29.5 -68.5t-72.5 -29.5q-41 0 -70.5 29.5t-29.5 68.5z" />
<glyph unicode="&#xf0;" horiz-adv-x="1099" d="M100 438q0 158 61.5 258.5t160 148.5t208.5 48q115 0 198 -48t134 -124l-26 -129q-45 78 -117 122t-160 44q-145 0 -218 -86t-73 -234q0 -150 78 -239.5t211 -89.5q137 0 205.5 93t68.5 249q0 70 -5 126t-15 109q-4 33 -5 43t-3 17.5t-10 25.5q-39 94 -89.5 174 t-121.5 141q-18 16 -26.5 27.5t-27.5 26.5q-53 41 -111.5 66.5t-119.5 43.5q0 39 21.5 69t64.5 30q61 0 138 -38t153 -100q14 -12 17 -14t18 -16q76 -76 141 -182.5t106 -235.5t41 -275q0 -170 -53 -284.5t-151.5 -173t-237.5 -58.5q-207 0 -331 124t-124 341zM330 1057 q0 43 51 61l190 72l50 12l245 96q20 -14 36 -33.5t16 -47.5q0 -29 -12.5 -42.5t-39.5 -23.5l-125 -47l-51 -19l-311 -110q-20 12 -34.5 33.5t-14.5 48.5z" />
<glyph unicode="&#xf1;" horiz-adv-x="1146" d="M174 63v465h163v-524q-10 -4 -30.5 -9t-44.5 -5q-43 0 -65.5 17.5t-22.5 55.5zM174 416v346q0 43 17 70.5t60 54.5q53 31 141.5 58.5t198.5 27.5q186 0 294 -85t108 -263v-209h-164v200q0 115 -64.5 168.5t-173.5 53.5q-82 0 -145.5 -20.5t-108.5 -47.5v-354h-163z M262 1206q0 41 21.5 69t57.5 43t75 15q57 0 103 -17.5t86 -34.5t75 -17q37 0 54 22.5t26 54.5h12q37 0 65.5 -17t28.5 -60q0 -57 -41 -92t-108 -35q-57 0 -106.5 18.5t-90.5 35.5t-74 17q-37 0 -53 -22.5t-25 -57.5h-12q-37 0 -65.5 18.5t-28.5 59.5zM829 63v465h164v-524 q-10 -4 -31.5 -9t-44.5 -5q-45 0 -66.5 17.5t-21.5 55.5z" />
<glyph unicode="&#xf2;" horiz-adv-x="1132" d="M100 473q0 154 58.5 265.5t164 173t244.5 61.5t243.5 -61.5t163 -173t58.5 -265.5q0 -152 -57 -264.5t-161.5 -174t-246.5 -61.5q-141 0 -246.5 61.5t-163 174.5t-57.5 264zM268 473q0 -172 79 -268t220 -96q139 0 218 97t79 267t-79 267.5t-218 97.5q-137 0 -218 -97.5 t-81 -267.5zM301 1325q0 33 22.5 53.5t55.5 20.5q23 0 40 -9.5t31 -25.5l185 -231q-2 -33 -20.5 -52.5t-47.5 -19.5q-23 0 -38.5 9.5t-31.5 23.5l-192 204q-2 8 -3 15.5t-1 11.5z" />
<glyph unicode="&#xf3;" horiz-adv-x="1132" d="M100 473q0 154 58.5 265.5t164 173t244.5 61.5t243.5 -61.5t163 -173t58.5 -265.5q0 -152 -57 -264.5t-161.5 -174t-246.5 -61.5q-141 0 -246.5 61.5t-163 174.5t-57.5 264zM268 473q0 -172 79 -268t220 -96q139 0 218 97t79 267t-79 267.5t-218 97.5q-137 0 -218 -97.5 t-81 -267.5zM531 1126q0 18 10 32t20 26l199 223q45 -2 72.5 -25.5t27.5 -52.5q0 -27 -12 -45t-41 -45l-186 -182q-39 0 -64.5 21.5t-25.5 47.5z" />
<glyph unicode="&#xf4;" horiz-adv-x="1132" d="M100 473q0 154 58.5 265.5t164 173t244.5 61.5t243.5 -61.5t163 -173t58.5 -265.5q0 -152 -57 -264.5t-161.5 -174t-246.5 -61.5q-141 0 -246.5 61.5t-163 174.5t-57.5 264zM268 473q0 -172 79 -268t220 -96q139 0 218 97t79 267t-79 267.5t-218 97.5q-137 0 -218 -97.5 t-81 -267.5zM301 1133q0 23 13.5 40t31.5 37l125 136q27 23 48.5 35t47.5 12q33 0 54.5 -12.5t42.5 -37.5l172 -204q0 -27 -15.5 -48.5t-48.5 -21.5q-25 0 -40 11.5t-31 27.5l-134 158q-47 -57 -93 -105.5t-87 -95.5q-37 4 -61.5 22.5t-24.5 45.5z" />
<glyph unicode="&#xf5;" horiz-adv-x="1132" d="M100 473q0 154 58.5 265.5t164 173t244.5 61.5t243.5 -61.5t163 -173t58.5 -265.5q0 -152 -57 -264.5t-161.5 -174t-246.5 -61.5q-141 0 -246.5 61.5t-163 174.5t-57.5 264zM268 473q0 -172 79 -268t220 -96q139 0 218 97t79 267t-79 267.5t-218 97.5q-137 0 -218 -97.5 t-81 -267.5zM268 1206q0 41 21.5 69t57.5 43t75 15q57 0 103 -17.5t86 -34.5t75 -17q37 0 54 22.5t26 54.5h12q37 0 65.5 -17t28.5 -60q0 -57 -41 -92t-108 -35q-57 0 -106.5 18.5t-90.5 35.5t-74 17q-37 0 -53 -22.5t-25 -57.5h-12q-37 0 -65.5 18.5t-28.5 59.5z" />
<glyph unicode="&#xf6;" horiz-adv-x="1132" d="M100 473q0 154 58.5 265.5t164 173t244.5 61.5t243.5 -61.5t163 -173t58.5 -265.5q0 -152 -57 -264.5t-161.5 -174t-246.5 -61.5q-141 0 -246.5 61.5t-163 174.5t-57.5 264zM268 473q0 -172 79 -268t220 -96q139 0 218 97t79 267t-79 267.5t-218 97.5q-137 0 -218 -97.5 t-81 -267.5zM291 1231q0 41 27.5 69.5t70.5 28.5q45 0 73.5 -28.5t28.5 -69.5q0 -39 -28.5 -68.5t-73.5 -29.5q-43 0 -70.5 29.5t-27.5 68.5zM643 1231q0 41 29.5 69.5t70.5 28.5q43 0 73 -28.5t30 -69.5q0 -39 -30 -68.5t-73 -29.5q-41 0 -70.5 29.5t-29.5 68.5z" />
<glyph unicode="&#xf7;" horiz-adv-x="1069" d="M104 610q0 35 19.5 52.5t52.5 17.5h774q6 -12 10.5 -28.5t4.5 -35.5q0 -33 -18.5 -52t-53.5 -19h-774q-6 14 -10.5 29.5t-4.5 35.5zM430 276q0 47 29.5 78t79.5 31q49 0 78.5 -30.5t29.5 -78.5q0 -45 -29.5 -76.5t-78.5 -31.5t-79 31.5t-30 76.5zM430 940q0 47 29.5 78 t79.5 31q49 0 78.5 -31t29.5 -78t-29.5 -78t-78.5 -31t-79 31t-30 78z" />
<glyph unicode="&#xf8;" horiz-adv-x="1132" d="M100 473q0 154 58.5 265.5t164 173t244.5 61.5t243.5 -61.5t163 -173t58.5 -265.5q0 -152 -57 -264.5t-161.5 -174t-246.5 -61.5q-141 0 -246.5 61.5t-163 174.5t-57.5 264zM145 -53q0 18 13 37l88 127l121 -60l-119 -176q-31 0 -54.5 9.5t-36 25.5t-12.5 37zM264 473 q0 -172 81 -268t222 -96q139 0 220 96t81 268q0 170 -81 267.5t-220 97.5q-137 0 -220 -97.5t-83 -267.5zM322 213l389 604l114 -53l-426 -668zM772 907l109 164q29 0 51 -8t35.5 -24.5t13.5 -41.5q0 -14 -12 -32l-99 -148z" />
<glyph unicode="&#xf9;" d="M154 346v186h163v-178q0 -131 70 -188t193 -57q82 0 139 17t90 36v370h164v-364q0 -43 -11.5 -68.5t-54.5 -50.5q-45 -27 -129 -51.5t-200 -24.5q-135 0 -230.5 40t-144.5 123t-49 210zM154 426v516q10 4 31.5 9t45.5 5q43 0 64.5 -17t21.5 -58v-455h-163zM291 1325 q0 33 22.5 53.5t55.5 20.5q23 0 40 -9.5t31 -25.5l185 -231q-2 -33 -20.5 -52.5t-47.5 -19.5q-23 0 -38.5 9.5t-31.5 23.5l-192 204q-2 8 -3 15.5t-1 11.5zM809 426v516q10 4 31.5 9t44.5 5q45 0 66.5 -17t21.5 -58v-455h-164z" />
<glyph unicode="&#xfa;" d="M154 346v186h163v-178q0 -131 70 -188t193 -57q82 0 139 17t90 36v370h164v-364q0 -43 -11.5 -68.5t-54.5 -50.5q-45 -27 -129 -51.5t-200 -24.5q-135 0 -230.5 40t-144.5 123t-49 210zM154 426v516q10 4 31.5 9t45.5 5q43 0 64.5 -17t21.5 -58v-455h-163zM500 1126 q0 18 10 32t20 26l199 223q45 -2 72.5 -25.5t27.5 -52.5q0 -27 -12 -45t-41 -45l-186 -182q-39 0 -64.5 21.5t-25.5 47.5zM809 426v516q10 4 31.5 9t44.5 5q45 0 66.5 -17t21.5 -58v-455h-164z" />
<glyph unicode="&#xfb;" d="M154 346v186h163v-178q0 -131 70 -188t193 -57q82 0 139 17t90 36v370h164v-364q0 -43 -11.5 -68.5t-54.5 -50.5q-45 -27 -129 -51.5t-200 -24.5q-135 0 -230.5 40t-144.5 123t-49 210zM154 426v516q10 4 31.5 9t45.5 5q43 0 64.5 -17t21.5 -58v-455h-163zM303 1133 q0 23 13.5 40t31.5 37l125 136q27 23 48.5 35t47.5 12q33 0 54.5 -12.5t42.5 -37.5l172 -204q0 -27 -15.5 -48.5t-48.5 -21.5q-25 0 -40 11.5t-31 27.5l-134 158q-47 -57 -93 -105.5t-87 -95.5q-37 4 -61.5 22.5t-24.5 45.5zM809 426v516q10 4 31.5 9t44.5 5q45 0 66.5 -17 t21.5 -58v-455h-164z" />
<glyph unicode="&#xfc;" d="M154 346v186h163v-178q0 -131 70 -188t193 -57q82 0 139 17t90 36v370h164v-364q0 -43 -11.5 -68.5t-54.5 -50.5q-45 -27 -129 -51.5t-200 -24.5q-135 0 -230.5 40t-144.5 123t-49 210zM154 426v516q10 4 31.5 9t45.5 5q43 0 64.5 -17t21.5 -58v-455h-163zM283 1231 q0 41 27.5 69.5t70.5 28.5q45 0 73.5 -28.5t28.5 -69.5q0 -39 -28.5 -68.5t-73.5 -29.5q-43 0 -70.5 29.5t-27.5 68.5zM635 1231q0 41 29.5 69.5t70.5 28.5q43 0 73 -28.5t30 -69.5q0 -39 -30 -68.5t-73 -29.5q-41 0 -70.5 29.5t-29.5 68.5zM809 426v516q10 4 31.5 9t44.5 5 q45 0 66.5 -17t21.5 -58v-455h-164z" />
<glyph unicode="&#xfd;" horiz-adv-x="1001" d="M61 920q14 20 38 32.5t51 12.5q35 0 57 -18.5t37 -61.5q61 -172 128.5 -342t149.5 -353h8q43 86 90.5 215.5t90.5 272.5t71 270q14 6 31.5 11.5t38.5 5.5q35 0 57.5 -17.5t22.5 -52.5q0 -33 -18.5 -109.5t-50.5 -178t-73.5 -215t-90 -223.5t-97.5 -198 q-94 -174 -172 -267t-143 -93q-47 0 -73 24.5t-32 57.5q45 39 101.5 103.5t108.5 139t85 142.5q-35 10 -64.5 36.5t-66.5 96.5q-35 66 -84 177.5t-101 249.5t-100 282zM445 1126q0 18 10 32t20 26l199 223q45 -2 72.5 -25.5t27.5 -52.5q0 -27 -12 -45t-41 -45l-186 -182 q-39 0 -64.5 21.5t-25.5 47.5z" />
<glyph unicode="&#xfe;" horiz-adv-x="1132" d="M158 106v1223q10 4 31.5 8t43.5 4q45 0 67 -19t22 -54v-1162h-164zM158 158l164 -4v-523q-10 -4 -30.5 -9t-45.5 -5q-43 0 -65.5 18.5t-22.5 57.5v465zM258 891q41 27 119 54.5t174 27.5q131 0 237.5 -52.5t170 -162t63.5 -283.5q0 -168 -58.5 -279.5t-163 -167 t-239.5 -55.5q-88 0 -165 26t-111 56v152q41 -39 103.5 -68.5t150.5 -29.5q143 0 230 87t87 279q0 135 -44 214t-116.5 114t-156.5 35q-74 0 -129.5 -18.5t-96.5 -43.5z" />
<glyph unicode="&#xff;" horiz-adv-x="1001" d="M61 920q14 20 38 32.5t51 12.5q35 0 57 -18.5t37 -61.5q61 -172 128.5 -342t149.5 -353h8q43 86 90.5 215.5t90.5 272.5t71 270q14 6 31.5 11.5t38.5 5.5q35 0 57.5 -17.5t22.5 -52.5q0 -33 -18.5 -109.5t-50.5 -178t-73.5 -215t-90 -223.5t-97.5 -198 q-94 -174 -172 -267t-143 -93q-47 0 -73 24.5t-32 57.5q45 39 101.5 103.5t108.5 139t85 142.5q-35 10 -64.5 36.5t-66.5 96.5q-35 66 -84 177.5t-101 249.5t-100 282zM226 1231q0 41 27.5 69.5t70.5 28.5q45 0 73.5 -28.5t28.5 -69.5q0 -39 -28.5 -68.5t-73.5 -29.5 q-43 0 -70.5 29.5t-27.5 68.5zM578 1231q0 41 29.5 69.5t70.5 28.5q43 0 73 -28.5t30 -69.5q0 -39 -30 -68.5t-73 -29.5q-41 0 -70.5 29.5t-29.5 68.5z" />
<glyph unicode="&#x152;" horiz-adv-x="1951" d="M109 623q0 213 76.5 357t206.5 218t290 74q102 0 193.5 -32t164 -105.5t113.5 -198.5t41 -313q0 -231 -66.5 -375t-182 -209.5t-265.5 -65.5q-162 0 -291 73t-204.5 217.5t-75.5 359.5zM281 623q0 -244 111.5 -376t291.5 -132q201 0 311.5 132t110.5 376 q0 254 -119 380.5t-303 126.5q-178 0 -290.5 -132t-112.5 -375zM1047 178v572h167v-734q-10 -2 -31 -9t-44 -7q-43 0 -66.5 25.5t-23.5 64.5zM1047 510v563l2 82q0 41 23.5 65.5t66.5 24.5q23 0 44 -6t31 -10v-721zM1137 569v140h616q6 -8 13.5 -26.5t7.5 -39.5 q0 -33 -17.5 -53.5t-46.5 -20.5h-573zM1139 0v139h688q6 -8 12 -25.5t6 -39.5q0 -33 -16.5 -53.5t-46.5 -20.5h-643zM1139 1104v141h678q6 -8 12 -26.5t6 -38.5q0 -33 -16.5 -54.5t-46.5 -21.5h-633z" />
<glyph unicode="&#x153;" horiz-adv-x="1816" d="M100 473q0 154 57.5 265.5t161 173t242.5 61.5q135 0 235.5 -58.5t157 -170t56.5 -271.5q0 -156 -55.5 -267.5t-156 -172t-237.5 -60.5q-141 0 -244.5 61.5t-160 174.5t-56.5 264zM268 473q0 -172 79 -268t220 -96q139 0 218 97t79 267t-79 267.5t-218 97.5 q-137 0 -218 -97.5t-81 -267.5zM877 479q0 158 55 268.5t153.5 168t225.5 57.5q123 0 219 -53.5t150.5 -148.5t54.5 -218q0 -45 -21.5 -64.5t-58.5 -23.5l-688 -96l-9 129l621 84q-10 113 -78.5 185.5t-191.5 72.5q-129 0 -212 -91.5t-83 -261.5l2 -45q12 -164 105 -248.5 t255 -84.5q86 0 156 28.5t110 61.5q23 -14 37.5 -34t14.5 -44q0 -39 -44 -73t-118 -54.5t-164 -20.5q-223 0 -357 123t-134 383z" />
<glyph unicode="&#x178;" d="M43 1192q8 23 30.5 44t59.5 21q39 0 60.5 -20t44.5 -61q27 -47 60.5 -105.5t70.5 -123t73.5 -128t68.5 -119t56 -96.5h8q72 119 131.5 225.5t115 209t108.5 204.5q12 8 30.5 11t32.5 3q39 0 58.5 -18t19.5 -51q0 -20 -31.5 -87t-89 -166t-135.5 -224.5t-172 -264.5h-145 q-57 86 -120 181.5t-123 194t-114.5 193.5t-97.5 177zM295 1493q0 41 27.5 69.5t70.5 28.5q45 0 73.5 -28.5t28.5 -69.5q0 -39 -28.5 -68.5t-73.5 -29.5q-43 0 -70.5 29.5t-27.5 68.5zM487 66v460h166v-522q-10 -4 -31.5 -9t-43.5 -5q-45 0 -68 18.5t-23 57.5zM647 1493 q0 41 29.5 69.5t70.5 28.5q43 0 73 -28.5t30 -69.5q0 -39 -30 -68.5t-73 -29.5q-41 0 -70.5 29.5t-29.5 68.5z" />
<glyph unicode="&#x2c6;" horiz-adv-x="712" d="M94 1133q0 23 13.5 40t31.5 37l125 136q27 23 48.5 35t47.5 12q33 0 54.5 -12.5t42.5 -37.5l172 -204q0 -27 -15.5 -48.5t-48.5 -21.5q-25 0 -40 11.5t-31 27.5l-134 158q-47 -57 -93 -105.5t-87 -95.5q-37 4 -61.5 22.5t-24.5 45.5z" />
<glyph unicode="&#x2dc;" horiz-adv-x="765" d="M82 1206q0 41 21.5 69t57.5 43t75 15q57 0 103 -17.5t86 -34.5t75 -17q37 0 54 22.5t26 54.5h12q37 0 65.5 -17t28.5 -60q0 -57 -41 -92t-108 -35q-57 0 -106.5 18.5t-90.5 35.5t-74 17q-37 0 -53 -22.5t-25 -57.5h-12q-37 0 -65.5 18.5t-28.5 59.5z" />
<glyph unicode="&#x2000;" horiz-adv-x="855" />
<glyph unicode="&#x2001;" horiz-adv-x="1710" />
<glyph unicode="&#x2002;" horiz-adv-x="855" />
<glyph unicode="&#x2003;" horiz-adv-x="1710" />
<glyph unicode="&#x2004;" horiz-adv-x="570" />
<glyph unicode="&#x2005;" horiz-adv-x="427" />
<glyph unicode="&#x2006;" horiz-adv-x="285" />
<glyph unicode="&#x2007;" horiz-adv-x="285" />
<glyph unicode="&#x2008;" horiz-adv-x="213" />
<glyph unicode="&#x2009;" horiz-adv-x="342" />
<glyph unicode="&#x200a;" horiz-adv-x="95" />
<glyph unicode="&#x2010;" horiz-adv-x="796" d="M111 532q0 35 19.5 52.5t51.5 17.5h490q4 -12 9 -28.5t5 -34.5q0 -33 -18.5 -52.5t-53.5 -19.5h-489q-6 14 -10 29.5t-4 35.5z" />
<glyph unicode="&#x2011;" horiz-adv-x="796" d="M111 532q0 35 19.5 52.5t51.5 17.5h490q4 -12 9 -28.5t5 -34.5q0 -33 -18.5 -52.5t-53.5 -19.5h-489q-6 14 -10 29.5t-4 35.5z" />
<glyph unicode="&#x2012;" horiz-adv-x="796" d="M111 532q0 35 19.5 52.5t51.5 17.5h490q4 -12 9 -28.5t5 -34.5q0 -33 -18.5 -52.5t-53.5 -19.5h-489q-6 14 -10 29.5t-4 35.5z" />
<glyph unicode="&#x2013;" horiz-adv-x="1093" d="M111 532q0 35 18 52.5t53 17.5h789q4 -12 8 -28.5t4 -34.5q0 -33 -17.5 -52.5t-52.5 -19.5h-790q-4 14 -8 29.5t-4 35.5z" />
<glyph unicode="&#x2014;" horiz-adv-x="1570" d="M111 539q0 35 19.5 52t51.5 17h1266q4 -12 8 -28.5t4 -34.5q0 -33 -18 -52.5t-53 -19.5h-1264q-6 14 -10 29.5t-4 36.5z" />
<glyph unicode="&#x2018;" horiz-adv-x="264" d="M33 920q0 41 12 102t29.5 119.5t29.5 87.5t30 42t46 13q16 0 34.5 -6t29.5 -16q-8 -51 -20.5 -123t-21.5 -148t-14 -137q-18 -8 -35.5 -11t-39.5 -3q-37 0 -58.5 19.5t-21.5 60.5z" />
<glyph unicode="&#x2019;" horiz-adv-x="260" d="M20 862q10 51 21.5 123t21 146.5t13.5 136.5q18 6 36.5 9t41.5 3q35 0 56 -19.5t21 -60.5q0 -39 -12 -100.5t-28.5 -117.5t-28.5 -87q-14 -29 -30.5 -42t-45.5 -13q-18 0 -35.5 7t-30.5 15z" />
<glyph unicode="&#x201a;" horiz-adv-x="268" d="M20 -281q10 51 21.5 123t21 146.5t13.5 136.5q18 6 36.5 9t41.5 3q35 0 56 -19.5t21 -60.5q0 -39 -12 -100.5t-28.5 -117.5t-28.5 -87q-14 -29 -30.5 -42t-45.5 -13q-18 0 -35.5 7t-30.5 15z" />
<glyph unicode="&#x201c;" horiz-adv-x="538" d="M33 920q0 41 12 102t28.5 119.5t28.5 87.5t28.5 42t45.5 13q16 0 32.5 -6t29.5 -16q-8 -51 -20.5 -123t-22 -148t-13.5 -137q-18 -8 -34.5 -11t-38.5 -3q-37 0 -56.5 19.5t-19.5 60.5zM313 920q0 41 12.5 102t28 119.5t27.5 87.5t29.5 42t44.5 13q18 0 34.5 -6t26.5 -16 q-8 -51 -19.5 -123t-20.5 -148t-13 -137q-20 -8 -36.5 -11t-39.5 -3q-37 0 -55.5 19.5t-18.5 60.5z" />
<glyph unicode="&#x201d;" horiz-adv-x="538" d="M20 862q10 51 21.5 123t21 146.5t13.5 136.5q18 6 35.5 9t38.5 3q37 0 56 -19.5t19 -60.5q0 -39 -12 -100.5t-27.5 -117.5t-29.5 -87q-12 -29 -27.5 -42t-44.5 -13q-18 0 -34.5 7t-29.5 15zM301 862q10 51 21.5 123t20.5 146.5t13 136.5q18 6 35 9t39 3q37 0 55.5 -19.5 t18.5 -60.5q0 -39 -11.5 -100.5t-28 -117.5t-28.5 -87q-12 -29 -28.5 -42t-45.5 -13q-18 0 -34.5 7t-26.5 15z" />
<glyph unicode="&#x201e;" horiz-adv-x="538" d="M20 -281q10 51 21.5 123t21 146.5t13.5 136.5q18 6 35.5 9t38.5 3q37 0 56 -19.5t19 -60.5q0 -39 -12 -100.5t-27.5 -117.5t-29.5 -87q-12 -29 -27.5 -42t-44.5 -13q-18 0 -34.5 7t-29.5 15zM301 -281q10 51 21.5 123t20.5 146.5t13 136.5q18 6 35 9t39 3 q37 0 55.5 -19.5t18.5 -60.5q0 -39 -11.5 -100.5t-28 -117.5t-28.5 -87q-12 -29 -28.5 -42t-45.5 -13q-18 0 -34.5 7t-26.5 15z" />
<glyph unicode="&#x2022;" horiz-adv-x="538" d="M100 578q0 68 46.5 117.5t121.5 49.5q76 0 122 -50t46 -117q0 -68 -46 -117t-122 -49t-122 49t-46 117z" />
<glyph unicode="&#x2026;" horiz-adv-x="960" d="M33 86q0 49 29.5 82t82.5 33t82 -33t29 -82q0 -47 -28.5 -80t-82.5 -33q-53 0 -82.5 33t-29.5 80zM369 86q0 49 28.5 82t81.5 33t83 -33t30 -82q0 -47 -30 -80t-83 -33t-81.5 33t-28.5 80zM702 86q0 49 30 82t83 33t83 -33t30 -82q0 -47 -30 -80t-83 -33t-83 33t-30 80z " />
<glyph unicode="&#x202f;" horiz-adv-x="342" />
<glyph unicode="&#x2039;" horiz-adv-x="571" d="M72 463q0 33 8 50t22 30l297 309q41 -8 60.5 -27.5t19.5 -46.5q0 -25 -13 -44t-42 -50l-217 -223l282 -293q0 -31 -19 -56.5t-58 -25.5q-27 0 -49.5 17.5t-43.5 37.5l-227 252q-8 14 -14 31.5t-6 38.5z" />
<glyph unicode="&#x203a;" horiz-adv-x="571" d="M82 770q0 31 19.5 56.5t56.5 25.5q29 0 51 -16.5t41 -38.5l229 -252q10 -14 15.5 -30.5t5.5 -39.5q0 -33 -8.5 -50t-24.5 -30l-297 -309q-39 10 -58.5 28.5t-19.5 45.5q0 25 13.5 44t41.5 50l215 223z" />
<glyph unicode="&#x205f;" horiz-adv-x="427" />
<glyph unicode="&#x20ac;" horiz-adv-x="1257" d="M55 487q0 35 15.5 48.5t33.5 13.5h846q6 -14 11.5 -30.5t5.5 -35.5q0 -29 -13 -45t-36 -16h-842q-8 10 -14.5 27.5t-6.5 37.5zM55 745q0 37 15.5 50.5t33.5 13.5h846q6 -14 11.5 -30.5t5.5 -35.5q0 -29 -13 -45t-36 -16h-842q-8 10 -14.5 26.5t-6.5 36.5zM197 510 l176 -61q41 -168 153.5 -252t274.5 -84q109 0 187.5 31.5t129.5 70.5q23 -8 41.5 -29.5t18.5 -50.5q0 -20 -12.5 -39.5t-37.5 -38.5q-47 -33 -130 -58.5t-207 -25.5q-156 0 -283 60.5t-209 179.5t-102 297zM203 766q29 168 111.5 279.5t204.5 169t265 57.5q113 0 199 -24.5 t134 -62.5t48 -77q0 -27 -17.5 -48.5t-41.5 -31.5q-51 37 -124 71t-187 34q-96 0 -184.5 -38t-151.5 -117t-90 -204z" />
<glyph unicode="&#x2122;" horiz-adv-x="1366" d="M78 1188q0 33 15.5 45t35.5 12h444q6 -8 11.5 -23.5t5.5 -31.5q0 -31 -13.5 -40t-35.5 -9h-150v-475q-8 -2 -22.5 -4.5t-34.5 -2.5q-35 0 -49.5 14.5t-14.5 55.5v412h-178q-4 8 -9 20.5t-5 26.5zM633 717l26 510q10 10 32 19t50 9q35 0 54.5 -11t27.5 -30l123 -278 l125 311q10 4 26.5 6t39.5 2q37 0 60.5 -12t25.5 -35t6 -74t9 -116.5t10 -133t8.5 -122.5t5.5 -86q-8 -6 -21.5 -11.5t-36.5 -5.5q-29 0 -47 13.5t-20 44.5q-4 70 -6.5 159t-8.5 226l-112 -277q-10 -8 -24.5 -13t-37.5 -5q-27 0 -45 8t-24 25l-111 262l-8 -434 q-10 -2 -24.5 -5.5t-33.5 -3.5q-35 0 -52 13.5t-17 44.5z" />
<glyph unicode="&#x25fc;" horiz-adv-x="962" d="M0 0v963h963v-963h-963z" />
</font>
</defs>
</svg>
