<?xml version="1.0" standalone="no"?>
<!DOCTYPE svg PUBLIC "-//W3C//DTD SVG 1.1//EN" "http://www.w3.org/Graphics/SVG/1.1/DTD/svg11.dtd" >
<svg xmlns="http://www.w3.org/2000/svg" xmlns:xlink="http://www.w3.org/1999/xlink" version="1.1">
<metadata></metadata>
<defs>
<font id="red_hat_displayregular" horiz-adv-x="1228" >
<font-face units-per-em="2048" ascent="1638" descent="-410" />
<missing-glyph horiz-adv-x="452" />
<glyph horiz-adv-x="0" />
<glyph horiz-adv-x="682" />
<glyph unicode=" "  horiz-adv-x="452" />
<glyph unicode="&#x09;" horiz-adv-x="452" />
<glyph unicode="&#xa0;" horiz-adv-x="452" />
<glyph unicode="!" horiz-adv-x="364" d="M106 68q0 31 23 53t53 22q33 0 54.5 -22.5t21.5 -52.5q0 -33 -21.5 -55.5t-54.5 -22.5q-31 0 -53.5 22.5t-22.5 55.5zM133 1444h98l-10 -1061h-78z" />
<glyph unicode="&#x22;" horiz-adv-x="542" d="M117 1434h100l-18 -349h-66zM326 1434h100l-18 -349h-66z" />
<glyph unicode="#" horiz-adv-x="1372" d="M61 471v82h267l94 328h-258v82h280l136 471h88l-136 -471h449l135 471h88l-135 -471h242v-82h-264l-95 -328h256v-82h-278l-135 -471h-88l135 471h-449l-135 -471h-88l135 471h-244zM416 553h448l94 328h-448z" />
<glyph unicode="$" horiz-adv-x="1130" d="M59 274l70 62q164 -188 397 -211v571l-61 15q-205 49 -291 124.5t-86 217.5q0 102 56.5 179t155.5 121t226 44v174h88v-178q115 -14 223.5 -60.5t202.5 -122.5l-57 -69q-82 68 -176 109.5t-193 54.5v-539l56 -12q215 -49 305 -127t90 -221q0 -102 -58.5 -184.5 t-160 -131.5t-232.5 -55v-172h-88v174q-133 12 -253.5 72.5t-213.5 164.5zM178 1053q0 -70 27.5 -116t95.5 -79t184 -61l41 -11v525q-156 0 -252 -71t-96 -187zM614 121q160 6 260.5 86t100.5 199q0 72 -30 118.5t-100.5 80.5t-195.5 63l-35 8v-555z" />
<glyph unicode="%" horiz-adv-x="1462" d="M61 1075q0 166 83 267.5t210 101.5t210 -101.5t83 -267.5t-83 -267t-210 -101t-210 101t-83 267zM137 1075q0 -137 60.5 -218t156.5 -81t156.5 81t60.5 218q0 139 -60 219t-157 80q-96 0 -156.5 -80t-60.5 -219zM289 0l805 1434h88l-805 -1434h-88zM821 358 q0 166 83 267.5t210 101.5t210 -101.5t83 -267.5t-83 -267t-210 -101t-210 101.5t-83 266.5zM897 358q0 -137 60.5 -218t156.5 -81t156.5 81t60.5 218q0 139 -60 219t-157 80q-96 0 -156.5 -79.5t-60.5 -219.5z" />
<glyph unicode="&#x26;" horiz-adv-x="1308" d="M53 383q0 84 31 154.5t104.5 135t198.5 130.5q-72 94 -102.5 169t-30.5 156q0 90 41 165t113.5 119t166.5 44q92 0 158 -37t100.5 -99.5t34.5 -141.5q0 -106 -59 -186.5t-182 -151.5l-101 -60q90 -102 207 -219t236 -225q53 86 92 191.5t57 224.5l94 -17 q-25 -139 -70.5 -253.5t-105.5 -207.5q68 -57 136.5 -114.5t138.5 -110.5l-58 -67q-68 51 -136 107t-134 114q-90 -111 -210 -168.5t-259 -57.5q-141 0 -244.5 51.5t-160 142.5t-56.5 212zM147 381q0 -143 102.5 -230.5t264.5 -87.5q121 0 224.5 52.5t176.5 146.5 q-139 127 -263 252t-208 221q-123 -63 -187 -119.5t-87 -113t-23 -121.5zM346 1130q0 -76 28.5 -141t96.5 -147l131 76q92 53 133 118.5t41 139.5q0 80 -57 137t-148 57q-100 0 -162.5 -68.5t-62.5 -171.5z" />
<glyph unicode="'" horiz-adv-x="333" d="M117 1434h100l-18 -349h-66z" />
<glyph unicode="(" horiz-adv-x="776" d="M141 506q0 322 129 568.5t371 389.5l47 -71q-215 -123 -333.5 -355.5t-118.5 -531.5q0 -297 118.5 -530.5t333.5 -356.5l-47 -72q-242 145 -371 391t-129 568z" />
<glyph unicode=")" horiz-adv-x="776" d="M88 -379q215 123 333.5 355.5t118.5 531.5q0 297 -118.5 530.5t-333.5 356.5l47 72q242 -145 371 -391t129 -568t-129 -568.5t-371 -389.5z" />
<glyph unicode="*" horiz-adv-x="884" d="M111 930l262 160l-252 151l41 62l246 -152l-5 283h78l-4 -281l246 150l41 -62l-254 -151l264 -160l-41 -62l-256 160l4 -307h-78l5 305l-258 -160z" />
<glyph unicode="+" d="M227 690v84h344v373h84v-373h344v-84h-344v-379h-84v379h-344z" />
<glyph unicode="," horiz-adv-x="512" d="M129 -268l109 385h104l-135 -385h-78z" />
<glyph unicode="-" horiz-adv-x="905" d="M109 528v90h688v-90h-688z" />
<glyph unicode="." horiz-adv-x="512" d="M178 68q0 33 22.5 55t55.5 22t55.5 -22.5t22.5 -54.5q0 -33 -22.5 -55.5t-55.5 -22.5t-55.5 22.5t-22.5 55.5z" />
<glyph unicode="/" horiz-adv-x="886" d="M-135 -418l860 1852h96l-860 -1852h-96z" />
<glyph unicode="0" horiz-adv-x="1331" d="M102 717q0 221 74 388t201 259t289 92t288.5 -92t200.5 -259t74 -388t-74 -388t-200.5 -259.5t-288.5 -92.5t-289 92.5t-201 259.5t-74 388zM197 717q0 -203 59 -349.5t165 -225.5t245 -79t244.5 79t165 225.5t59.5 349.5t-59.5 349t-165 225t-244.5 79t-245 -79 t-165 -225t-59 -349z" />
<glyph unicode="1" horiz-adv-x="536" d="M63 1225v94l244 115h70v-1434h-90v1329z" />
<glyph unicode="2" horiz-adv-x="1095" d="M97 1260q109 98 216 147t226 49q123 0 218 -47t150.5 -129t55.5 -186q0 -72 -18.5 -130.5t-67.5 -128t-145 -180.5l-494 -569h758v-86h-887v72l551 633q82 94 127 157.5t63.5 116.5t18.5 111q0 121 -92.5 200.5t-237.5 79.5q-102 0 -189 -40t-196 -138z" />
<glyph unicode="3" horiz-adv-x="1173" d="M82 172l60 64q92 -88 195.5 -130.5t224.5 -42.5q113 0 199.5 42t137 115t50.5 167q0 88 -45 158.5t-123 111.5t-180 41h-164v84h168q127 0 205.5 81t78.5 210q0 82 -44 148.5t-120.5 107.5t-173.5 41q-113 0 -206 -40t-185 -134l-57 66q96 96 206.5 145t239.5 49 q125 0 222.5 -51t155 -138t57.5 -196t-66 -196t-180 -130q137 -37 221 -135t84 -221q0 -119 -62.5 -212t-171 -146.5t-245.5 -53.5q-139 0 -260 50.5t-222 144.5z" />
<glyph unicode="4" horiz-adv-x="1216" d="M61 403v72l805 959h95v-945h169v-86h-169v-403h-91v403h-809zM186 489h684v814z" />
<glyph unicode="5" horiz-adv-x="1142" d="M84 176l61 60q94 -94 190.5 -133.5t221.5 -39.5q113 0 198 48.5t134 135.5t49 199q0 158 -104.5 255.5t-274.5 97.5q-86 0 -170 -19.5t-176 -66.5l-64 22l33 699h774v-86h-688l-24 -541q88 41 162.5 59.5t160.5 18.5q139 0 243.5 -54.5t163 -152.5t58.5 -227 q0 -141 -59.5 -248t-166 -166.5t-249.5 -59.5q-270 0 -473 199z" />
<glyph unicode="6" horiz-adv-x="1251" d="M129 653q0 242 79 422t221 280.5t331 100.5q80 0 157.5 -19.5t145.5 -54.5l-39 -79q-61 31 -133 49t-138 18q-158 0 -274.5 -83t-182 -237.5t-69.5 -369.5q86 102 201 160.5t235 58.5q139 0 248 -58.5t170.5 -160.5t61.5 -236q0 -133 -60.5 -239.5t-167 -167 t-241.5 -60.5q-160 0 -283 87.5t-192.5 240t-69.5 348.5zM229 578q12 -154 70.5 -269.5t155 -180.5t221.5 -65q109 0 192.5 50.5t131.5 135.5t48 191q0 109 -49 193t-138 132t-206 48q-119 0 -231.5 -63.5t-194.5 -171.5z" />
<glyph unicode="7" horiz-adv-x="1110" d="M60 1348v86h993v-72l-748 -1362h-100l739 1348h-884z" />
<glyph unicode="8" horiz-adv-x="1245" d="M127 383q0 90 46 168t126 135t184 82q-135 35 -215 124t-80 206q0 102 57.5 183t156 128t220.5 47q125 0 223.5 -47t156 -128t57.5 -183q0 -117 -79 -206t-212 -124q158 -37 254 -141.5t96 -243.5q0 -117 -64.5 -209t-175.5 -144.5t-254 -52.5q-141 0 -253.5 52.5 t-178 144.5t-65.5 209zM221 389q0 -90 53 -164.5t144 -118t204 -43.5t204 43.5t144.5 118t53.5 164.5q0 92 -53.5 167t-144.5 118t-204 43t-204 -43t-144 -118t-53 -167zM280 1087q0 -80 45 -144t123 -102t174 -38q98 0 176 38t123 102.5t45 143.5q0 80 -45 143.5 t-122.5 101.5t-176.5 38q-96 0 -174 -38t-123 -101.5t-45 -143.5z" />
<glyph unicode="9" horiz-adv-x="1251" d="M109 989q0 135 61 240.5t167 166t241 60.5q160 0 282.5 -87t192 -239.5t69.5 -349.5q0 -242 -78.5 -422t-220 -280.5t-331.5 -100.5q-80 0 -158 19.5t-146 54.5l39 80q61 -31 134 -49.5t137 -18.5q160 0 275.5 83t181 239t69.5 369q-86 -102 -200.5 -160.5t-235.5 -58.5 q-139 0 -248 58t-170 161.5t-61 234.5zM203 993q0 -106 50 -191t138 -133t205 -48q119 0 231.5 63.5t194.5 171.5q-10 154 -69.5 269.5t-156 180t-221.5 64.5q-106 0 -191 -50t-133 -135t-48 -192z" />
<glyph unicode=":" horiz-adv-x="512" d="M178 68q0 33 22.5 55t55.5 22t55.5 -22.5t22.5 -54.5q0 -33 -22.5 -55.5t-55.5 -22.5t-55.5 22.5t-22.5 55.5zM178 942q0 33 22.5 55t55.5 22t55.5 -22.5t22.5 -54.5q0 -33 -22.5 -55.5t-55.5 -22.5t-55.5 22.5t-22.5 55.5z" />
<glyph unicode=";" horiz-adv-x="512" d="M129 -268l109 385h104l-135 -385h-78zM209 942q0 33 22.5 55t55.5 22t55.5 -22.5t22.5 -54.5q0 -33 -22.5 -55.5t-55.5 -22.5t-55.5 22.5t-22.5 55.5z" />
<glyph unicode="&#x3c;" d="M248 715l622 463l48 -64l-539 -397l539 -398l-48 -67z" />
<glyph unicode="=" d="M227 538v84h772v-84h-772zM227 844v84h772v-84h-772z" />
<glyph unicode="&#x3e;" d="M311 316l539 397l-539 398l48 67l622 -463l-622 -463z" />
<glyph unicode="?" horiz-adv-x="1024" d="M59 1249q72 74 147 120t151.5 66.5t152.5 20.5q123 0 217 -46t147.5 -123t53.5 -173q0 -76 -24.5 -132t-76 -106.5t-131.5 -105.5l-78 -55q-88 -61 -115.5 -140t-19.5 -180h-84q-4 86 9.5 156t52.5 127t110 108l84 60q92 66 135.5 125t43.5 147q0 70 -44.5 126t-118 89 t-167.5 33q-96 0 -191.5 -43t-185.5 -145zM365 68q0 31 22.5 53t54.5 22q31 0 53.5 -22.5t22.5 -52.5q0 -33 -22.5 -55.5t-53.5 -22.5q-33 0 -55 22.5t-22 55.5z" />
<glyph unicode="@" horiz-adv-x="1579" d="M92 424q0 160 54.5 297t151.5 238.5t227 159t284 57.5q145 0 268 -48.5t215 -133.5t143.5 -200.5t51.5 -250.5q0 -121 -46 -217.5t-125 -151.5t-179 -55q-129 0 -181 86q-51 -47 -108 -73t-113 -26q-82 0 -148.5 40t-104.5 110t-38 158q0 98 46.5 179t123 129t170.5 48 q137 0 215 -88l13 59h82l-78 -381q-16 -82 16.5 -126t108.5 -44q74 0 133 47.5t94 128t35 179.5q0 158 -79 283.5t-214 198.5t-305 73q-131 0 -246 -52.5t-201 -143.5t-134 -214t-48 -264q0 -184 85 -329.5t232.5 -230.5t333.5 -85q195 0 353 88l30 -70q-84 -45 -184 -69.5 t-209 -24.5q-154 0 -286 54.5t-230 151.5t-153.5 228t-55.5 285zM528 418q0 -106 62 -173t162 -67q106 0 182 86q-4 23 -4 48.5t6 52.5l45 227q-29 47 -83 76.5t-120 29.5q-68 0 -125 -37.5t-91 -101t-34 -141.5z" />
<glyph unicode="A" horiz-adv-x="1341" d="M16 0l598 1434h117l596 -1434h-102l-199 485h-711l-200 -485h-99zM350 569h641l-319 777z" />
<glyph unicode="B" horiz-adv-x="1312" d="M170 0v1434h539q139 0 237 -44t149.5 -124t51.5 -189q0 -119 -66.5 -205t-187.5 -120q152 -33 234.5 -125t82.5 -232q0 -117 -57 -206t-163.5 -139t-258.5 -50h-561zM264 88h459q180 0 285.5 86t105.5 223t-105.5 222.5t-285.5 85.5h-459v-617zM264 793h443 q162 0 255 76.5t93 199.5t-93.5 200t-254.5 77h-443v-553z" />
<glyph unicode="C" horiz-adv-x="1482" d="M98 717q0 154 56.5 288t156 235t233.5 158.5t290 57.5q106 0 205.5 -24.5t187.5 -73.5t159 -123l-61 -72q-88 96 -220 150.5t-271 54.5q-137 0 -253 -50t-203 -139t-135 -207t-48 -255t48 -255t135 -207t202.5 -139t253.5 -50q139 0 271 55t220 149l61 -71 q-72 -74 -159.5 -123t-187 -74t-205.5 -25q-156 0 -290 57.5t-233.5 159t-156 235.5t-56.5 288z" />
<glyph unicode="D" horiz-adv-x="1460" d="M170 0v1434h438q170 0 308.5 -54.5t238.5 -150.5t153.5 -227.5t53.5 -284.5q0 -154 -53.5 -285t-153.5 -227t-238.5 -150.5t-308.5 -54.5h-438zM264 88h357q137 0 254.5 47t204.5 132t136.5 200t49.5 250t-49.5 249.5t-136.5 199.5t-204.5 132.5t-254.5 47.5h-357v-1258z " />
<glyph unicode="E" horiz-adv-x="1232" d="M170 0v1434h991v-88h-897v-578h586v-88h-586v-592h905v-88h-999z" />
<glyph unicode="F" horiz-adv-x="1212" d="M170 0v1434h989v-88h-895v-588h586v-88h-586v-670h-94z" />
<glyph unicode="G" horiz-adv-x="1609" d="M98 717q0 154 56.5 288t156 235t233.5 158.5t290 57.5q160 0 302 -56.5t250 -164.5l-61 -72q-88 96 -220 150.5t-271 54.5q-137 0 -253 -50t-203 -139t-135 -207t-48 -255t48 -255t134 -207t201.5 -139t252.5 -50q166 0 296 74.5t209 204.5t87 292h-551v88h644v-51 q0 -145 -52.5 -271.5t-145.5 -221.5t-217.5 -149.5t-269.5 -54.5q-156 0 -288.5 57.5t-233 159t-156 235.5t-55.5 288z" />
<glyph unicode="H" horiz-adv-x="1441" d="M170 0v1434h94v-668h914v668h94v-1434h-94v678h-914v-678h-94z" />
<glyph unicode="I" horiz-adv-x="434" d="M170 0v1434h94v-1434h-94z" />
<glyph unicode="J" horiz-adv-x="1189" d="M33 319l86 39q59 -141 163.5 -216.5t249.5 -75.5q195 0 309.5 125.5t114.5 340.5v902h95v-902q0 -172 -63.5 -295.5t-180.5 -191.5t-277 -68q-174 0 -302 87.5t-195 254.5z" />
<glyph unicode="K" horiz-adv-x="1187" d="M170 0v1434h94v-699l795 699h133l-817 -715l829 -719h-143l-797 694v-694h-94z" />
<glyph unicode="L" horiz-adv-x="1214" d="M170 0v1434h94v-1346h885v-88h-979z" />
<glyph unicode="M" horiz-adv-x="1701" d="M170 0v1434h147l535 -1129l532 1129h148v-1434h-94v1343l-586 -1241l-588 1237v-1339h-94z" />
<glyph unicode="N" horiz-adv-x="1462" d="M170 0v1434h102l926 -1268v1268h94v-1434h-82l-946 1294v-1294h-94z" />
<glyph unicode="O" horiz-adv-x="1654" d="M98 717q0 156 56.5 290t157 235t232.5 157.5t283 56.5q152 0 284 -56.5t232.5 -157.5t156.5 -235.5t56 -289.5q0 -156 -56 -290t-156.5 -235.5t-232.5 -158t-284 -56.5t-283.5 56.5t-232 158t-157 235.5t-56.5 290zM195 717q0 -137 48 -256t134 -207t201.5 -138 t248.5 -50t249 50t202 138t134 207t48 256t-48 256t-134 207t-201.5 138t-249.5 50q-133 0 -248.5 -50t-201.5 -138t-134 -207t-48 -256z" />
<glyph unicode="P" horiz-adv-x="1292" d="M170 0v1434h580q141 0 243.5 -49.5t156.5 -138.5t54 -210t-54 -212t-156.5 -141t-243.5 -50h-486v-633h-94zM264 721h481q176 0 269.5 86t93.5 229q0 139 -93 224.5t-270 85.5h-481v-625z" />
<glyph unicode="Q" horiz-adv-x="1654" d="M98 717q0 156 56.5 290t157 235t232.5 157.5t283 56.5q152 0 284 -56.5t232.5 -157.5t156.5 -235.5t56 -289.5q0 -168 -65.5 -310.5t-177.5 -244.5l155 -176l-102 -17l-121 140q-88 -63 -194.5 -97.5t-223.5 -34.5q-152 0 -283.5 56.5t-232 158t-157 235.5t-56.5 290z M195 717q0 -137 48 -256t134 -207t201.5 -138t248.5 -50q102 0 192.5 29.5t166.5 80.5l-225 260l102 17l190 -222q96 90 151.5 215t55.5 271q0 137 -48 256t-134 207t-201.5 138t-249.5 50q-133 0 -248.5 -50t-201.5 -138t-134 -207t-48 -256z" />
<glyph unicode="R" horiz-adv-x="1288" d="M170 0v1434h578q145 0 246.5 -52.5t153.5 -141.5t52 -204q0 -139 -80 -243.5t-231 -139.5l317 -653h-102l-309 639h-531v-639h-94zM264 727h477q176 0 269.5 89t93.5 220q0 133 -93 221.5t-270 88.5h-477v-619z" />
<glyph unicode="S" horiz-adv-x="1200" d="M31 252l73 61q102 -121 232.5 -184t277.5 -63q123 0 219.5 43t151.5 117.5t55 168.5q0 125 -85 191.5t-285 99.5l-174 29q-215 35 -315.5 121t-100.5 235q0 115 60.5 201t169 135t247.5 49q141 0 282.5 -48t268.5 -142l-57 -78q-242 180 -494 180q-111 0 -197 -37 t-135 -103.5t-49 -152.5q0 -113 76 -175t254 -91l174 -29q244 -39 350.5 -130t106.5 -261q0 -119 -68 -212t-185.5 -146.5t-269.5 -53.5q-172 0 -321.5 71t-261.5 204z" />
<glyph unicode="T" d="M35 1346v88h1159v-88h-532v-1346h-95v1346h-532z" />
<glyph unicode="U" horiz-adv-x="1421" d="M139 600v834h94v-834q0 -170 61.5 -290t169 -182t247.5 -62q139 0 246.5 62t169 182t61.5 290v834h94v-834q0 -199 -71.5 -338t-200.5 -212t-299 -73t-299 73t-201 212t-72 338z" />
<glyph unicode="V" horiz-adv-x="1341" d="M10 1434h103l559 -1346l561 1346h98l-602 -1434h-117z" />
<glyph unicode="W" horiz-adv-x="1810" d="M55 1434h95l335 -1278l377 1278h94l371 -1284l338 1284h90l-383 -1434h-90l-375 1296l-381 -1296h-90z" />
<glyph unicode="X" horiz-adv-x="1249" d="M12 0l557 743l-516 691h117l457 -615l456 615h113l-514 -686l555 -748h-117l-495 672l-500 -672h-113z" />
<glyph unicode="Y" horiz-adv-x="1247" d="M14 1434h113l498 -750l499 750h109l-563 -840v-594h-95v598z" />
<glyph unicode="Z" horiz-adv-x="1224" d="M51 0v72l967 1274h-959v88h1084v-72l-967 -1274h987v-88h-1112z" />
<glyph unicode="[" horiz-adv-x="667" d="M117 -440v1874h473v-80h-381v-1714h381v-80h-473z" />
<glyph unicode="\" horiz-adv-x="894" d="M70 1434h98l860 -1852h-98z" />
<glyph unicode="]" horiz-adv-x="667" d="M78 -361h381v1714h-381v80h473v-1874h-473v80z" />
<glyph unicode="^" d="M207 717l364 717h86l365 -717h-96l-312 610l-311 -610h-96z" />
<glyph unicode="_" horiz-adv-x="974" d="M-2 -164h979v-90h-979v90z" />
<glyph unicode="`" d="M334 1446h139l193 -225h-91z" />
<glyph unicode="a" horiz-adv-x="1011" d="M70 283q0 139 108.5 224t288.5 85t319 -88v168q0 139 -75.5 207.5t-216.5 68.5q-70 0 -146 -22.5t-174 -73.5l-39 80q96 49 184.5 72.5t176.5 23.5q182 0 281.5 -87t99.5 -253v-688h-91v113q-70 -63 -156 -98t-188 -35q-111 0 -194.5 37.5t-130.5 106.5t-47 159zM160 285 q0 -98 82 -162t207 -64q109 0 190.5 38t146.5 108v209q-68 51 -147.5 75.5t-181.5 24.5q-133 0 -215 -63.5t-82 -165.5z" />
<glyph unicode="b" horiz-adv-x="1169" d="M139 0v1434l90 22v-569q137 141 346 141h8q136 0 247 -68q114 -70 180.5 -189.5t66.5 -266.5q0 -145 -66.5 -265t-180 -189.5t-255.5 -69.5q-96 0 -185 37.5t-161 101.5v-119h-90zM229 233q53 -72 145 -119.5t201 -47.5q115 0 208.5 58t147.5 157.5t54 222.5t-54 222 t-147.5 157.5t-208.5 58.5q-113 0 -203.5 -46t-142.5 -122v-541z" />
<glyph unicode="c" horiz-adv-x="1032" d="M92 504q0 147 66.5 266t181.5 188.5t254 69.5q102 0 205.5 -41t181.5 -113l-61 -73q-66 66 -151 103.5t-175 37.5q-115 0 -208 -58.5t-147.5 -157.5t-54.5 -222t54.5 -222.5t147.5 -157.5t208 -58q90 0 175 38.5t151 102.5l61 -74q-78 -72 -181.5 -112.5t-205.5 -40.5 q-139 0 -254 69.5t-181.5 188t-66.5 266.5z" />
<glyph unicode="d" horiz-adv-x="1169" d="M92 504q0 147 66.5 266t181.5 188.5t254 69.5q96 0 186 -38t160 -101v545l90 22v-1456h-90v121q-137 -141 -346 -141q-139 0 -254 69.5t-181.5 188t-66.5 266.5zM184 504q0 -123 54.5 -222.5t147.5 -157.5t208 -58q113 0 204 46t142 121v541q-53 72 -145.5 120t-200.5 48 q-115 0 -208 -58.5t-147.5 -157.5t-54.5 -222z" />
<glyph unicode="e" horiz-adv-x="1124" d="M92 504q0 147 64.5 266t177 188.5t252.5 69.5q131 0 233.5 -69.5t162.5 -185.5t60 -257v-37h-858q6 -117 61.5 -210t146.5 -148t202 -55q86 0 170 27.5t143 74.5l54 -72q-82 -59 -174.5 -87.5t-192.5 -28.5q-139 0 -254 69.5t-181.5 188t-66.5 266.5zM188 565h758 q-10 104 -59 189.5t-127 136.5t-176 51q-104 0 -189.5 -49t-140 -134t-66.5 -194z" />
<glyph unicode="f" horiz-adv-x="712" d="M35 926v82h241v223q0 137 72 211t207 74q39 0 66.5 -4.5t56.5 -14.5v-88q-35 10 -62.5 15.5t-62.5 5.5q-94 0 -140 -47.5t-46 -153.5v-221h311v-82h-311v-926h-91v926h-241z" />
<glyph unicode="g" horiz-adv-x="1169" d="M92 504q0 147 66.5 266t181.5 188.5t254 69.5q96 0 186 -38t160 -101v119h90v-1055q0 -193 -105 -292t-300 -99q-100 0 -198.5 28.5t-180.5 79.5l51 74q90 -51 165 -73.5t156 -22.5q158 0 240 75.5t82 225.5v172q-137 -141 -346 -141q-139 0 -254 69.5t-181.5 188 t-66.5 266.5zM184 504q0 -123 54.5 -222.5t147.5 -157.5t208 -58q113 0 204 46t142 121v541q-53 72 -145.5 120t-200.5 48q-115 0 -208 -58.5t-147.5 -157.5t-54.5 -222z" />
<glyph unicode="h" horiz-adv-x="1083" d="M139 0v1434l90 22v-590q123 162 334 162q115 0 202 -48t135 -135t48 -202v-643h-90v618q0 152 -84 239t-231 87q-102 0 -184.5 -48t-129.5 -138v-758h-90z" />
<glyph unicode="i" horiz-adv-x="368" d="M106 1313q0 33 23 55.5t55 22.5q35 0 56.5 -22.5t21.5 -55.5t-21.5 -55.5t-56.5 -22.5q-33 0 -55.5 22.5t-22.5 55.5zM139 0v1008h90v-1008h-90z" />
<glyph unicode="j" horiz-adv-x="368" d="M-68 -342q33 -8 70 -8q74 0 105.5 34.5t31.5 116.5v1207h90v-1217q0 -109 -57 -169t-168 -60q-20 0 -35.5 2t-36.5 4v90zM109 1313q0 31 21.5 53.5t53.5 22.5q33 0 54.5 -23t21.5 -53q0 -31 -21.5 -53.5t-54.5 -22.5t-54 22.5t-21 53.5z" />
<glyph unicode="k" horiz-adv-x="944" d="M139 0v1434l90 22v-917l570 469h127l-594 -488l618 -520h-137l-584 496v-496h-90z" />
<glyph unicode="l" horiz-adv-x="368" d="M139 0v1434l90 22v-1456h-90z" />
<glyph unicode="m" horiz-adv-x="1716" d="M139 0v1008h90v-131q116 151 309 151h3q109 0 194.5 -54t130.5 -147q63 98 150.5 149.5t200.5 51.5q109 0 190.5 -48t127.5 -135t46 -202v-643h-90v618q0 152 -78 239t-217 87q-100 0 -176 -52t-127 -142q6 -27 9 -52.5t3 -54.5v-643h-90v618q0 152 -78 239t-217 87 q-94 0 -166.5 -46t-124.5 -130v-768h-90z" />
<glyph unicode="n" horiz-adv-x="1083" d="M139 0v1008h90v-142q123 162 334 162q115 0 202 -48t135 -135t48 -202v-643h-90v618q0 152 -84 239t-231 87q-102 0 -184.5 -48t-129.5 -138v-758h-90z" />
<glyph unicode="o" horiz-adv-x="1187" d="M92 504q0 147 66.5 266t181.5 188.5t254 69.5q141 0 255 -69.5t180.5 -188.5t66.5 -266q0 -145 -66.5 -265t-180.5 -189.5t-255 -69.5q-139 0 -254 69.5t-181.5 189t-66.5 265.5zM184 504q0 -123 54.5 -222.5t147.5 -157.5t208 -58t208 58t147.5 157.5t54.5 222.5 t-54.5 222t-147.5 157.5t-208 58.5t-208 -58.5t-147.5 -157.5t-54.5 -222z" />
<glyph unicode="p" horiz-adv-x="1169" d="M139 -418v1426h90v-121q137 141 346 141h8q136 0 247 -68q114 -71 180.5 -190t66.5 -266q0 -145 -66.5 -265t-180 -189.5t-255.5 -69.5q-96 0 -185 37.5t-161 101.5v-537h-90zM229 233q53 -72 145 -119.5t201 -47.5q115 0 208.5 58t147.5 157.5t54 222.5t-54 222 t-147.5 157.5t-208.5 58.5q-113 0 -203.5 -46t-142.5 -122v-541z" />
<glyph unicode="q" horiz-adv-x="1169" d="M92 504q0 147 66.5 266t181.5 188.5t254 69.5q96 0 186 -38t160 -101v119h90v-1426h-90v539q-137 -141 -346 -141q-139 0 -254 69.5t-181.5 188t-66.5 266.5zM184 504q0 -123 54.5 -222.5t147.5 -157.5t208 -58q113 0 204 46t142 121v541q-53 72 -145.5 120t-200.5 48 q-115 0 -208 -58.5t-147.5 -157.5t-54.5 -222z" />
<glyph unicode="r" horiz-adv-x="651" d="M141 2v1008h90v-160q43 84 118 132t169 48q41 0 88 -8v-92q-23 8 -45 11t-43 3q-100 0 -173 -60.5t-114 -174.5v-707h-90z" />
<glyph unicode="s" horiz-adv-x="866" d="M27 143l69 58q61 -63 148.5 -100.5t181.5 -37.5q139 0 224 60.5t85 157.5q0 72 -51 118.5t-166 61.5l-166 20q-143 16 -218 84t-75 180q0 84 45.5 147.5t126 99.5t187.5 36q102 0 196.5 -30.5t190.5 -100.5l-53 -74q-86 61 -165 91t-167 30q-119 0 -194.5 -50t-75.5 -149 q0 -74 50 -118.5t162 -59.5l164 -20q152 -18 225.5 -88t73.5 -178q0 -86 -51 -155t-140 -107.5t-208 -38.5q-117 0 -222.5 41.5t-176.5 121.5z" />
<glyph unicode="t" horiz-adv-x="692" d="M35 926v82h221v254l90 28v-282h311v-82h-311v-699q0 -86 38 -123.5t126 -37.5q47 0 80 7t67 21v-88q-39 -14 -79.5 -20t-83.5 -6q-115 0 -176.5 57t-61.5 160v729h-221z" />
<glyph unicode="u" horiz-adv-x="1083" d="M135 365v643h90v-619q0 -150 84 -238t232 -88q102 0 184 49.5t129 137.5v758h90v-1008h-90v139q-119 -159 -334 -159q-113 0 -200 48t-136 135t-49 202z" />
<glyph unicode="v" horiz-adv-x="989" d="M14 1008h99l385 -893l383 893h94l-438 -1008h-82z" />
<glyph unicode="w" horiz-adv-x="1374" d="M33 1008h94l262 -873l256 873h90l254 -875l262 875h90l-307 -1008h-90l-256 883l-258 -883h-90z" />
<glyph unicode="x" horiz-adv-x="942" d="M16 0l398 520l-375 488h115l317 -416l315 416h111l-373 -484l402 -524h-115l-342 453l-342 -453h-111z" />
<glyph unicode="y" horiz-adv-x="980" d="M14 1008h103l366 -895l383 895h101l-525 -1196q-39 -88 -81 -142.5t-91.5 -79t-115.5 -24.5q-23 0 -45.5 3t-38.5 5v90q33 -8 80 -8q129 0 202 164l82 184z" />
<glyph unicode="z" horiz-adv-x="919" d="M74 0v80l645 842h-639v86h754v-80l-646 -842h650v-86h-764z" />
<glyph unicode="{" horiz-adv-x="737" d="M68 461v86h159q123 0 163 83t-5 195l-94 242q-41 109 -26.5 197t76.5 140t163 52q39 0 73.5 -7t79.5 -24l-26 -75q-39 16 -69 20t-58 4q-106 0 -144 -77.5t9 -200.5l94 -242q47 -119 10 -217t-137 -133q100 -35 137 -132.5t-10 -217.5l-94 -242q-47 -123 -9.5 -201 t144.5 -78q29 0 58.5 5.5t68.5 19.5l26 -76q-45 -14 -79.5 -22.5t-73.5 -8.5q-100 0 -162.5 52.5t-77 140.5t26.5 197l94 241q45 113 5 196t-163 83h-159z" />
<glyph unicode="|" horiz-adv-x="514" d="M213 -418v1852h86v-1852h-86z" />
<glyph unicode="}" horiz-adv-x="737" d="M80 -430l26 75q39 -16 69 -20t58 -4q106 0 144 77.5t-9 200.5l-94 242q-47 119 -10 217t137 133q-100 35 -137 132.5t10 217.5l94 242q47 123 9.5 201t-144.5 78q-29 0 -58.5 -5.5t-68.5 -19.5l-26 76q45 14 79.5 22.5t73.5 8.5q100 0 162.5 -52.5t77 -140.5t-26.5 -197 l-94 -241q-45 -113 -5 -196t163 -83h159v-86h-159q-123 0 -163 -83t5 -195l94 -242q41 -109 26.5 -197t-76.5 -140t-163 -52q-39 0 -73.5 7t-79.5 24z" />
<glyph unicode="~" d="M152 641q16 133 77.5 205t155.5 72q37 0 77 -13.5t101 -48.5l150 -80q47 -27 76.5 -37t58.5 -10q127 0 153 197l76 -13q-14 -131 -74.5 -202.5t-154.5 -71.5q-39 0 -81 14.5t-99 44.5l-150 80q-53 29 -80.5 39t-54.5 10q-127 1 -154 -196z" />
<glyph unicode="&#xa1;" horiz-adv-x="364" d="M107 950q0 33 21.5 55.5t54.5 22.5q31 0 53.5 -22.5t22.5 -55.5q0 -31 -23 -53t-53 -22q-33 0 -54.5 22.5t-21.5 52.5zM134 -426l10 1061h78l10 -1061h-98z" />
<glyph unicode="&#xa2;" horiz-adv-x="1040" d="M92 504q0 137 58.5 249.5t159 184.5t225.5 86v221h86v-217q96 -6 191 -46t169 -108l-61 -73q-61 59 -138 97t-161 44v-876q84 6 160.5 43.5t138.5 97.5l61 -74q-74 -68 -169 -107.5t-191 -45.5v-218h-86v222q-125 14 -225.5 85.5t-159 184.5t-58.5 250zM184 504 q0 -111 46 -204t125 -153.5t180 -76.5v868q-100 -14 -179.5 -75.5t-125.5 -153.5t-46 -205z" />
<glyph unicode="&#xa3;" d="M31 -6q51 90 118.5 126t153.5 32q72 43 72 151q0 8 -1 20.5t-6.5 45t-16.5 97t-29 177.5h-213v84h198q-16 94 -24.5 148.5t-10.5 87t-2 57.5q0 137 45 234.5t133.5 149.5t215.5 52q166 0 272 -91t141 -261l-86 -25q-27 139 -113.5 215t-213.5 76q-147 0 -225.5 -95 t-78.5 -257q0 -20 2.5 -48t11.5 -83.5t25 -159.5h426v-84h-411q18 -106 27.5 -168.5t14.5 -94.5t6 -45t1 -24q0 -117 -64 -174l377 -86q31 -8 59.5 -11t55.5 -3q162 0 242 145l71 -45q-108 -188 -317 -188q-31 0 -63.5 4t-67.5 12l-365 84q-33 8 -61.5 12.5t-55.5 4.5 q-59 0 -103 -26t-77 -91z" />
<glyph unicode="&#xa4;" horiz-adv-x="1294" d="M61 203l193 194q-55 70 -86 157t-31 183t31 183.5t86 156.5l-193 195l58 57l190 -192q66 59 152 94t186 35t186.5 -35t151.5 -94l191 192l57 -57l-193 -195q55 -70 86 -156.5t31 -183.5q0 -96 -30.5 -183t-86.5 -157l193 -194l-57 -58l-191 193q-66 -59 -151.5 -94 t-186.5 -35q-100 0 -186 35t-152 94l-190 -193zM223 737q0 -125 56.5 -226t152.5 -160.5t215 -59.5q121 0 216 59.5t151.5 160.5t56.5 226t-56.5 226.5t-151.5 161t-216 59.5q-119 0 -215 -59.5t-152.5 -161t-56.5 -226.5z" />
<glyph unicode="&#xa5;" horiz-adv-x="1316" d="M49 1434h113l497 -750l500 750h109l-537 -799h367v-84h-393v-176h393v-84h-393v-291h-95v291h-393v84h393v176h-393v84h369z" />
<glyph unicode="&#xa6;" horiz-adv-x="512" d="M213 -418v838h86v-838h-86zM213 596v838h86v-838h-86z" />
<glyph unicode="&#xa7;" horiz-adv-x="1146" d="M139 717q0 94 60.5 160.5t162.5 93.5q-121 80 -120 221q0 121 90 192.5t239 71.5q78 0 168 -22.5t179 -69.5l-41 -82q-166 88 -306 88q-113 0 -176 -48t-63 -130q0 -68 43 -114t131 -74l229 -74q143 -47 208 -116t65 -175q0 -94 -60.5 -159.5t-163.5 -94.5 q121 -80 121 -221q0 -119 -90 -191.5t-240 -72.5q-76 0 -166 23.5t-180 68.5l41 82q166 -88 305 -88q113 0 176.5 48t63.5 130q0 68 -42 114t-132 74l-229 74q-143 47 -208 115.5t-65 175.5zM229 717q0 -74 47.5 -120t163.5 -85l230 -74q4 -2 9 -3t9 -3q109 10 169.5 64.5 t60.5 142.5q0 74 -47.5 120t-163.5 85l-230 74q-4 2 -9 3t-9 3q-106 -8 -168 -63.5t-62 -143.5z" />
<glyph unicode="&#xa8;" d="M377 1313q0 33 22.5 55.5t55.5 22.5q35 0 56 -22.5t21 -55.5t-21 -55.5t-56 -22.5q-33 0 -55.5 22.5t-22.5 55.5zM696 1313q0 33 22.5 55.5t55.5 22.5q35 0 56.5 -22.5t21.5 -55.5t-21.5 -55.5t-56.5 -22.5q-33 0 -55.5 22.5t-22.5 55.5z" />
<glyph unicode="&#xa9;" horiz-adv-x="1662" d="M98 717q0 158 56.5 293t157 235.5t233.5 155.5t286 55q154 0 287 -55t233.5 -155.5t157 -236t56.5 -292.5q0 -158 -56.5 -293t-157 -235.5t-233.5 -156t-287 -55.5t-286.5 55.5t-233 156t-157 235.5t-56.5 293zM178 717q0 -137 50.5 -258t138.5 -213t207.5 -143.5 t256.5 -51.5q139 0 258 51.5t207 143.5t138.5 213t50.5 258q0 139 -50.5 259t-138.5 212t-206.5 143t-258.5 51q-137 0 -256.5 -51t-207.5 -143t-138.5 -212t-50.5 -259zM494 717q0 104 48 189t130 135.5t184 50.5q78 0 147.5 -29t126.5 -84l-51 -57q-47 47 -103 71.5 t-120 24.5q-80 0 -143.5 -40t-101.5 -107.5t-38 -153.5q0 -84 38 -152.5t101.5 -108.5t143.5 -40q63 0 119.5 25.5t103.5 70.5l51 -57q-57 -55 -126.5 -84t-147.5 -29q-102 0 -184 50t-130 135t-48 190z" />
<glyph unicode="&#xaa;" horiz-adv-x="806" d="M74 895q0 109 82 171t219 62q66 0 125 -16t110 -47v121q0 201 -217 200q-57 0 -115.5 -17t-123.5 -52l-33 65q72 35 139.5 54.5t138.5 19.5q139 0 215 -66.5t76 -193.5v-516h-80v82q-102 -96 -256 -96q-123 0 -201.5 62.5t-78.5 166.5zM154 895q0 -72 60.5 -116 t150.5 -44q78 0 138 26.5t107 76.5v151q-49 35 -107.5 53.5t-131.5 18.5q-98 0 -157.5 -45t-59.5 -121z" />
<glyph unicode="&#xab;" horiz-adv-x="1148" d="M74 504l471 504h106l-473 -504l473 -504h-106zM465 504l471 504h106l-473 -504l473 -504h-106z" />
<glyph unicode="&#xac;" d="M168 530v84h895v-614h-84v530h-811z" />
<glyph unicode="&#xad;" horiz-adv-x="905" d="M109 528v90h688v-90h-688z" />
<glyph unicode="&#xae;" horiz-adv-x="1003" d="M98 1049q0 117 53.5 209t144.5 145t204 53t204 -53t144 -145.5t53 -208.5q0 -115 -53 -208t-144 -146.5t-204 -53.5t-204 53.5t-144.5 146.5t-53.5 208zM164 1049q0 -100 44 -178t121 -123.5t171 -45.5q96 0 172 45.5t120 123t44 178.5q0 100 -44 178t-120 123t-172 45 q-94 0 -171 -45t-121 -123t-44 -178zM371 858v385h143q53 0 91 -28.5t38 -88.5q0 -35 -20.5 -63.5t-55.5 -44.5l101 -160h-64l-94 148h-84v-148h-55zM426 1055h82q78 0 78 69q0 37 -21.5 53.5t-56.5 16.5h-82v-139z" />
<glyph unicode="&#xaf;" d="M342 1270v76h547v-76h-547z" />
<glyph unicode="&#xb0;" horiz-adv-x="806" d="M115 1169q0 78 37.5 143.5t104.5 104.5t149 39q84 0 149.5 -39t103 -104.5t37.5 -143.5t-37.5 -143t-103.5 -104t-149 -39q-82 0 -149 39t-104.5 104.5t-37.5 142.5zM197 1169q0 -86 61 -147t148 -61q86 0 147 61t61 147t-61 147.5t-147 61.5t-147.5 -61.5t-61.5 -147.5z " />
<glyph unicode="&#xb1;" d="M227 -2v84h772v-84h-772zM227 713v82h344v374h84v-374h344v-82h-344v-381h-84v381h-344z" />
<glyph unicode="&#xb2;" horiz-adv-x="581" d="M41 1341q57 49 117.5 76t128.5 27q104 0 169.5 -58.5t65.5 -146.5q0 -70 -34.5 -122t-112.5 -128l-211 -205h373v-67h-484v57l269 260q68 66 97.5 108t29.5 93q0 61 -46.5 101t-117.5 40q-51 0 -96.5 -19.5t-102.5 -68.5z" />
<glyph unicode="&#xb3;" horiz-adv-x="626" d="M39 807l51 51q49 -47 100.5 -65.5t112.5 -18.5q84 0 135 40t51 101q0 55 -49 93.5t-135 38.5h-61v63h57q76 0 118 42t42 97q0 53 -46 90t-116 37q-57 0 -103 -19.5t-98 -68.5l-51 51q55 53 118.5 79t133.5 26q102 0 169 -54.5t67 -138.5q0 -51 -31 -96t-92 -70 q72 -20 111.5 -67t39.5 -107q0 -88 -72.5 -146t-187.5 -58q-76 0 -143.5 24.5t-120.5 75.5z" />
<glyph unicode="&#xb4;" d="M557 1221l197 225h137l-244 -225h-90z" />
<glyph unicode="&#xb5;" horiz-adv-x="1087" d="M139 -418v1426h90v-619q0 -150 84 -238t232 -88q102 0 184 49.5t129 137.5v758h90v-1008h-90v139q-59 -80 -143 -119.5t-191 -39.5q-94 0 -169.5 36.5t-125.5 102.5v-537h-90z" />
<glyph unicode="&#xb6;" horiz-adv-x="1282" d="M86 1032q0 119 54.5 209t149.5 141.5t218 51.5h606v-1434h-94v627h-270v-627h-95v627h-143q-127 0 -223 52t-149.5 143t-53.5 210zM182 1032q0 -135 87 -226t249 -91h137v631h-137q-162 0 -249 -90.5t-87 -223.5zM750 715h270v631h-270v-631z" />
<glyph unicode="&#xb7;" horiz-adv-x="512" d="M178 573q0 33 22.5 55.5t55.5 22.5t55.5 -22.5t22.5 -55.5t-22.5 -55t-55.5 -22t-55.5 22.5t-22.5 54.5z" />
<glyph unicode="&#xb8;" d="M352 -381l47 51q84 -66 174 -65q66 0 104 29.5t38 80.5q0 47 -41 75t-115 28h-47l49 182h68l-33 -123q88 -2 141.5 -45t53.5 -115q0 -78 -61 -127t-157 -49q-137 0 -221 78z" />
<glyph unicode="&#xb9;" horiz-adv-x="309" d="M43 1294v76l150 64h49v-717h-74v631z" />
<glyph unicode="&#xba;" horiz-adv-x="925" d="M82 1061q0 111 51 201t137 142t193 52q106 0 192 -52t137.5 -142.5t51.5 -200.5q0 -111 -51.5 -200t-137.5 -142t-192 -53t-192.5 53t-137.5 142t-51 200zM164 1061q0 -88 40 -161t108.5 -115t150.5 -42q84 0 151.5 42t107.5 115t40 161q0 90 -40 161.5t-107.5 113.5 t-151.5 42q-82 0 -150.5 -42t-108.5 -113.5t-40 -161.5z" />
<glyph unicode="&#xbb;" horiz-adv-x="1148" d="M107 0l473 504l-473 504h106l471 -504l-471 -504h-106zM498 0l473 504l-473 504h106l471 -504l-471 -504h-106z" />
<glyph unicode="&#xbc;" horiz-adv-x="1177" d="M43 1294v76l150 64h49v-717h-74v631zM64 0l805 1434h88l-805 -1434h-88zM569 190v58l401 469h82v-459h86v-68h-86v-190h-73v190h-410zM669 258h310v360z" />
<glyph unicode="&#xbd;" horiz-adv-x="1251" d="M43 1294v76l150 64h49v-717h-74v631zM64 0l805 1434h88l-805 -1434h-88zM711 625q57 49 117.5 75.5t128.5 26.5q104 0 169.5 -58.5t65.5 -146.5q0 -70 -34.5 -122t-112.5 -128l-211 -204h373v-68h-484v57l269 260q68 66 97.5 108t29.5 93q0 61 -46.5 101t-117.5 40 q-51 0 -96.5 -19t-102.5 -69z" />
<glyph unicode="&#xbe;" horiz-adv-x="1370" d="M39 807l51 51q49 -47 100.5 -65.5t112.5 -18.5q84 0 135 40t51 101q0 55 -49 93.5t-135 38.5h-61v63h57q76 0 118 42t42 97q0 53 -46 90t-116 37q-57 0 -103 -19.5t-98 -68.5l-51 51q55 53 118.5 79t133.5 26q102 0 169 -54.5t67 -138.5q0 -51 -31 -96t-92 -70 q72 -20 111.5 -67t39.5 -107q0 -88 -72.5 -146t-187.5 -58q-76 0 -143.5 24.5t-120.5 75.5zM256 0l805 1434h88l-805 -1434h-88zM762 190v58l401 469h82v-459h86v-68h-86v-190h-73v190h-410zM862 258h310v360z" />
<glyph unicode="&#xbf;" horiz-adv-x="1024" d="M96 -96q0 76 24.5 132t76 106.5t131.5 105.5l78 55q88 61 115.5 140t19.5 180h84q4 -86 -9.5 -156t-52.5 -127t-110 -108l-84 -60q-92 -66 -135.5 -125t-43.5 -147q0 -70 44.5 -126t118 -89t167.5 -33q96 0 191.5 43t185.5 145l68 -71q-72 -74 -147 -120t-151.5 -66.5 t-152.5 -20.5q-123 0 -217 46t-147.5 123t-53.5 173zM506 950q0 33 22.5 55.5t53.5 22.5q33 0 55 -22.5t22 -55.5q0 -31 -22.5 -53t-54.5 -22q-31 0 -53.5 22.5t-22.5 52.5z" />
<glyph unicode="&#xc0;" horiz-adv-x="1341" d="M16 0l598 1434h117l596 -1434h-102l-199 485h-711l-200 -485h-99zM350 569h641l-319 777zM412 1872h139l192 -225h-90z" />
<glyph unicode="&#xc1;" horiz-adv-x="1341" d="M16 0l598 1434h117l596 -1434h-102l-199 485h-711l-200 -485h-99zM350 569h641l-319 777zM600 1647l197 225h137l-244 -225h-90z" />
<glyph unicode="&#xc2;" horiz-adv-x="1341" d="M16 0l598 1434h117l596 -1434h-102l-199 485h-711l-200 -485h-99zM350 569h641l-319 777zM416 1636l202 236h107l203 -236h-76l-180 170l-180 -170h-76z" />
<glyph unicode="&#xc3;" horiz-adv-x="1341" d="M16 0l598 1434h117l596 -1434h-102l-199 485h-711l-200 -485h-99zM350 569h641l-319 777zM350 1653q41 184 176 184q53 0 104 -30q50 -30 98 -58q48 -29 91 -29q35 0 59 27t37 92l76 -12q-20 -94 -66 -139t-112 -46q-51 0 -101 29t-98 59q-47 30 -92 29q-39 0 -60 -26 q-22 -27 -36 -93z" />
<glyph unicode="&#xc4;" horiz-adv-x="1341" d="M16 0l598 1434h117l596 -1434h-102l-199 485h-711l-200 -485h-99zM350 569h641l-319 777zM434 1739q0 33 23 55q23 23 55 23q35 0 56 -23q22 -23 22 -55q0 -33 -22 -56q-21 -22 -56 -22q-33 0 -55 22q-23 23 -23 56zM754 1739q0 33 22 55q23 23 55 23q35 0 57 -23t21 -55 q0 -33 -21 -56q-22 -22 -57 -22q-33 0 -55 22q-23 23 -22 56z" />
<glyph unicode="&#xc5;" horiz-adv-x="1341" d="M16 0l598 1434h117l596 -1434h-102l-199 485h-711l-200 -485h-99zM350 569h641l-319 777zM455 1835q0 59 28 109q29 49 78 78q49 30 111 30q63 0 111 -30t77 -78q29 -49 29 -109q0 -59 -29 -110q-29 -50 -78 -79q-49 -30 -110 -30t-111 30q-49 30 -78 79q-29 50 -28 110z M524 1835q0 -63 42 -108q43 -44 106 -44q61 0 104 44t43 108q0 63 -44 107q-44 43 -103 43q-61 0 -105 -43q-43 -43 -43 -107z" />
<glyph unicode="&#xc6;" horiz-adv-x="1923" d="M16 0l598 1434h1237v-88h-1083l240 -578h553v-88h-517l246 -592h570v-88h-635l-199 485h-711l-200 -485h-99zM350 569h641l-319 777z" />
<glyph unicode="&#xc7;" horiz-adv-x="1482" d="M98 717q0 154 56.5 288t156 235t233.5 158.5t290 57.5q106 0 205.5 -24.5t187.5 -73.5t159 -123l-61 -72q-88 96 -220 150.5t-271 54.5q-137 0 -253 -50t-203 -139t-135 -207t-48 -255t48 -255t135 -207t202.5 -139t253.5 -50q139 0 271 55t220 149l61 -71 q-104 -104 -240 -160.5t-288 -61.5l-27 -100q88 -2 141.5 -45t53.5 -115q0 -78 -60.5 -127t-156.5 -49q-137 0 -221 78l47 51q84 -66 174 -65q66 0 103.5 29.5t37.5 80.5q0 47 -41 75t-114 28h-47l43 162q-147 8 -274.5 67t-220.5 159.5t-145.5 230.5t-52.5 280z" />
<glyph unicode="&#xc8;" horiz-adv-x="1232" d="M170 0v1434h991v-88h-897v-578h586v-88h-586v-592h905v-88h-999zM434 1872h139l193 -225h-90z" />
<glyph unicode="&#xc9;" horiz-adv-x="1232" d="M170 0v1434h991v-88h-897v-578h586v-88h-586v-592h905v-88h-999zM623 1647l196 225h137l-243 -225h-90z" />
<glyph unicode="&#xca;" horiz-adv-x="1232" d="M170 0v1434h991v-88h-897v-578h586v-88h-586v-592h905v-88h-999zM438 1636l203 236h107l202 -236h-76l-180 170l-180 -170h-76z" />
<glyph unicode="&#xcb;" horiz-adv-x="1232" d="M170 0v1434h991v-88h-897v-578h586v-88h-586v-592h905v-88h-999zM457 1739q0 33 22 55q23 23 56 23q35 0 56 -23q22 -23 21 -55q0 -33 -21 -56q-21 -22 -56 -22q-33 0 -56 22q-23 23 -22 56zM776 1739q0 33 23 55q23 23 55 23q35 0 56 -23q22 -23 22 -55q0 -33 -22 -56 q-21 -22 -56 -22q-33 0 -55 22q-23 23 -23 56z" />
<glyph unicode="&#xcc;" horiz-adv-x="434" d="M-43 1872h139l193 -225h-90zM170 0v1434h94v-1434h-94z" />
<glyph unicode="&#xcd;" horiz-adv-x="434" d="M145 1647l197 225h137l-243 -225h-91zM170 0v1434h94v-1434h-94z" />
<glyph unicode="&#xce;" horiz-adv-x="434" d="M-39 1636l203 236h106l203 -236h-76l-180 170l-180 -170h-76zM170 0v1434h94v-1434h-94z" />
<glyph unicode="&#xcf;" horiz-adv-x="434" d="M-20 1739q0 33 22 55q23 23 55 23q35 0 57 -23t21 -55q0 -33 -21 -56q-22 -22 -57 -22q-33 0 -55 22q-23 23 -22 56zM170 0v1434h94v-1434h-94zM299 1739q0 33 23 55q23 23 55 23q35 0 56 -23q22 -23 22 -55q0 -33 -22 -56q-21 -22 -56 -22q-33 0 -55 22q-23 23 -23 56z " />
<glyph unicode="&#xd0;" horiz-adv-x="1460" d="M27 684v84h143v666h438q170 0 308.5 -54.5t238.5 -150.5t153.5 -227.5t53.5 -284.5q0 -154 -53.5 -285t-153.5 -227t-238.5 -150.5t-308.5 -54.5h-438v684h-143zM264 88h357q137 0 254.5 47t204.5 132t136.5 200t49.5 250t-49.5 249.5t-136.5 199.5t-204.5 132.5 t-254.5 47.5h-357v-578h449v-84h-449v-596z" />
<glyph unicode="&#xd1;" horiz-adv-x="1462" d="M170 0v1434h102l926 -1268v1268h94v-1434h-82l-946 1294v-1294h-94zM410 1653q41 184 176 184q53 0 103 -30t98 -58q48 -29 92 -29q35 0 58 27q24 27 38 92l76 -12q-20 -94 -67 -139q-46 -45 -112 -46q-51 0 -101 29t-97 59t-92 29q-39 0 -61 -26q-22 -27 -36 -93z" />
<glyph unicode="&#xd2;" horiz-adv-x="1654" d="M98 717q0 156 56.5 290t157 235t232.5 157.5t283 56.5q152 0 284 -56.5t232.5 -157.5t156.5 -235.5t56 -289.5q0 -156 -56 -290t-156.5 -235.5t-232.5 -158t-284 -56.5t-283.5 56.5t-232 158t-157 235.5t-56.5 290zM195 717q0 -137 48 -256t134 -207t201.5 -138 t248.5 -50t249 50t202 138t134 207t48 256t-48 256t-134 207t-201.5 138t-249.5 50q-133 0 -248.5 -50t-201.5 -138t-134 -207t-48 -256zM567 1872h140l192 -225h-90z" />
<glyph unicode="&#xd3;" horiz-adv-x="1654" d="M98 717q0 156 56.5 290t157 235t232.5 157.5t283 56.5q152 0 284 -56.5t232.5 -157.5t156.5 -235.5t56 -289.5q0 -156 -56 -290t-156.5 -235.5t-232.5 -158t-284 -56.5t-283.5 56.5t-232 158t-157 235.5t-56.5 290zM195 717q0 -137 48 -256t134 -207t201.5 -138 t248.5 -50t249 50t202 138t134 207t48 256t-48 256t-134 207t-201.5 138t-249.5 50q-133 0 -248.5 -50t-201.5 -138t-134 -207t-48 -256zM756 1647l196 225h138l-244 -225h-90z" />
<glyph unicode="&#xd4;" horiz-adv-x="1654" d="M98 717q0 156 56.5 290t157 235t232.5 157.5t283 56.5q152 0 284 -56.5t232.5 -157.5t156.5 -235.5t56 -289.5q0 -156 -56 -290t-156.5 -235.5t-232.5 -158t-284 -56.5t-283.5 56.5t-232 158t-157 235.5t-56.5 290zM195 717q0 -137 48 -256t134 -207t201.5 -138 t248.5 -50t249 50t202 138t134 207t48 256t-48 256t-134 207t-201.5 138t-249.5 50q-133 0 -248.5 -50t-201.5 -138t-134 -207t-48 -256zM571 1636l203 236h107l202 -236h-75l-181 170l-180 -170h-76z" />
<glyph unicode="&#xd5;" horiz-adv-x="1654" d="M98 717q0 156 56.5 290t157 235t232.5 157.5t283 56.5q152 0 284 -56.5t232.5 -157.5t156.5 -235.5t56 -289.5q0 -156 -56 -290t-156.5 -235.5t-232.5 -158t-284 -56.5t-283.5 56.5t-232 158t-157 235.5t-56.5 290zM195 717q0 -137 48 -256t134 -207t201.5 -138 t248.5 -50t249 50t202 138t134 207t48 256t-48 256t-134 207t-201.5 138t-249.5 50q-133 0 -248.5 -50t-201.5 -138t-134 -207t-48 -256zM506 1653q41 184 176 184q53 0 103 -30t99 -58q48 -29 91 -29q35 0 58 27q24 27 38 92l76 -12q-20 -94 -67 -139q-46 -45 -111 -46 q-51 0 -102 29q-50 29 -97 59t-92 29q-39 0 -61 -26q-21 -27 -35 -93z" />
<glyph unicode="&#xd6;" horiz-adv-x="1654" d="M98 717q0 156 56.5 290t157 235t232.5 157.5t283 56.5q152 0 284 -56.5t232.5 -157.5t156.5 -235.5t56 -289.5q0 -156 -56 -290t-156.5 -235.5t-232.5 -158t-284 -56.5t-283.5 56.5t-232 158t-157 235.5t-56.5 290zM195 717q0 -137 48 -256t134 -207t201.5 -138 t248.5 -50t249 50t202 138t134 207t48 256t-48 256t-134 207t-201.5 138t-249.5 50q-133 0 -248.5 -50t-201.5 -138t-134 -207t-48 -256zM590 1739q0 33 22 55q23 23 56 23q35 0 56 -23q22 -23 21 -55q0 -33 -21 -56q-21 -22 -56 -22q-33 0 -56 22q-23 23 -22 56zM909 1739 q0 33 23 55q23 23 55 23q35 0 56 -23q22 -23 22 -55q0 -33 -22 -56q-21 -22 -56 -22q-33 0 -55 22q-23 23 -23 56z" />
<glyph unicode="&#xd7;" d="M250 410l307 327l-307 328l61 57l303 -323l304 321l61 -57l-307 -326l307 -327l-61 -58l-304 324l-303 -324z" />
<glyph unicode="&#xd8;" horiz-adv-x="1654" d="M98 717q0 156 56.5 290t157 235t232.5 157.5t283 56.5q123 0 233.5 -38t201.5 -105l100 121h121l-150 -181q102 -100 162.5 -238t60.5 -298q0 -156 -56 -290t-156.5 -235.5t-232.5 -158t-284 -56.5q-123 0 -233.5 38t-200.5 106l-100 -121h-121l150 180 q-102 102 -163 239.5t-61 297.5zM195 717q0 -137 49 -257t137 -210l823 993q-78 59 -173 92t-204 33q-133 0 -248.5 -50t-201.5 -138t-134 -207t-48 -256zM451 190q78 -59 174 -91.5t202 -32.5q133 0 249 50t202 138t134 207t48 256q0 139 -49 259t-137 208z" />
<glyph unicode="&#xd9;" horiz-adv-x="1421" d="M139 600v834h94v-834q0 -170 61.5 -290t169 -182t247.5 -62q139 0 246.5 62t169 182t61.5 290v834h94v-834q0 -199 -71.5 -338t-200.5 -212t-299 -73t-299 73t-201 212t-72 338zM451 1872h139l192 -225h-90z" />
<glyph unicode="&#xda;" horiz-adv-x="1421" d="M139 600v834h94v-834q0 -170 61.5 -290t169 -182t247.5 -62q139 0 246.5 62t169 182t61.5 290v834h94v-834q0 -199 -71.5 -338t-200.5 -212t-299 -73t-299 73t-201 212t-72 338zM639 1647l197 225h137l-244 -225h-90z" />
<glyph unicode="&#xdb;" horiz-adv-x="1421" d="M139 600v834h94v-834q0 -170 61.5 -290t169 -182t247.5 -62q139 0 246.5 62t169 182t61.5 290v834h94v-834q0 -199 -71.5 -338t-200.5 -212t-299 -73t-299 73t-201 212t-72 338zM455 1636l202 236h107l203 -236h-76l-180 170l-181 -170h-75z" />
<glyph unicode="&#xdc;" horiz-adv-x="1421" d="M139 600v834h94v-834q0 -170 61.5 -290t169 -182t247.5 -62q139 0 246.5 62t169 182t61.5 290v834h94v-834q0 -199 -71.5 -338t-200.5 -212t-299 -73t-299 73t-201 212t-72 338zM473 1739q0 33 23 55q23 23 55 23q35 0 56 -23q22 -23 22 -55q0 -33 -22 -56 q-21 -22 -56 -22q-33 0 -55 22q-23 23 -23 56zM793 1739q0 33 22 55q23 23 55 23q35 0 57 -23t21 -55q0 -33 -21 -56q-22 -22 -57 -22q-33 0 -55 22q-23 23 -22 56z" />
<glyph unicode="&#xdd;" horiz-adv-x="1247" d="M14 1434h113l498 -750l499 750h109l-563 -840v-594h-95v598zM553 1647l197 225h137l-244 -225h-90z" />
<glyph unicode="&#xde;" horiz-adv-x="1271" d="M170 0v1434h94v-297h465q141 0 243.5 -49.5t157 -138.5t54.5 -210t-54.5 -212t-157 -141t-243.5 -50h-465v-336h-94zM264 424h461q117 0 198 39t122.5 110.5t41.5 165.5t-41.5 163t-122.5 108t-198 39h-461v-625z" />
<glyph unicode="&#xdf;" horiz-adv-x="1169" d="M139 0v1036q0 223 116 351.5t314 128.5q113 0 200 -42t137 -116t50 -170q0 -84 -34.5 -138.5t-86 -91t-103.5 -67.5t-87 -67t-35 -89q0 -45 31 -77.5t96 -55.5l160 -55q115 -39 173 -112t58 -177q0 -125 -91.5 -201.5t-243.5 -76.5q-201 0 -336 131l59 61 q109 -106 277 -106q115 0 180 52t65 140q0 78 -38.5 126t-129.5 79l-159 55q-96 35 -143.5 88t-47.5 129q0 72 35 118t87 79t103.5 65.5t86 76.5t34.5 114q0 102 -82 169.5t-215 67.5q-162 0 -251 -101t-89 -288v-1036h-90z" />
<glyph unicode="&#xe0;" horiz-adv-x="1011" d="M70 283q0 139 108.5 224t288.5 85t319 -88v168q0 139 -75.5 207.5t-216.5 68.5q-70 0 -146 -22.5t-174 -73.5l-39 80q96 49 184.5 72.5t176.5 23.5q182 0 281.5 -87t99.5 -253v-688h-91v113q-70 -63 -156 -98t-188 -35q-111 0 -194.5 37.5t-130.5 106.5t-47 159zM160 285 q0 -98 82 -162t207 -64q109 0 190.5 38t146.5 108v209q-68 51 -147.5 75.5t-181.5 24.5q-133 0 -215 -63.5t-82 -165.5zM219 1446h139l193 -225h-90z" />
<glyph unicode="&#xe1;" horiz-adv-x="1011" d="M70 283q0 139 108.5 224t288.5 85t319 -88v168q0 139 -75.5 207.5t-216.5 68.5q-70 0 -146 -22.5t-174 -73.5l-39 80q96 49 184.5 72.5t176.5 23.5q182 0 281.5 -87t99.5 -253v-688h-91v113q-70 -63 -156 -98t-188 -35q-111 0 -194.5 37.5t-130.5 106.5t-47 159zM160 285 q0 -98 82 -162t207 -64q109 0 190.5 38t146.5 108v209q-68 51 -147.5 75.5t-181.5 24.5q-133 0 -215 -63.5t-82 -165.5zM408 1221l196 225h137l-243 -225h-90z" />
<glyph unicode="&#xe2;" horiz-adv-x="1011" d="M70 283q0 139 108.5 224t288.5 85t319 -88v168q0 139 -75.5 207.5t-216.5 68.5q-70 0 -146 -22.5t-174 -73.5l-39 80q96 49 184.5 72.5t176.5 23.5q182 0 281.5 -87t99.5 -253v-688h-91v113q-70 -63 -156 -98t-188 -35q-111 0 -194.5 37.5t-130.5 106.5t-47 159zM160 285 q0 -98 82 -162t207 -64q109 0 190.5 38t146.5 108v209q-68 51 -147.5 75.5t-181.5 24.5q-133 0 -215 -63.5t-82 -165.5zM223 1210l203 236h106l203 -236h-76l-180 170l-180 -170h-76z" />
<glyph unicode="&#xe3;" horiz-adv-x="1011" d="M70 283q0 139 108.5 224t288.5 85t319 -88v168q0 139 -75.5 207.5t-216.5 68.5q-70 0 -146 -22.5t-174 -73.5l-39 80q96 49 184.5 72.5t176.5 23.5q182 0 281.5 -87t99.5 -253v-688h-91v113q-70 -63 -156 -98t-188 -35q-111 0 -194.5 37.5t-130.5 106.5t-47 159z M158 1227q41 184 176 184q53 0 103 -30t99 -58q48 -29 91 -29q35 0 58 27q24 27 38 92l76 -12q-20 -94 -67 -139q-46 -45 -111 -45q-51 0 -102 28q-50 29 -97 59t-92 29q-39 0 -61 -26q-22 -27 -36 -93zM160 285q0 -98 82 -162t207 -64q109 0 190.5 38t146.5 108v209 q-68 51 -147.5 75.5t-181.5 24.5q-133 0 -215 -63.5t-82 -165.5z" />
<glyph unicode="&#xe4;" horiz-adv-x="1011" d="M70 283q0 139 108.5 224t288.5 85t319 -88v168q0 139 -75.5 207.5t-216.5 68.5q-70 0 -146 -22.5t-174 -73.5l-39 80q96 49 184.5 72.5t176.5 23.5q182 0 281.5 -87t99.5 -253v-688h-91v113q-70 -63 -156 -98t-188 -35q-111 0 -194.5 37.5t-130.5 106.5t-47 159zM160 285 q0 -98 82 -162t207 -64q109 0 190.5 38t146.5 108v209q-68 51 -147.5 75.5t-181.5 24.5q-133 0 -215 -63.5t-82 -165.5zM242 1313q0 33 22 55q23 23 55 23q35 0 57 -23t21 -55q0 -33 -21 -56q-22 -22 -57 -22q-33 0 -55 22q-23 23 -22 56zM561 1313q0 33 23 55q23 23 55 23 q35 0 56 -23q22 -23 22 -55q0 -33 -22 -56q-21 -22 -56 -22q-33 0 -55 22q-23 23 -23 56z" />
<glyph unicode="&#xe5;" horiz-adv-x="1011" d="M70 283q0 139 108.5 224t288.5 85t319 -88v168q0 139 -75.5 207.5t-216.5 68.5q-70 0 -146 -22.5t-174 -73.5l-39 80q96 49 184.5 72.5t176.5 23.5q182 0 281.5 -87t99.5 -253v-688h-91v113q-70 -63 -156 -98t-188 -35q-111 0 -194.5 37.5t-130.5 106.5t-47 159zM160 285 q0 -98 82 -162t207 -64q109 0 190.5 38t146.5 108v209q-68 51 -147.5 75.5t-181.5 24.5q-133 0 -215 -63.5t-82 -165.5zM262 1409q0 59 29 109q29 49 78 78q49 30 110 30q63 0 112 -30q48 -30 77 -78q29 -49 28 -109q0 -59 -28 -110q-29 -50 -78 -79q-50 -30 -111 -30 t-110 30t-78 79q-29 50 -29 110zM332 1409q0 -63 42 -107q42 -45 105 -45q61 0 105 45q43 44 43 107t-44 107q-44 43 -104 43q-61 0 -104 -43t-43 -107z" />
<glyph unicode="&#xe6;" horiz-adv-x="1839" d="M80 283q0 139 108.5 224t288.5 85t320 -86v166q0 139 -76 207.5t-217 68.5q-70 0 -145.5 -22.5t-174.5 -73.5l-39 80q96 49 184.5 72.5t176.5 23.5q152 0 246 -60.5t122 -174.5q66 109 174.5 172t241.5 63q131 0 233.5 -69.5t163 -185.5t60.5 -257v-37h-858 q6 -117 62.5 -210t146.5 -148t200 -55q86 0 170 27.5t144 74.5l53 -72q-82 -59 -174 -87.5t-193 -28.5q-129 0 -237.5 60t-175.5 163q-76 -106 -186.5 -164.5t-245.5 -58.5q-111 0 -195 37.5t-131 106.5t-47 159zM170 285q0 -98 82 -162t207 -64q127 0 221 55.5t168 153.5 q-14 33 -25.5 67t-17.5 71q-70 55 -151 81.5t-187 26.5q-133 0 -215 -63.5t-82 -165.5zM893 565h758q-10 104 -59.5 189.5t-127.5 136.5t-176 51q-104 0 -189 -49t-139.5 -134t-66.5 -194z" />
<glyph unicode="&#xe7;" horiz-adv-x="1032" d="M92 504q0 147 66.5 266t181.5 188.5t254 69.5q102 0 205.5 -41t181.5 -113l-61 -73q-66 66 -151 103.5t-175 37.5q-115 0 -208 -58.5t-147.5 -157.5t-54.5 -222t54.5 -222.5t147.5 -157.5t208 -58q90 0 175 38.5t151 102.5l61 -74q-72 -68 -167 -107.5t-191 -45.5 l-27 -103q88 -2 141.5 -45t53.5 -115q0 -78 -61 -127t-157 -49q-137 0 -221 78l47 51q84 -66 174 -65q66 0 104 29.5t38 80.5q0 47 -41 75t-115 28h-47l43 164q-131 10 -235.5 80.5t-166 186.5t-61.5 255z" />
<glyph unicode="&#xe8;" horiz-adv-x="1124" d="M92 504q0 147 64.5 266t177 188.5t252.5 69.5q131 0 233.5 -69.5t162.5 -185.5t60 -257v-37h-858q6 -117 61.5 -210t146.5 -148t202 -55q86 0 170 27.5t143 74.5l54 -72q-82 -59 -174.5 -87.5t-192.5 -28.5q-139 0 -254 69.5t-181.5 188t-66.5 266.5zM188 565h758 q-10 104 -59 189.5t-127 136.5t-176 51q-104 0 -189.5 -49t-140 -134t-66.5 -194zM315 1446h140l192 -225h-90z" />
<glyph unicode="&#xe9;" horiz-adv-x="1124" d="M92 504q0 147 64.5 266t177 188.5t252.5 69.5q131 0 233.5 -69.5t162.5 -185.5t60 -257v-37h-858q6 -117 61.5 -210t146.5 -148t202 -55q86 0 170 27.5t143 74.5l54 -72q-82 -59 -174.5 -87.5t-192.5 -28.5q-139 0 -254 69.5t-181.5 188t-66.5 266.5zM188 565h758 q-10 104 -59 189.5t-127 136.5t-176 51q-104 0 -189.5 -49t-140 -134t-66.5 -194zM504 1221l196 225h138l-244 -225h-90z" />
<glyph unicode="&#xea;" horiz-adv-x="1124" d="M92 504q0 147 64.5 266t177 188.5t252.5 69.5q131 0 233.5 -69.5t162.5 -185.5t60 -257v-37h-858q6 -117 61.5 -210t146.5 -148t202 -55q86 0 170 27.5t143 74.5l54 -72q-82 -59 -174.5 -87.5t-192.5 -28.5q-139 0 -254 69.5t-181.5 188t-66.5 266.5zM188 565h758 q-10 104 -59 189.5t-127 136.5t-176 51q-104 0 -189.5 -49t-140 -134t-66.5 -194zM319 1210l203 236h107l202 -236h-75l-181 170l-180 -170h-76z" />
<glyph unicode="&#xeb;" horiz-adv-x="1124" d="M92 504q0 147 64.5 266t177 188.5t252.5 69.5q131 0 233.5 -69.5t162.5 -185.5t60 -257v-37h-858q6 -117 61.5 -210t146.5 -148t202 -55q86 0 170 27.5t143 74.5l54 -72q-82 -59 -174.5 -87.5t-192.5 -28.5q-139 0 -254 69.5t-181.5 188t-66.5 266.5zM188 565h758 q-10 104 -59 189.5t-127 136.5t-176 51q-104 0 -189.5 -49t-140 -134t-66.5 -194zM338 1313q0 33 22 55q23 23 56 23q35 0 56 -23q22 -23 22 -55q0 -33 -22 -56q-21 -22 -56 -22q-33 0 -56 22q-23 23 -22 56zM657 1313q0 33 23 55q23 23 55 23q35 0 57 -23t21 -55 q0 -33 -21 -56q-22 -22 -57 -22q-33 0 -55 22q-23 23 -23 56z" />
<glyph unicode="&#xec;" horiz-adv-x="368" d="M-84 1446h139l193 -225h-90zM139 0v1008h90v-1008h-90z" />
<glyph unicode="&#xed;" horiz-adv-x="368" d="M104 1221l197 225h137l-243 -225h-91zM139 0v1008h90v-1008h-90z" />
<glyph unicode="&#xee;" horiz-adv-x="368" d="M-80 1210l203 236h106l203 -236h-76l-180 170l-180 -170h-76zM139 0v1008h90v-1008h-90z" />
<glyph unicode="&#xef;" horiz-adv-x="368" d="M-61 1313q0 33 22 55q23 23 55 23q35 0 57 -23t21 -55q0 -33 -21 -56q-22 -22 -57 -22q-33 0 -55 22q-23 23 -22 56zM139 0v1008h90v-1008h-90zM258 1313q0 33 23 55q23 23 55 23q35 0 56 -23q22 -23 22 -55q0 -33 -22 -56q-21 -22 -56 -22q-33 0 -55 22q-23 23 -23 56z " />
<glyph unicode="&#xf0;" horiz-adv-x="1204" d="M92 504q0 109 38 202t105.5 161.5t159.5 106.5t199 38q135 0 245.5 -67.5t172.5 -182.5q-20 145 -80 265t-156 206l-223 -137l-43 69l199 123q-53 35 -115 62.5t-133 44.5l26 73q86 -20 160 -54t135 -81l236 146l45 -70l-213 -131q127 -119 191.5 -296t64.5 -402 q0 -180 -64.5 -315.5t-180 -210t-267.5 -74.5q-139 0 -254 69.5t-181.5 188t-66.5 266.5zM184 496q0 -121 54.5 -219.5t148.5 -154.5t209 -56q117 0 210 56t147.5 154.5t54.5 219.5q0 123 -54.5 220t-147.5 153.5t-210 56.5q-115 0 -209 -56.5t-148.5 -154t-54.5 -219.5z " />
<glyph unicode="&#xf1;" horiz-adv-x="1083" d="M139 0v1008h90v-142q123 162 334 162q115 0 202 -48t135 -135t48 -202v-643h-90v618q0 152 -84 239t-231 87q-102 0 -184.5 -48t-129.5 -138v-758h-90zM223 1227q41 184 176 184q53 0 104 -30q50 -30 98 -58q48 -29 91 -29q35 0 59 27t37 92l76 -12q-20 -94 -66 -139 t-112 -45q-51 0 -101 28q-50 29 -98 59q-47 30 -92 29q-39 0 -60 -26q-22 -27 -36 -93z" />
<glyph unicode="&#xf2;" horiz-adv-x="1187" d="M92 504q0 147 66.5 266t181.5 188.5t254 69.5q141 0 255 -69.5t180.5 -188.5t66.5 -266q0 -145 -66.5 -265t-180.5 -189.5t-255 -69.5q-139 0 -254 69.5t-181.5 189t-66.5 265.5zM184 504q0 -123 54.5 -222.5t147.5 -157.5t208 -58t208 58t147.5 157.5t54.5 222.5 t-54.5 222t-147.5 157.5t-208 58.5t-208 -58.5t-147.5 -157.5t-54.5 -222zM334 1446h139l193 -225h-91z" />
<glyph unicode="&#xf3;" horiz-adv-x="1187" d="M92 504q0 147 66.5 266t181.5 188.5t254 69.5q141 0 255 -69.5t180.5 -188.5t66.5 -266q0 -145 -66.5 -265t-180.5 -189.5t-255 -69.5q-139 0 -254 69.5t-181.5 189t-66.5 265.5zM184 504q0 -123 54.5 -222.5t147.5 -157.5t208 -58t208 58t147.5 157.5t54.5 222.5 t-54.5 222t-147.5 157.5t-208 58.5t-208 -58.5t-147.5 -157.5t-54.5 -222zM522 1221l197 225h137l-244 -225h-90z" />
<glyph unicode="&#xf4;" horiz-adv-x="1187" d="M92 504q0 147 66.5 266t181.5 188.5t254 69.5q141 0 255 -69.5t180.5 -188.5t66.5 -266q0 -145 -66.5 -265t-180.5 -189.5t-255 -69.5q-139 0 -254 69.5t-181.5 189t-66.5 265.5zM184 504q0 -123 54.5 -222.5t147.5 -157.5t208 -58t208 58t147.5 157.5t54.5 222.5 t-54.5 222t-147.5 157.5t-208 58.5t-208 -58.5t-147.5 -157.5t-54.5 -222zM338 1210l203 236h106l203 -236h-76l-180 170l-180 -170h-76z" />
<glyph unicode="&#xf5;" horiz-adv-x="1187" d="M92 504q0 147 66.5 266t181.5 188.5t254 69.5q141 0 255 -69.5t180.5 -188.5t66.5 -266q0 -145 -66.5 -265t-180.5 -189.5t-255 -69.5q-139 0 -254 69.5t-181.5 189t-66.5 265.5zM184 504q0 -123 54.5 -222.5t147.5 -157.5t208 -58t208 58t147.5 157.5t54.5 222.5 t-54.5 222t-147.5 157.5t-208 58.5t-208 -58.5t-147.5 -157.5t-54.5 -222zM272 1227q41 184 177 184q53 0 103 -30t98 -58q48 -29 91 -29q35 0 59 27t38 92l75 -12q-20 -94 -66 -139t-112 -45q-51 0 -101 28q-50 29 -97 59t-93 29q-39 0 -60 -26q-22 -27 -36 -93z" />
<glyph unicode="&#xf6;" horiz-adv-x="1187" d="M92 504q0 147 66.5 266t181.5 188.5t254 69.5q141 0 255 -69.5t180.5 -188.5t66.5 -266q0 -145 -66.5 -265t-180.5 -189.5t-255 -69.5q-139 0 -254 69.5t-181.5 189t-66.5 265.5zM184 504q0 -123 54.5 -222.5t147.5 -157.5t208 -58t208 58t147.5 157.5t54.5 222.5 t-54.5 222t-147.5 157.5t-208 58.5t-208 -58.5t-147.5 -157.5t-54.5 -222zM356 1313q0 33 23 55q23 23 55 23q35 0 56 -23q22 -23 22 -55q0 -33 -22 -56q-21 -22 -56 -22q-33 0 -55 22q-23 23 -23 56zM676 1313q0 33 22 55q23 23 56 23q35 0 56 -23q22 -23 21 -55 q0 -33 -21 -56q-21 -22 -56 -22q-33 0 -56 22q-23 23 -22 56z" />
<glyph unicode="&#xf7;" d="M227 690v84h772v-84h-772zM537 379q0 33 22.5 55.5t54.5 22.5q35 0 56.5 -22.5t21.5 -55.5t-21.5 -55.5t-56.5 -22.5q-33 0 -55 22.5t-22 55.5zM537 1085q0 33 22.5 55.5t54.5 22.5q35 0 56.5 -22.5t21.5 -55.5t-21.5 -55t-56.5 -22q-33 0 -55 22.5t-22 54.5z" />
<glyph unicode="&#xf8;" horiz-adv-x="1187" d="M92 504q0 147 66.5 266t181.5 188.5t254 69.5q84 0 159.5 -25.5t137.5 -72.5l65 78h113l-115 -138q66 -70 104 -164t38 -202q0 -145 -66.5 -265t-180.5 -189.5t-255 -69.5q-84 0 -160 26.5t-137 73.5l-66 -80h-112l114 137q-66 72 -103.5 166t-37.5 201zM184 504 q0 -88 29 -163t78 -134l543 653q-49 39 -110.5 60.5t-129.5 21.5q-115 0 -208 -58.5t-147.5 -157.5t-54.5 -222zM354 147q49 -39 110.5 -60t129.5 -21q115 0 208 58t147.5 157.5t54.5 222.5q0 88 -29 163.5t-78 133.5z" />
<glyph unicode="&#xf9;" horiz-adv-x="1083" d="M135 365v643h90v-619q0 -150 84 -238t232 -88q102 0 184 49.5t129 137.5v758h90v-1008h-90v139q-119 -159 -334 -159q-113 0 -200 48t-136 135t-49 202zM281 1446h139l192 -225h-90z" />
<glyph unicode="&#xfa;" horiz-adv-x="1083" d="M135 365v643h90v-619q0 -150 84 -238t232 -88q102 0 184 49.5t129 137.5v758h90v-1008h-90v139q-119 -159 -334 -159q-113 0 -200 48t-136 135t-49 202zM469 1221l197 225h137l-244 -225h-90z" />
<glyph unicode="&#xfb;" horiz-adv-x="1083" d="M135 365v643h90v-619q0 -150 84 -238t232 -88q102 0 184 49.5t129 137.5v758h90v-1008h-90v139q-119 -159 -334 -159q-113 0 -200 48t-136 135t-49 202zM285 1210l202 236h107l203 -236h-76l-180 170l-181 -170h-75z" />
<glyph unicode="&#xfc;" horiz-adv-x="1083" d="M135 365v643h90v-619q0 -150 84 -238t232 -88q102 0 184 49.5t129 137.5v758h90v-1008h-90v139q-119 -159 -334 -159q-113 0 -200 48t-136 135t-49 202zM303 1313q0 33 23 55q23 23 55 23q35 0 56 -23q22 -23 22 -55q0 -33 -22 -56q-21 -22 -56 -22q-33 0 -55 22 q-23 23 -23 56zM623 1313q0 33 22 55q23 23 55 23q35 0 57 -23t21 -55q0 -33 -21 -56q-22 -22 -57 -22q-33 0 -55 22q-23 23 -22 56z" />
<glyph unicode="&#xfd;" horiz-adv-x="980" d="M14 1008h103l366 -895l383 895h101l-525 -1196q-39 -88 -81 -142.5t-91.5 -79t-115.5 -24.5q-23 0 -45.5 3t-38.5 5v90q33 -8 80 -8q129 0 202 164l82 184zM422 1221l196 225h138l-244 -225h-90z" />
<glyph unicode="&#xfe;" horiz-adv-x="1169" d="M139 -418v1852l90 22v-569q137 141 346 141q141 2 255 -68.5t180.5 -189.5t66.5 -266q0 -145 -66.5 -265t-180 -189.5t-255.5 -69.5q-96 0 -185 37.5t-161 101.5v-537h-90zM229 233q53 -72 145.5 -119.5t200.5 -47.5q115 0 208.5 58t147.5 157.5t54 222.5t-54 222 t-147.5 157.5t-208.5 58.5q-113 0 -203.5 -46t-142.5 -122v-541z" />
<glyph unicode="&#xff;" horiz-adv-x="980" d="M14 1008h103l366 -895l383 895h101l-525 -1196q-39 -88 -81 -142.5t-91.5 -79t-115.5 -24.5q-23 0 -45.5 3t-38.5 5v90q33 -8 80 -8q129 0 202 164l82 184zM256 1313q0 33 23 55q23 23 55 23q35 0 56 -23q22 -23 22 -55q0 -33 -22 -56q-21 -22 -56 -22q-33 0 -55 22 q-23 23 -23 56zM575 1313q0 33 23 55q23 23 55 23q35 0 57 -23t21 -55q0 -33 -21 -56q-22 -22 -57 -22q-33 0 -55 22q-23 23 -23 56z" />
<glyph unicode="&#x152;" horiz-adv-x="2207" d="M98 717q0 152 54.5 281.5t151.5 227t225 153t276 55.5h1331v-88h-1001q158 -82 260 -233.5t114 -344.5h369v-88h-367q-10 -199 -115.5 -353.5t-267.5 -238.5h1016v-88h-1339q-147 0 -275.5 55.5t-225.5 152.5t-151.5 228t-54.5 281zM195 717q0 -133 46 -248t130 -200 t194.5 -133t239.5 -48t239.5 48t194.5 133t130 200t46 248t-46 247.5t-130 199.5t-194.5 133.5t-239.5 48.5t-239.5 -48.5t-194.5 -133.5t-130 -199.5t-46 -247.5z" />
<glyph unicode="&#x153;" horiz-adv-x="2048" d="M92 504q0 147 66.5 266t181.5 188.5t254 69.5q154 0 275.5 -85t179.5 -224q57 139 177 224t273 85q131 0 233.5 -69.5t163 -185.5t60.5 -257v-37h-858q6 -117 62.5 -210t146.5 -148t200 -55q86 0 170 27.5t144 74.5l53 -72q-82 -59 -174 -87.5t-193 -28.5 q-156 0 -277.5 86t-180.5 225q-57 -137 -179 -224t-276 -87q-139 0 -254 69.5t-181.5 189t-66.5 265.5zM184 504q0 -123 54.5 -222.5t147.5 -157.5t208 -58t208 58t147.5 157.5t54.5 222.5t-54.5 222t-147.5 157.5t-208 58.5t-208 -58.5t-147.5 -157.5t-54.5 -222zM1102 565 h758q-10 104 -59.5 189.5t-127.5 136.5t-176 51q-104 0 -189 -49t-139.5 -134t-66.5 -194z" />
<glyph unicode="&#x178;" horiz-adv-x="1247" d="M14 1434h113l498 -750l499 750h109l-563 -840v-594h-95v598zM387 1739q0 33 23 55q23 23 55 23q35 0 56 -23q22 -23 22 -55q0 -33 -22 -56q-21 -22 -56 -22q-33 0 -55 22q-23 23 -23 56zM707 1739q0 33 22 55q23 23 55 23q35 0 57 -23t21 -55q0 -33 -21 -56 q-22 -22 -57 -22q-33 0 -55 22q-23 23 -22 56z" />
<glyph unicode="&#x2c6;" d="M358 1210l203 236h107l202 -236h-75l-181 170l-180 -170h-76z" />
<glyph unicode="&#x2dc;" d="M293 1227q41 184 176 184q53 0 103.5 -29.5t98.5 -58.5t91 -29q35 0 58.5 27t37.5 92l76 -12q-20 -94 -66.5 -139t-111.5 -45q-51 0 -101.5 28.5t-97.5 58t-92 29.5q-39 0 -60.5 -26.5t-35.5 -92.5z" />
<glyph unicode="&#x2000;" horiz-adv-x="1026" />
<glyph unicode="&#x2001;" horiz-adv-x="2052" />
<glyph unicode="&#x2002;" horiz-adv-x="1026" />
<glyph unicode="&#x2003;" horiz-adv-x="2052" />
<glyph unicode="&#x2004;" horiz-adv-x="684" />
<glyph unicode="&#x2005;" horiz-adv-x="513" />
<glyph unicode="&#x2006;" horiz-adv-x="342" />
<glyph unicode="&#x2007;" horiz-adv-x="342" />
<glyph unicode="&#x2008;" horiz-adv-x="256" />
<glyph unicode="&#x2009;" horiz-adv-x="410" />
<glyph unicode="&#x200a;" horiz-adv-x="114" />
<glyph unicode="&#x2010;" horiz-adv-x="905" d="M109 528v90h688v-90h-688z" />
<glyph unicode="&#x2011;" horiz-adv-x="905" d="M109 528v90h688v-90h-688z" />
<glyph unicode="&#x2012;" horiz-adv-x="905" d="M109 528v90h688v-90h-688z" />
<glyph unicode="&#x2013;" horiz-adv-x="1110" d="M109 528v90h892v-90h-892z" />
<glyph unicode="&#x2014;" horiz-adv-x="1417" d="M109 528v90h1200v-90h-1200z" />
<glyph unicode="&#x2018;" horiz-adv-x="512" d="M135 1067l135 385h78l-109 -385h-104z" />
<glyph unicode="&#x2019;" horiz-adv-x="512" d="M156 1067l109 385h104l-135 -385h-78z" />
<glyph unicode="&#x201a;" horiz-adv-x="512" d="M129 -268l109 385h104l-135 -385h-78z" />
<glyph unicode="&#x201c;" horiz-adv-x="737" d="M143 1067l135 385h78l-109 -385h-104zM369 1067l135 385h78l-109 -385h-104z" />
<glyph unicode="&#x201d;" horiz-adv-x="737" d="M156 1067l109 385h104l-135 -385h-78zM381 1067l109 385h104l-135 -385h-78z" />
<glyph unicode="&#x201e;" horiz-adv-x="737" d="M129 -268l109 385h104l-135 -385h-78zM354 -268l109 385h104l-135 -385h-78z" />
<glyph unicode="&#x2022;" horiz-adv-x="647" d="M133 741q0 53 25.5 97.5t69.5 71t96 26.5q53 0 96 -26.5t68.5 -70.5t25.5 -98q0 -53 -25.5 -97t-68.5 -70.5t-96 -26.5q-51 0 -95.5 26.5t-70 70.5t-25.5 97z" />
<glyph unicode="&#x2026;" horiz-adv-x="1245" d="M178 68q0 33 22.5 55t55.5 22t55.5 -22.5t22.5 -54.5q0 -33 -22.5 -55.5t-55.5 -22.5t-55.5 22.5t-22.5 55.5zM545 68q0 33 22.5 55t55.5 22t55.5 -22.5t22.5 -54.5q0 -33 -22.5 -55.5t-55.5 -22.5t-55.5 22.5t-22.5 55.5zM911 68q0 33 22.5 55t55.5 22t55.5 -22.5 t22.5 -54.5q0 -33 -22.5 -55.5t-55.5 -22.5t-55.5 22.5t-22.5 55.5z" />
<glyph unicode="&#x202f;" horiz-adv-x="410" />
<glyph unicode="&#x2039;" horiz-adv-x="757" d="M74 504l471 504h106l-473 -504l473 -504h-106z" />
<glyph unicode="&#x203a;" horiz-adv-x="757" d="M107 0l473 504l-473 504h106l471 -504l-471 -504h-106z" />
<glyph unicode="&#x205f;" horiz-adv-x="513" />
<glyph unicode="&#x20ac;" horiz-adv-x="1574" d="M66 537v84h208q-2 23 -3 47t-1 49t1 49.5t3 46.5h-208v84h221q35 170 127 296t228 194.5t298 68.5q158 0 295 -67.5t229 -190.5l-69 -53q-82 111 -202 167t-255 56t-250 -56.5t-193.5 -160.5t-111.5 -254h604l-29 -84h-589q-2 -23 -3 -47.5t-1 -48.5q0 -25 1 -49.5 t3 -46.5h522l-27 -84h-481q33 -147 111.5 -253t193.5 -162t250 -56t255 56t202 167l69 -53q-92 -123 -229 -191t-295 -68q-162 0 -298 69t-228 195t-127 296h-221z" />
<glyph unicode="&#x2122;" horiz-adv-x="1370" d="M76 1376v58h477v-58h-207v-506h-63v506h-207zM662 870v564h81l199 -402l197 402h80v-564h-64v480l-215 -441l-215 441v-480h-63z" />
<glyph unicode="&#x25fc;" horiz-adv-x="1003" d="M0 0v1004h1004v-1004h-1004z" />
<glyph unicode="&#xfb01;" horiz-adv-x="1081" d="M35 926v82h241v223q0 137 72 211t207 74q39 0 66.5 -4.5t56.5 -14.5v-88q-35 10 -62.5 15.5t-62.5 5.5q-94 0 -140 -47.5t-46 -153.5v-221h311v-82h-311v-926h-91v926h-241zM819 1313q0 33 23 55.5t55 22.5q35 0 56.5 -22.5t21.5 -55.5t-21.5 -55.5t-56.5 -22.5 q-33 0 -55.5 22.5t-22.5 55.5zM852 0v1008h90v-1008h-90z" />
<glyph unicode="&#xfb02;" horiz-adv-x="1081" d="M35 926v82h241v223q0 137 72 211t207 74q39 0 66.5 -4.5t56.5 -14.5v-88q-35 10 -62.5 15.5t-62.5 5.5q-94 0 -140 -47.5t-46 -153.5v-221h311v-82h-311v-926h-91v926h-241zM852 0v1434l90 22v-1456h-90z" />
</font>
</defs>
</svg>
